<?xml version="1.0" encoding="utf-8"?>
<!-- Generator: Adobe Illustrator 15.0.0, SVG Export Plug-In . SVG Version: 6.00 Build 0)  -->
<!DOCTYPE svg PUBLIC "-//W3C//DTD SVG 1.1//EN" "http://www.w3.org/Graphics/SVG/1.1/DTD/svg11.dtd">
<svg version="1.1" id="Layer_1" xmlns="http://www.w3.org/2000/svg" xmlns:xlink="http://www.w3.org/1999/xlink" x="0px" y="0px"
	 width="500px" height="500px" viewBox="0 0 500 500" enable-background="new 0 0 500 500" xml:space="preserve">
<path fill="#020202" d="M498.979,297.646l0.369-1.834c-41.115-8.221-83.309-8.305-108.834-7.242
	c4.192-15.108,5.453-32.492,5.453-51.879c0-27.804-10.443-50.046-27.404-66.973c2.965-9.564,6.923-30.81-3.952-58.004
	c0,0-19.187-6.093-62.581,22.953c-16.998-4.25-35.09-6.347-53.209-6.347c-19.936,0-40.079,2.537-58.865,7.692
	c-44.786-30.558-64.561-24.298-64.561-24.298c-12.903,32.269-4.925,56.162-2.501,62.096c-15.166,16.367-24.427,37.263-24.427,62.881
	c0,19.341,2.202,36.689,7.579,51.771c-25.74-0.937-66.396-0.576-106.045,7.353l0.366,1.832c39.887-7.978,80.796-8.254,106.383-7.285
	c1.185,3.119,2.505,6.149,3.985,9.074c-25.304,0.817-68.507,4.041-109.912,15.722l0.511,1.795
	c41.731-11.767,85.311-14.911,110.369-15.679c15.118,28.182,44.922,46.381,97.948,52.097c-7.525,5.058-15.205,13.653-18.314,28.202
	c-10.256,4.904-42.722,16.879-62.201-16.623c0,0-10.901-19.938-31.773-21.497c0,0-20.244-0.312-1.396,12.614
	c0,0,13.544,6.386,22.892,30.373c0,0,12.193,40.914,71.03,27.787v42.266c0,0-1.244,14.949-14.948,19.928
	c0,0-8.097,5.607,0.626,8.718c0,0,37.989,3.115,37.989-28.021v-46.087c0,0-1.507-18.276,7.471-24.627v75.694
	c0,0-0.619,18.061-9.962,24.912c0,0-6.231,11.207,7.472,8.097c0,0,26.156-3.735,27.403-34.253l0.592-64.676h6.288l0.598,64.676
	c1.244,30.518,27.4,34.253,27.4,34.253c13.699,3.11,7.473-8.097,7.473-8.097c-9.342-6.853-9.963-24.912-9.963-24.912v-75.042
	c8.974,6.987,7.472,23.975,7.472,23.975v46.087c0,31.138,37.99,28.021,37.99,28.021c8.716-3.109,0.625-8.718,0.625-8.718
	c-13.703-4.979-14.949-19.928-14.949-19.928V396.08c0-23.559-9.919-36.032-19.62-42.616c56.551-5.606,83.687-23.868,96.189-52.237
	c24.771,0.681,69.344,3.698,111.984,15.727l0.506-1.795c-42.395-11.958-86.678-15.053-111.696-15.78
	c1.186-2.864,2.219-5.846,3.139-8.912C415.317,289.379,457.698,289.391,498.979,297.646"/>
</svg>
