<?xml version="1.0" encoding="utf-8"?>
<!-- Generator: Adobe Illustrator 15.0.0, SVG Export Plug-In . SVG Version: 6.00 Build 0)  -->
<!DOCTYPE svg PUBLIC "-//W3C//DTD SVG 1.1//EN" "http://www.w3.org/Graphics/SVG/1.1/DTD/svg11.dtd">
<svg version="1.1" id="Layer_1" xmlns="http://www.w3.org/2000/svg" xmlns:xlink="http://www.w3.org/1999/xlink" x="0px" y="0px"
	 width="500px" height="500px" viewBox="0 0 500 500" enable-background="new 0 0 500 500" xml:space="preserve">
<pattern  width="28.8" height="28.8" patternUnits="userSpaceOnUse" id="_x31_0_dpi_40_x25_" viewBox="17.28 -31.68 28.8 28.8" overflow="visible">
	<g>
		<polygon fill="none" points="17.28,-2.88 17.28,-31.68 46.08,-31.68 46.08,-2.88 		"/>
		<path fill="#231F20" d="M46.08,0c1.59,0,2.88-1.29,2.88-2.88c0-1.591-1.29-2.88-2.88-2.88c-1.591,0-2.88,1.289-2.88,2.88
			C43.2-1.29,44.489,0,46.08,0z"/>
		<path fill="#231F20" d="M31.68,0c1.59,0,2.88-1.29,2.88-2.88c0-1.591-1.29-2.88-2.88-2.88c-1.591,0-2.88,1.289-2.88,2.88
			C28.8-1.29,30.089,0,31.68,0z"/>
		<path fill="#231F20" d="M17.28,0c1.59,0,2.88-1.29,2.88-2.88c0-1.591-1.29-2.88-2.88-2.88c-1.59,0-2.88,1.289-2.88,2.88
			C14.4-1.29,15.69,0,17.28,0z"/>
		<path fill="#231F20" d="M46.08-14.4c1.59,0,2.88-1.29,2.88-2.88c0-1.591-1.29-2.88-2.88-2.88c-1.591,0-2.88,1.289-2.88,2.88
			C43.2-15.69,44.489-14.4,46.08-14.4z"/>
		<path fill="#231F20" d="M31.68-14.4c1.59,0,2.88-1.29,2.88-2.88c0-1.591-1.29-2.88-2.88-2.88c-1.591,0-2.88,1.289-2.88,2.88
			C28.8-15.69,30.089-14.4,31.68-14.4z"/>
		<path fill="#231F20" d="M17.28-14.4c1.59,0,2.88-1.29,2.88-2.88c0-1.591-1.29-2.88-2.88-2.88c-1.59,0-2.88,1.289-2.88,2.88
			C14.4-15.69,15.69-14.4,17.28-14.4z"/>
		<path fill="#231F20" d="M46.08-28.8c1.59,0,2.88-1.29,2.88-2.88c0-1.591-1.29-2.88-2.88-2.88c-1.591,0-2.88,1.289-2.88,2.88
			C43.2-30.09,44.489-28.8,46.08-28.8z"/>
		<path fill="#231F20" d="M31.68-28.8c1.59,0,2.88-1.29,2.88-2.88c0-1.591-1.29-2.88-2.88-2.88c-1.591,0-2.88,1.289-2.88,2.88
			C28.8-30.09,30.089-28.8,31.68-28.8z"/>
		<path fill="#231F20" d="M17.28-28.8c1.59,0,2.88-1.29,2.88-2.88c0-1.591-1.29-2.88-2.88-2.88c-1.59,0-2.88,1.289-2.88,2.88
			C14.4-30.09,15.69-28.8,17.28-28.8z"/>
		<path fill="#231F20" d="M2.88-28.8c1.591,0,2.88-1.29,2.88-2.88c0-1.591-1.289-2.88-2.88-2.88C1.29-34.56,0-33.271,0-31.68
			C0-30.09,1.29-28.8,2.88-28.8z"/>
		<path fill="#231F20" d="M2.88-31.68"/>
		<path fill="#231F20" d="M24.479-7.2c1.591,0,2.881-1.29,2.881-2.88c0-1.591-1.29-2.88-2.881-2.88s-2.88,1.289-2.88,2.88
			C21.6-8.49,22.889-7.2,24.479-7.2z"/>
		<path fill="#231F20" d="M38.88-7.2c1.59,0,2.88-1.29,2.88-2.88c0-1.591-1.29-2.88-2.88-2.88c-1.591,0-2.88,1.289-2.88,2.88
			C36-8.49,37.289-7.2,38.88-7.2z"/>
		<path fill="#231F20" d="M24.479-21.6c1.591,0,2.881-1.29,2.881-2.88c0-1.591-1.29-2.88-2.881-2.88s-2.88,1.289-2.88,2.88
			C21.6-22.89,22.889-21.6,24.479-21.6z"/>
		<path fill="#231F20" d="M38.88-21.6c1.59,0,2.88-1.29,2.88-2.88c0-1.591-1.29-2.88-2.88-2.88c-1.591,0-2.88,1.289-2.88,2.88
			C36-22.89,37.289-21.6,38.88-21.6z"/>
		<path fill="#231F20" d="M10.08-21.6c1.591,0,2.88-1.29,2.88-2.88c0-1.591-1.289-2.88-2.88-2.88c-1.59,0-2.88,1.289-2.88,2.88
			C7.2-22.89,8.49-21.6,10.08-21.6z"/>
		<path fill="#231F20" d="M10.08-24.48"/>
	</g>
</pattern>
<pattern  width="72" height="72" patternUnits="userSpaceOnUse" id="Plaid_1" viewBox="1.601 -73.6 72 72" overflow="visible">
	<g>
		<polygon fill="none" points="1.601,-1.6 1.601,-73.6 73.601,-73.6 73.601,-1.6 		"/>
		<line fill="none" stroke="#231F20" stroke-width="0.3" stroke-linecap="square" x1="73.601" y1="-57.6" x2="1.601" y2="-57.6"/>
		<line fill="none" stroke="#231F20" stroke-width="0.3" stroke-linecap="square" x1="73.601" y1="-21.6" x2="1.601" y2="-21.6"/>
		<line fill="none" stroke="#231F20" stroke-width="0.3" stroke-linecap="square" x1="73.601" y1="-51.6" x2="1.601" y2="-51.6"/>
		<line fill="none" stroke="#231F20" stroke-width="0.3" stroke-linecap="square" x1="73.601" y1="-15.6" x2="1.601" y2="-15.6"/>
		<line fill="none" stroke="#231F20" stroke-width="0.3" stroke-linecap="square" x1="73.601" y1="-53.6" x2="1.601" y2="-53.6"/>
		<line fill="none" stroke="#231F20" stroke-width="0.3" stroke-linecap="square" x1="73.601" y1="-17.6" x2="1.601" y2="-17.6"/>
		<line fill="none" stroke="#231F20" stroke-width="0.3" stroke-linecap="square" x1="73.601" y1="-59.6" x2="1.601" y2="-59.6"/>
		<line fill="none" stroke="#231F20" stroke-width="0.3" stroke-linecap="square" x1="73.601" y1="-23.6" x2="1.601" y2="-23.6"/>
		<line fill="none" stroke="#231F20" stroke-width="0.3" stroke-linecap="square" x1="17.601" y1="-73.6" x2="17.601" y2="-1.6"/>
		<line fill="none" stroke="#231F20" stroke-width="0.3" stroke-linecap="square" x1="53.601" y1="-73.6" x2="53.601" y2="-1.6"/>
		<line fill="none" stroke="#231F20" stroke-width="0.3" stroke-linecap="square" x1="23.601" y1="-73.6" x2="23.601" y2="-1.6"/>
		<line fill="none" stroke="#231F20" stroke-width="0.3" stroke-linecap="square" x1="59.601" y1="-73.6" x2="59.601" y2="-1.6"/>
		<line fill="none" stroke="#231F20" stroke-width="0.3" stroke-linecap="square" x1="15.601" y1="-73.6" x2="15.601" y2="-1.6"/>
		<line fill="none" stroke="#231F20" stroke-width="0.3" stroke-linecap="square" x1="51.601" y1="-73.6" x2="51.601" y2="-1.6"/>
		<line fill="none" stroke="#231F20" stroke-width="0.3" stroke-linecap="square" x1="21.601" y1="-73.6" x2="21.601" y2="-1.6"/>
		<line fill="none" stroke="#231F20" stroke-width="0.3" stroke-linecap="square" x1="57.601" y1="-73.6" x2="57.601" y2="-1.6"/>
	</g>
</pattern>
<g>
	<path fill="#9EDAF1" d="M92.875,357.222l-4.017,13.994c0,0-1.047,5.058,3.72,5.957c4.977-0.099,4.567-4.754,4.221-6.264
		L92.875,357.222z"/>
	<path fill="#010101" d="M497.424,298.544l0.367-1.821c-40.824-8.164-82.717-8.247-108.059-7.191
		c4.162-15.001,5.414-32.262,5.414-51.511c0-27.604-10.371-49.688-27.209-66.496c2.941-9.495,6.873-30.589-3.924-57.589
		c0,0-19.049-6.051-62.137,22.789c-16.879-4.221-34.84-6.3-52.831-6.3c-19.792,0-39.792,2.517-58.446,7.637
		c-44.468-30.34-64.101-24.125-64.101-24.125c-12.812,32.04-4.89,55.762-2.482,61.653c-15.059,16.25-24.253,36.998-24.253,62.433
		c0,19.202,2.186,36.429,7.526,51.404c-25.558-0.932-65.924-0.574-105.29,7.298l0.363,1.821
		c39.604-7.924,80.221-8.196,105.626-7.234c1.175,3.096,2.487,6.105,3.956,9.01c-25.124,0.811-68.02,4.01-109.129,15.608
		l0.507,1.781c41.434-11.683,84.703-14.804,109.583-15.566c15.009,27.979,44.602,46.051,97.25,51.726
		c-7.473,5.021-15.097,13.557-18.185,28c-10.182,4.87-42.417,16.76-61.756-16.505c0,0-10.826-19.793-31.548-21.344
		c0,0-20.101-0.309-1.387,12.526c0,0,13.448,6.338,22.729,30.156c0,0,12.107,40.623,70.526,27.588v41.964
		c0,0-1.236,14.843-14.842,19.788c0,0-8.04,5.566,0.622,8.655c0,0,37.718,3.094,37.718-27.823v-45.758
		c0,0-1.495-18.146,7.419-24.453v75.158c0,0-0.616,17.928-9.892,24.734c0,0-6.187,11.126,7.418,8.037c0,0,25.969-3.71,27.207-34.009
		l0.589-76.059h6.242l0.594,76.059c1.236,30.299,27.205,34.009,27.205,34.009c13.604,3.089,7.42-8.037,7.42-8.037
		c-9.275-6.807-9.893-24.734-9.893-24.734v-74.51c8.91,6.938,7.42,23.805,7.42,23.805v45.758c0,30.917,37.719,27.823,37.719,27.823
		c8.654-3.089,0.619-8.655,0.619-8.655c-13.605-4.945-14.842-19.788-14.842-19.788v-59.98c0-23.39-9.848-35.776-19.479-42.312
		c56.146-5.568,83.088-23.699,95.504-51.866c24.594,0.676,68.85,3.672,111.186,15.614l0.502-1.781
		c-42.092-11.873-86.059-14.944-110.9-15.669c1.178-2.844,2.203-5.805,3.115-8.849C414.357,290.335,456.439,290.348,497.424,298.544
		"/>
	<path fill="#F4CBB3" d="M340.23,236.72c12.092,10.955,19.166,24.186,19.166,38.44c0,66.556-49.613,68.358-110.808,68.358
		c-61.205,0-110.814-9.216-110.814-68.358c0-14.159,6.974-27.307,18.918-38.219c19.924-18.185,53.641-8.553,91.896-8.553
		C286.684,228.388,320.277,218.659,340.23,236.72"/>
	<path fill="#C4E5D9" d="M107.641,348.971c0,1.538-1.803,2.781-4.022,2.781c-2.219,0-4.022-1.243-4.022-2.781
		c0-1.539,1.803-2.786,4.022-2.786C105.838,346.185,107.641,347.432,107.641,348.971"/>
	<path fill="#C4E5D9" d="M118.774,355.153c0,1.539-1.804,2.786-4.021,2.786c-2.221,0-4.025-1.247-4.025-2.786
		c0-1.533,1.804-2.781,4.025-2.781C116.971,352.372,118.774,353.62,118.774,355.153"/>
	<path fill="#C4E5D9" d="M125.578,363.199c0,1.532-1.804,2.779-4.024,2.779c-2.218,0-4.017-1.247-4.017-2.779
		c0-1.539,1.799-2.786,4.017-2.786C123.774,360.413,125.578,361.66,125.578,363.199"/>
	<path fill="#C4E5D9" d="M131.76,372.474c0,1.539-1.797,2.788-4.016,2.788c-2.226,0-4.023-1.249-4.023-2.788
		c0-1.54,1.797-2.785,4.023-2.785C129.962,369.688,131.76,370.934,131.76,372.474"/>
	<path fill="#C4E5D9" d="M138.563,381.134c0,1.534-1.799,2.78-4.016,2.78c-2.221,0-4.025-1.246-4.025-2.78
		c0-1.538,1.804-2.785,4.025-2.785C136.764,378.349,138.563,379.596,138.563,381.134"/>
	<path fill="#C4E5D9" d="M147.845,388.553c0,1.537-1.804,2.784-4.022,2.784c-2.222,0-4.021-1.247-4.021-2.784
		c0-1.532,1.799-2.781,4.021-2.781C146.041,385.771,147.845,387.021,147.845,388.553"/>
	<path fill="#C4E5D9" d="M160.83,393.504c0,1.533-1.799,2.781-4.018,2.781c-2.226,0-4.024-1.248-4.024-2.781
		c0-1.539,1.799-2.785,4.024-2.785C159.031,390.719,160.83,391.965,160.83,393.504"/>
	<path fill="#C4E5D9" d="M173.754,393.504c0,1.533-1.797,2.781-4.016,2.781c-2.226,0-4.025-1.248-4.025-2.781
		c0-1.539,1.799-2.785,4.025-2.785C171.957,390.719,173.754,391.965,173.754,393.504"/>
	<path fill="#C4E5D9" d="M186.875,391.351c0,1.539-1.799,2.786-4.015,2.786c-2.227,0-4.025-1.247-4.025-2.786
		s1.798-2.786,4.025-2.786C185.076,388.564,186.875,389.812,186.875,391.351"/>
	<path fill="#FFFFFF" d="M211.739,278.552c0,18.332-10.324,33.19-23.056,33.19c-12.735,0-23.06-14.858-23.06-33.19
		c0-18.329,10.325-33.182,23.06-33.182C201.415,245.37,211.739,260.223,211.739,278.552"/>
	<path fill="#AE5D52" d="M204.341,278.969c0,12.221-6.889,22.121-15.372,22.121c-8.492,0-15.372-9.9-15.372-22.121
		c0-12.225,6.88-22.132,15.372-22.132C197.453,256.837,204.341,266.744,204.341,278.969"/>
	<g>
		<g opacity="0.5">
			<path fill="#272626" d="M256.799,337.202c0,0.958-0.785,1.742-1.742,1.742h-12.673c-0.958,0-1.742-0.784-1.742-1.742v-6.119
				c0-0.958,0.784-1.742,1.742-1.742h12.673c0.957,0,1.742,0.784,1.742,1.742V337.202z"/>
		</g>
		<g>
			<path fill="#FFFFFF" d="M256.799,336.331c0,0.958-0.785,1.742-1.742,1.742h-12.673c-0.958,0-1.742-0.784-1.742-1.742v-6.119
				c0-0.958,0.784-1.742,1.742-1.742h12.673c0.957,0,1.742,0.784,1.742,1.742V336.331z"/>
		</g>
	</g>
	<path fill="#FFFFFF" d="M335.436,278.552c0,18.332-10.324,33.19-23.061,33.19c-12.732,0-23.055-14.858-23.055-33.19
		c0-18.329,10.322-33.182,23.055-33.182C325.111,245.37,335.436,260.223,335.436,278.552"/>
	<polygon fill="#97A88E" points="247.411,331.306 248.721,337.855 250.904,331.741 	"/>
	<path fill="#AE5D52" d="M328.031,278.969c0,12.221-6.883,22.121-15.371,22.121s-15.371-9.9-15.371-22.121
		c0-12.225,6.883-22.132,15.371-22.132S328.031,266.744,328.031,278.969"/>
	<path fill="#AE5D52" d="M235.479,322.605c-0.341-0.967,0.167-2.021,1.126-2.362c0.967-0.34,2.027,0.166,2.365,1.127
		c1.485,4.189,5.459,7.003,9.892,7.003c4.432,0,8.405-2.813,9.891-7.003c0.342-0.967,1.398-1.467,2.365-1.127
		c0.967,0.341,1.469,1.396,1.129,2.362c-2.004,5.666-7.387,9.471-13.385,9.471S237.487,328.271,235.479,322.605"/>
	<g>
		<path fill="#F4E7D0" d="M278.42,446.805v15.017c0,0,0.469,13.507,6.66,21.523l0.352,3.197h-20.664
			c-5.566-5.03-10.557-13.089-11.08-25.958l-0.107-13.779H278.42z"/>
		<path opacity="0.2" fill="url(#_x31_0_dpi_40_x25_)" d="M278.42,446.805v15.017c0,0,0.469,13.507,6.66,21.523l0.352,3.197h-20.664
			c-5.566-5.03-10.557-13.089-11.08-25.958l-0.107-13.779H278.42z"/>
		<path fill="#3B6632" d="M280.41,459.577"/>
		<path fill="#6B473C" d="M265.129,477.591c2.619,3.711,7.637,5.677,7.637,5.677c4.369-6.55,9.609-3.93,9.609-3.93l0.492,0.508
			c1.359,2.627,3.135,5.016,5.445,6.71c0,0,6.188,11.126-7.418,8.037c0,0-14.852-2.133-22.627-16.278
			C261.51,474.203,265.129,477.591,265.129,477.591z"/>
		<path fill="#3A2727" d="M288.916,487.858c1.146,2.842,2.646,9.155-8.021,6.734c0,0-14.852-2.133-22.627-16.278
			c3.242-4.111,6.861-0.724,6.861-0.724c2.619,3.711,7.637,5.677,7.637,5.677S284.111,493.083,288.916,487.858z"/>
		<path fill="#E3BC3D" d="M282.156,481.085c0,0-5.238-1.747-7.857,3.275l1.963,1.31c0,0,1.527-3.712,6.768-3.275L282.156,481.085z"
			/>
	</g>
	<g>
		<g>
			<path fill="#3A2727" d="M227.493,288.479c-0.192-1.428-0.348-3.776-0.348-5.217c0,0,0-7.86,0-12.663
				c0-10.045-17.032-17.905-32.316-17.905c-15.282,0-55.917,5.338-55.917,5.338c-1.428,0.187-2.597,1.521-2.597,2.96v5.24
				c0,1.44,1.066,3.122,2.37,3.735l2.683,1.262c1.303,0.614,2.697,2.248,3.096,3.634c0,0,5.824,20.189,16.523,30.886
				c8.515,8.517,15.065,9.391,27.728,9.391C231.073,315.14,227.493,288.479,227.493,288.479z M192.646,311.211
				c-29.693,1.745-36.244-21.397-36.244-21.397c-15.721-29.259,8.296-31.441,8.296-31.441c38.864-5.24,43.23,0,43.23,0
				s16.593,3.492,16.593,20.96C224.522,295.49,222.339,309.463,192.646,311.211z"/>
			<path opacity="0.3" fill="#FFFFFF" d="M207.929,258.372c0,0-4.366-5.24-43.23,0c0,0-24.017,2.183-8.296,31.441
				c0,0,6.551,23.143,36.244,21.397c29.693-1.748,31.876-15.721,31.876-31.879C224.522,261.864,207.929,258.372,207.929,258.372z"/>
			<path opacity="0.5" fill="#3A2727" d="M164.698,262.304c38.864-5.241,43.23,0,43.23,0s15.93,3.362,16.565,19.94
				c0.02-0.959,0.028-1.932,0.028-2.912c0-17.468-16.593-20.96-16.593-20.96s-4.366-5.24-43.23,0c0,0-14.963,1.374-13.52,16.355
				C152.448,263.424,164.698,262.304,164.698,262.304z"/>
			<path opacity="0.5" fill="#FFFFFF" d="M164.698,258.372c0,0-0.339,0.033-0.897,0.133l-12.661,12.661
				c-0.159,1.78-0.036,3.817,0.427,6.122l19.748-19.748C169.228,257.784,167.029,258.058,164.698,258.372z"/>
			<path opacity="0.5" fill="#FFFFFF" d="M178.618,256.789l-25.599,25.598c0.824,2.26,1.932,4.726,3.383,7.427
				c0,0,0.863,3.022,3.354,6.798l40.287-40.286C195.664,255.918,188.921,255.864,178.618,256.789z"/>
		</g>
		<g>
			<path fill="#3A2727" d="M316.322,315.14c12.66,0,19.213-0.874,27.727-9.391c10.697-10.696,16.525-30.886,16.525-30.886
				c0.398-1.386,1.791-3.02,3.096-3.634l2.68-1.262c1.305-0.613,2.373-2.295,2.373-3.735v-5.24c0-1.439-1.17-2.773-2.598-2.96
				c0,0-40.633-5.338-55.916-5.338c-15.285,0-32.316,7.86-32.316,17.905c0,4.803,0,12.663,0,12.663c0,1.44-0.154,3.789-0.348,5.217
				C277.545,288.479,273.963,315.14,316.322,315.14z M280.512,279.332c0-17.468,16.598-20.96,16.598-20.96s4.363-5.24,43.23,0
				c0,0,24.016,2.183,8.295,31.441c0,0-6.549,23.143-36.244,21.397C282.699,309.463,280.512,295.49,280.512,279.332z"/>
			<path opacity="0.3" fill="#FFFFFF" d="M297.109,258.372c0,0,4.363-5.24,43.23,0c0,0,24.016,2.183,8.295,31.441
				c0,0-6.549,23.143-36.244,21.397c-29.691-1.748-31.879-15.721-31.879-31.879C280.512,261.864,297.109,258.372,297.109,258.372z"
				/>
			<path opacity="0.5" fill="#3A2727" d="M340.34,262.304c-38.867-5.241-43.23,0-43.23,0s-15.932,3.362-16.564,19.94
				c-0.021-0.959-0.033-1.932-0.033-2.912c0-17.468,16.598-20.96,16.598-20.96s4.363-5.24,43.23,0c0,0,14.963,1.374,13.518,16.355
				C352.59,263.424,340.34,262.304,340.34,262.304z"/>
			<path opacity="0.5" fill="#FFFFFF" d="M340.34,258.372c0,0,0.338,0.033,0.895,0.133l12.664,12.661
				c0.158,1.78,0.035,3.817-0.428,6.122l-19.746-19.748C335.811,257.784,338.008,258.058,340.34,258.372z"/>
			<path opacity="0.5" fill="#FFFFFF" d="M326.418,256.789l25.598,25.598c-0.822,2.26-1.932,4.726-3.381,7.427
				c0,0-0.861,3.022-3.354,6.798l-40.287-40.286C309.371,255.918,316.117,255.864,326.418,256.789z"/>
		</g>
		<path fill="#3A2727" d="M227.034,268.307c0,0,1.965,2.948,5.24,2.948s5.894-4.585,20.304-4.585s18.012,5.567,20.633,5.567
			c2.619,0,5.24-3.931,5.24-3.931l-0.654,16.703c0,0-7.533-14.737-26.201-14.737c-18.667,0-24.562,15.064-24.562,15.064V268.307z"/>
		<path fill="#3A2727" d="M231.153,277.806c0,0,2.665,1.638,1.48,7.531c-1.183,5.895-8.875,16.376-8.875,16.376l3.847-23.907
			H231.153z"/>
		<path fill="#3A2727" d="M274.012,277.806c0,0-2.664,1.638-1.482,7.531c1.186,5.895,8.877,16.376,8.877,16.376l-3.844-23.907
			H274.012z"/>
	</g>
	<path fill="#65994B" d="M309.258,456.254v-59.98c0-20.006-7.205-31.942-15.316-39.073l-4.162-3.239l-40.186,4.612l-39.956-4.125
		l-2.924,2.009c-6.267,5.211-12.129,13.192-14.742,25.411c-10.182,4.87-42.417,16.76-61.756-16.505c0,0-2.352-4.292-6.952-9.036
		l-12.718,12.72c3.2,4.383,6.54,10.149,9.464,17.655c0,0,12.107,40.623,70.526,27.588v41.964c0,0-0.174,2.09-1.11,4.962h24.312
		c0.179-1.375,0.296-2.804,0.296-4.342v-45.758c0,0-1.495-18.146,7.419-24.453v2.486l25.291-0.576l0.031-4.048h2.819v-3.877
		l28.749,7.1v-0.437c0.254,0.198,0.496,0.405,0.732,0.617c8.092,7.269,6.688,23.188,6.688,23.188v45.758
		c0,1.538,0.117,2.967,0.295,4.342h24.312C309.432,458.344,309.258,456.254,309.258,456.254z"/>
	<path opacity="0.6" fill="url(#Plaid_1)" d="M309.258,456.254v-59.98c0-20.006-7.205-31.942-15.316-39.073l-4.162-3.239
		l-40.186,4.612l-39.956-4.125l-2.924,2.009c-6.267,5.211-12.129,13.192-14.742,25.411c-10.182,4.87-42.417,16.76-61.756-16.505
		c0,0-2.352-4.292-6.952-9.036l-12.718,12.72c3.2,4.383,6.54,10.149,9.464,17.655c0,0,12.107,40.623,70.526,27.588v41.964
		c0,0-0.174,2.09-1.11,4.962h24.312c0.179-1.375,0.296-2.804,0.296-4.342v-45.758c0,0-1.495-18.146,7.419-24.453v2.486l25.291-0.576
		l0.031-4.048h2.819v-3.877l28.749,7.1v-0.437c0.254,0.198,0.496,0.405,0.732,0.617c8.092,7.269,6.688,23.188,6.688,23.188v45.758
		c0,1.538,0.117,2.967,0.295,4.342h24.312C309.432,458.344,309.258,456.254,309.258,456.254z"/>
	<polygon fill="#3B6632" points="123.263,356.327 132.347,365.257 115.317,381.304 110.545,369.047 	"/>
	<polygon fill="#3B6632" points="189.425,461.216 187.368,445.496 216.516,445.496 213.736,461.216 	"/>
	<polygon fill="#3B6632" points="285.711,461.216 283.654,445.496 312.803,445.496 310.021,461.216 	"/>
	<path fill="#3B6632" d="M189.987,407.832c-0.655-14.084,1.984-25.964,1.984-25.964c-1.293,0.619-2.949,1.35-4.883,2.092
		C187.538,393.375,189.987,407.832,189.987,407.832z"/>
	<polygon fill="#6B473C" points="229.112,380.321 229.112,361 233.286,361 233.286,381.304 	"/>
	<polygon fill="#6B473C" points="267.537,380.321 267.537,361 271.715,361 271.715,381.304 	"/>
	<polygon fill="#3B6632" points="209.638,354.448 249.593,358.573 237.606,365.584 	"/>
	<polygon fill="#3B6632" points="288.24,354.448 248.284,358.573 260.271,365.584 	"/>
	<path fill="#3B6632" d="M219.463,459.577"/>
	<path fill="#4999C3" d="M221.452,448.443h24.829l0.494-57.969h6.242l0.5,57.969h24.826v-61.132
		c0.254,0.198,0.496,0.405,0.732,0.617l-0.006-0.073v-8.516h-57.641v6.55l-0.136,0.896c0.054-0.038,0.104-0.084,0.16-0.123V448.443z
		"/>
	<g>
		<path fill="#F4E7D0" d="M221.452,446.805v15.017c0,0-0.469,13.507-6.658,21.523l-0.352,3.197h20.665
			c5.563-5.03,10.555-13.089,11.079-25.958l0.108-13.779H221.452z"/>
		<path opacity="0.2" fill="url(#_x31_0_dpi_40_x25_)" d="M221.452,446.805v15.017c0,0-0.469,13.507-6.658,21.523l-0.352,3.197
			h20.665c5.563-5.03,10.555-13.089,11.079-25.958l0.108-13.779H221.452z"/>
		<path fill="#6B473C" d="M234.746,477.591c-2.621,3.711-7.64,5.677-7.64,5.677c-4.367-6.55-9.607-3.93-9.607-3.93l-0.494,0.508
			c-1.36,2.627-3.132,5.016-5.444,6.71c0,0-6.187,11.126,7.418,8.037c0,0,14.851-2.133,22.627-16.278
			C238.363,474.203,234.746,477.591,234.746,477.591z"/>
		<path fill="#3A2727" d="M210.957,487.858c-1.147,2.842-2.646,9.155,8.022,6.734c0,0,14.851-2.133,22.627-16.278
			c-3.243-4.111-6.86-0.724-6.86-0.724c-2.621,3.711-7.64,5.677-7.64,5.677S215.762,493.083,210.957,487.858z"/>
		<path fill="#E3BC3D" d="M217.716,481.085c0,0,5.24-1.747,7.859,3.275l-1.964,1.31c0,0-1.528-3.712-6.768-3.275L217.716,481.085z"
			/>
	</g>
	<g>
		<g opacity="0.5">
			<rect x="220.555" y="439.199" fill="#272626" width="26.855" height="12.009"/>
		</g>
		<g>
			<rect x="220.555" y="437.199" fill="#7FBCE7" width="26.855" height="12.009"/>
		</g>
	</g>
	<g>
		<g opacity="0.5">
			<rect x="252.432" y="439.199" fill="#272626" width="26.857" height="12.009"/>
		</g>
		<g>
			<rect x="252.432" y="437.199" fill="#7FBCE7" width="26.857" height="12.009"/>
		</g>
	</g>
	<path fill="#508694" d="M232.563,384.251c0,0-1.31,13.102-8.843,14.411c0,0,8.188,1.312,11.135-13.754L232.563,384.251z"/>
	<path fill="#508694" d="M266.295,384.251c0,0,1.312,13.102,8.844,14.411c0,0-8.189,1.312-11.133-13.754L266.295,384.251z"/>
	<rect x="221.428" y="379.34" fill="#6B473C" width="57.641" height="5.568"/>
	<rect x="245.009" y="378.684" fill="#E3BC3D" width="9.823" height="7.206"/>
	<polygon fill="#3B6632" points="221.428,379.34 221.428,367.986 216.405,392.439 221.452,386.663 	"/>
	<polygon fill="#3B6632" points="278.438,380.648 278.438,369.297 283.459,393.748 278.414,387.974 	"/>
	<path fill="#AE5D52" d="M254.676,308.029c0,3.188-2.578,5.767-5.763,5.767c-3.186,0-5.767-2.579-5.767-5.767
		c0-3.188,2.581-5.767,5.767-5.767C252.098,302.263,254.676,304.841,254.676,308.029"/>
	<g>
		<path fill="#AC1F25" d="M236.332,350.992c1.461-1.463,12.878,5.604,12.878,7.435c0,1.83-11.593,8.721-12.878,7.434
			C235.045,364.575,234.869,352.452,236.332,350.992z"/>
		<path fill="#AC1F25" d="M261.971,365.822c-1.463,1.46-12.878-5.604-12.878-7.436c0-1.831,11.591-8.721,12.878-7.436
			C263.256,352.237,263.434,364.359,261.971,365.822z"/>
		<rect x="247.434" y="356.309" fill="#84181A" width="3.607" height="4.18"/>
	</g>
</g>
<path display="none" fill="#020202" d="M498.979,297.646l0.369-1.834c-41.115-8.221-83.309-8.305-108.834-7.242
	c4.192-15.108,5.453-32.492,5.453-51.879c0-27.804-10.443-50.046-27.404-66.973c2.965-9.564,6.923-30.81-3.952-58.004
	c0,0-19.187-6.093-62.581,22.953c-16.998-4.25-35.09-6.347-53.209-6.347c-19.936,0-40.079,2.537-58.865,7.692
	c-44.786-30.558-64.561-24.298-64.561-24.298c-12.903,32.269-4.925,56.162-2.501,62.096c-15.166,16.367-24.427,37.263-24.427,62.881
	c0,19.341,2.202,36.689,7.579,51.771c-25.74-0.937-66.396-0.576-106.045,7.353l0.366,1.832c39.887-7.978,80.796-8.254,106.383-7.285
	c1.185,3.119,2.505,6.149,3.985,9.074c-25.304,0.817-68.507,4.041-109.912,15.722l0.511,1.795
	c41.731-11.767,85.311-14.911,110.369-15.679c15.118,28.182,44.922,46.381,97.948,52.097c-7.525,5.058-15.205,13.653-18.314,28.202
	c-10.256,4.904-42.722,16.879-62.201-16.623c0,0-10.901-19.938-31.773-21.497c0,0-20.244-0.312-1.396,12.614
	c0,0,13.544,6.386,22.892,30.373c0,0,12.193,40.914,71.03,27.787v42.266c0,0-1.244,14.949-14.948,19.928
	c0,0-8.097,5.607,0.626,8.718c0,0,37.989,3.115,37.989-28.021v-46.087c0,0-1.507-18.276,7.471-24.627v75.694
	c0,0-0.619,18.061-9.962,24.912c0,0-6.231,11.207,7.472,8.097c0,0,26.156-3.735,27.403-34.253l0.592-64.676h6.288l0.598,64.676
	c1.244,30.518,27.4,34.253,27.4,34.253c13.699,3.11,7.473-8.097,7.473-8.097c-9.342-6.853-9.963-24.912-9.963-24.912v-75.042
	c8.974,6.987,7.472,23.975,7.472,23.975v46.087c0,31.138,37.99,28.021,37.99,28.021c8.716-3.109,0.625-8.718,0.625-8.718
	c-13.703-4.979-14.949-19.928-14.949-19.928V396.08c0-23.559-9.919-36.032-19.62-42.616c56.551-5.606,83.687-23.868,96.189-52.237
	c24.771,0.681,69.344,3.698,111.984,15.727l0.506-1.795c-42.395-11.958-86.678-15.053-111.696-15.78
	c1.186-2.864,2.219-5.846,3.139-8.912C415.317,289.379,457.698,289.391,498.979,297.646"/>
<g display="none">
	<path display="inline" fill="#C35C28" d="M374.025,148.87c-49.776-32.507-107.488-41.311-111.095-70.433
		c0,0,2.164,20.317,7.934,26.413c0,0-16.19-21.879-20.557-47.069h0.271c-4.368,25.19-21.915,47.069-21.915,47.069
		c5.771-6.095,7.936-26.413,7.936-26.413c-3.607,29.122-61.32,37.925-111.096,70.433c-49.778,32.509-29.579,111.069-29.579,111.069
		c6.493,36.569,20.199,46.729,20.199,46.729c-12.263-46.729-6.958-85.749,12.264-104.295c25.971-25.058,67.812-8.127,92.34-8.127
		c0,0,19.331,1.464,29.038,1.464c9.704,0,29.035-1.464,29.035-1.464c24.528,0,66.369-16.93,92.34,8.127
		c19.221,18.546,24.528,57.566,12.263,104.295c0,0,13.708-10.16,20.199-46.729C403.603,259.938,423.802,181.378,374.025,148.87z"/>
	<path display="inline" fill="#A33D23" d="M250.17,59.927c-4.097,20.098-16.146,37.698-20.173,43.165
		c4.773-7.516,6.603-24.655,6.603-24.655c-1.042,8.402-6.595,15.113-15.154,21.189c-6.948,22.917-31.292,38.659-31.292,38.659
		C242.285,119.185,249.261,70.694,250.17,59.927z"/>
	<path display="inline" fill="#A33D23" d="M221.446,99.626c0,0-50.596,33.721-80.673,47.188
		c-30.079,13.469-48.933,45.343-48.036,76.767c0,0-9.427-53.422,47.137-85.296c51.858-29.221,77.626-34.852,96.725-59.849
		C236.6,78.437,236.393,93.394,221.446,99.626z"/>
	<path display="inline" fill="#A33D23" d="M157.382,151.754c0,0,34.12-16.162,49.382-35.466c0,0-10.326,24.242-20.651,32.771
		c0,0,3.143-6.285,4.489-12.57C190.603,136.49,169.953,149.06,157.382,151.754z"/>
	<path display="inline" fill="#A33D23" d="M202.724,150.407c0,0,45.791-26.936,48.036-50.729c0,0,11.67,32.771,51.177,51.625
		c0,0-37.261-12.569-51.627-34.117C250.309,117.187,225.17,144.123,202.724,150.407z"/>
	<path display="inline" fill="#A33D23" d="M307.324,127.512c48.932,15.263,97.416,35.465,100.109,92.029l0.034-3.189
		c-1.211-23.651-8.639-51.283-33.442-67.482c-49.776-32.507-107.488-41.311-111.095-70.433c0,0,1.195,11.207,4.175,19.472
		C272.236,108.127,283.372,120.041,307.324,127.512z"/>
	<path display="inline" fill="#A33D23" d="M325.28,136.491c0,0-26.487,1.795-41.302-12.57c0,0,1.347,17.059,30.528,36.363
		c0,0-14.367-11.224-16.162-21.998C298.345,138.286,311.365,140.98,325.28,136.491z"/>
	<path display="inline" fill="#C35C28" d="M216.08,193.727c0,0,20.201,3.592,22.895,13.467c0,0,3.593-4.489,0.898-10.773
		c0,0,23.344,11.222,4.489,27.384c0,0,35.915-12.121,45.789-32.771c9.877-20.649-40.402-13.467-40.402-13.467L216.08,193.727z"/>
	<path display="inline" fill="#A33D23" d="M199.357,192.157c0,0,30.079,1.458,39.618,15.038
		C238.975,207.194,242.791,190.473,199.357,192.157z"/>
	<path display="inline" fill="#A33D23" d="M239.873,196.421c0,0,23.568,11.559,4.489,27.384
		C244.362,223.805,279.718,212.132,239.873,196.421z"/>
	<path display="inline" fill="#A33D23" d="M273.431,208.655c0,0,18.518-10.101,6.396-36.7
		C279.827,171.955,306.089,189.127,273.431,208.655z"/>
	<path display="inline" fill="#A33D23" d="M110.134,162.527c0,0,49.494-35.689,57.574-54.207c0,0-3.367,20.201-10.101,24.579
		C150.874,137.276,110.134,162.527,110.134,162.527z"/>
	<path display="inline" fill="#A33D23" d="M359.624,140.306c0,0-0.471-0.247-1.313-0.706c-6.868-3.755-38.418-21.672-38.418-33.973
		c0,0-2.357,13.467,2.021,17.844"/>
</g>
<g display="none">
	<path display="inline" fill="#DEB73E" d="M67.941,191.667c0,0-16.498-25.777-38.151-11.342
		C8.135,194.76-6.302,225.695,17.416,255.6c3.577,4.509,6.555,8.422,9.023,11.876c3.756,6.941,6.214,16.025-2.58,20.862
		c0,0,6.805-0.345,11.613-4.866c2.311,7.434-0.595,11.744-5.682,18.529c0,0,44.338,4.123,45.37-63.933
		C76.191,170.013,67.941,191.667,67.941,191.667z"/>
	<path display="inline" fill="#DEB73E" d="M425.474,191.667c0,0,16.497-25.777,38.151-11.342
		c21.654,14.436,36.091,45.371,12.374,75.275c-3.577,4.509-6.556,8.422-9.023,11.876c-3.757,6.941-6.214,16.025,2.58,20.862
		c0,0-6.805-0.345-11.612-4.866c-2.312,7.434,0.595,11.744,5.682,18.529c0,0-44.339,4.123-45.37-63.933
		S425.474,191.667,425.474,191.667z"/>
	<g display="inline">
		<path fill="#EDCB48" d="M429.102,183.934C393.526,92.16,313.097,89.583,313.097,89.583c-14.437-17.529-39.7-27.325-39.7-27.325
			c19.077,9.281,35.575,27.841,35.575,27.841c-9.315-6.24-19.359-10.57-29.821-13.367l0.434-0.038c0,0-81.461-21.653-143.846,16.499
			c0,0,31.204-12.229,71.027-16.196c-30.605,6.484-59.277,18.999-79.276,29.601c-39.741,21.067-69.672,75.482-60.943,129.386
			c3.197,12.914,2.167,23.224-2.473,31.991c0,0,4.375-1.564,7.306-6.3c2.023,10.825,10.331,40.847,41.673,56.31
			c0,0-11.459-7.083-16.852-25.284c19.023,16.462,39.537,18.583,39.537,18.583c-13.921-12.374-15.467-36.607-15.467-36.607
			c4.125,21.139,11.342,24.233,11.342,24.233s-17.014-37.122-0.515-64.448c16.499-27.326,79.915-49.495,79.915-49.495
			c-30.418,28.356-59.292,31.966-59.292,31.966c58.26,3.093,109.301-22.171,109.301-22.171
			c-5.671,13.404-15.982,17.014-15.982,17.014c44.34-7.219,57.745-61.353,57.745-61.353s22.041,8.764,58.775,57.1
			c0,0-5.026-13.92-18.166-31.123c10.431,9.364,18.562,19.523,24.882,29.892c8.455,17.066,17.61,41.937,10.298,63.873
			c0,0,2.576-6.792,6.706-14.164c-0.063,8.107-0.819,34.315-7.736,48.579c0,0,6.837-8.437,12.026-17.575
			c-0.071,10.836-1.199,17.575-1.199,17.575c39.182-18.043,39.184-75.273,39.184-75.273c0.155-5.583,0.069-10.928-0.205-16.075
			c5.747,19.339,4.845,38.244,4.845,38.244C441.99,213.838,429.102,183.934,429.102,183.934z"/>
		<path fill="#DEB73E" d="M302.785,149.518c0,0-6.187,51.815-57.745,62.256c0,0,23.717-9.28,41.762-35.574
			C304.607,150.256,302.785,149.518,302.785,149.518z"/>
		<path fill="#DEB73E" d="M151.721,217.277c114.599-5.258,125.801-30.767,142.815-67.372
			C286.124,168.005,249.166,212.804,151.721,217.277z"/>
		<path fill="#EDCB48" d="M242.463,112.784c0,0,57.745-6.703,67.026-10.827c9.28-4.124-13.405,11.857-13.405,11.857L242.463,112.784
			z"/>
		<g>
			<path fill="#DEB73E" d="M151.721,216.931c1.104,0.057,2.199,0.087,3.297,0.125c0.395-0.339,0.793-0.678,1.198-1.017
				C153.351,216.723,151.721,216.931,151.721,216.931z"/>
			<path fill="#DEB73E" d="M241.946,160.216c0,0-10.311,14.437-93.319,39.184c-83.008,24.748-48.979,53.619-48.979,53.619
				s-6.702-12.888,12.889-25.778c12.346-8.122,16.908-11.125,18.598-12.235c-6.372,4.393-40.641,31.273-18.598,88.025
				c0.108,0.278,0.214,0.538,0.323,0.812c12.679,6.377,22.879,7.438,22.879,7.438c-13.921-12.374-15.467-36.607-15.467-36.607
				c4.125,21.139,11.342,24.233,11.342,24.233s-17.014-37.122-0.515-64.448c16.499-27.326,79.915-49.495,79.915-49.495
				S235.245,175.684,241.946,160.216z"/>
		</g>
		<g>
			<path fill="#DEB73E" d="M343.395,176.398l-0.077,2.247C343.396,177.891,343.428,177.138,343.395,176.398z"/>
			<path fill="#DEB73E" d="M401.711,295.78c-3.655-93.567-58.316-119.382-58.316-119.382c10.431,9.364,18.562,19.523,24.882,29.892
				c8.455,17.066,17.61,41.937,10.298,63.873c0,0,2.576-6.792,6.706-14.164c-0.063,8.107-0.819,34.315-7.736,48.579
				c0,0,6.837-8.437,12.026-17.575c-0.071,10.836-1.199,17.575-1.199,17.575C393.451,302.238,397.861,299.229,401.711,295.78z"/>
		</g>
		<path fill="#DEB73E" d="M407.189,290.271c0,0,35.832-75.403-13.147-140.366c0,0,23.823,16.314,33.308,63.324
			C436.834,260.238,407.189,290.271,407.189,290.271z"/>
		<path fill="#DEB73E" d="M422.913,229.305c0,0-6.702-84.039-113.426-122.708c0,0,97.96,33.512,110.85,144.876L422.913,229.305z"/>
		<path fill="#DEB73E" d="M284.74,115.362c0,0-21.655,34.543-88.165,48.98c-66.509,14.437-107.754,1.546-107.754,1.546
			S203.795,176.716,284.74,115.362z"/>
		<path fill="#DEB73E" d="M284.74,115.362c0,0-54.651,52.588-128.379,34.543C156.361,149.905,232.15,152.999,284.74,115.362z"/>
		<path fill="#DEB73E" d="M289.895,109.69c0,0-39.7-15.466-103.631,1.031c0,0,53.106-26.295,104.147-8.765
			c0,0-8.767-12.373-51.559-12.889c0,0,40.731-5.155,55.167,13.921L289.895,109.69z"/>
		<path fill="#FFFFFF" d="M284.74,115.362c0,0-24.876,34.156-61.998,45.757C222.742,161.119,273.268,147.328,284.74,115.362z"/>
		<path fill="#FFFFFF" d="M284.74,115.362c0,0-34.544-2.578-86.36,13.663C198.38,129.024,247.359,105.954,284.74,115.362z"/>
		<path fill="#FFFFFF" d="M284.74,115.362c0,0,38.67-5.156,84.556,54.651C369.296,170.013,333.202,107.114,284.74,115.362z"/>
		<path fill="#FFFFFF" d="M289.895,109.69c0,0,29.906-8.25,78.886,29.388C368.78,139.078,324.951,95.77,289.895,109.69z"/>
		<path fill="#FFFFFF" d="M397.137,299.938c0,0,6.705-53.62-15.982-109.817c0,0,23.583,51.495,20.557,105.66L397.137,299.938z"/>
		<path fill="#FFFFFF" d="M294.02,102.988c0,0,13.922-8.25,32.482-2.578C326.502,100.41,306.907,89.583,294.02,102.988z"/>
		<path fill="#FFFFFF" d="M135.738,311.282c0,0-59.804-34.546-9.278-92.291c0,0-51.042,46.918-0.517,90.228L135.738,311.282z"/>
	</g>
	<path display="inline" fill="#3A2727" d="M12.259,214.481"/>
</g>
<g display="none">
	<circle display="inline" fill="#6B473C" cx="124.211" cy="110.584" r="25.642"/>
	<circle display="inline" fill="#6B473C" cx="196.474" cy="193.838" r="15.318"/>
	<circle display="inline" fill="#6B473C" cx="176.493" cy="200.165" r="7.659"/>
	<circle display="inline" fill="#6B473C" cx="358.317" cy="211.155" r="15.319"/>
	<circle display="inline" fill="#6B473C" cx="416.261" cy="147.882" r="15.319"/>
	<circle display="inline" fill="#6B473C" cx="389.287" cy="234.132" r="25.309"/>
	<circle display="inline" fill="#6B473C" cx="388.621" cy="126.236" r="25.309"/>
	<circle display="inline" fill="#6B473C" cx="336.339" cy="205.494" r="7.659"/>
	<circle display="inline" fill="#6B473C" cx="142.526" cy="215.151" r="15.319"/>
	<circle display="inline" fill="#6B473C" cx="92.574" cy="132.563" r="15.319"/>
	<circle display="inline" fill="#6B473C" cx="127.208" cy="229.803" r="7.659"/>
	<circle display="inline" fill="#6B473C" cx="162.507" cy="206.492" r="7.659"/>
	<circle display="inline" fill="#6B473C" cx="230.108" cy="183.848" r="25.642"/>
	<circle display="inline" fill="#6B473C" cx="165.837" cy="88.606" r="15.319"/>
	<circle display="inline" fill="#6B473C" cx="145.856" cy="94.933" r="7.659"/>
	<circle display="inline" fill="#6B473C" cx="202.801" cy="81.945" r="25.641"/>
	<circle display="inline" fill="#6B473C" cx="97.57" cy="241.792" r="25.642"/>
	<circle display="inline" fill="#6B473C" cx="77.256" cy="157.207" r="15.319"/>
	<circle display="inline" fill="#6B473C" cx="73.926" cy="177.854" r="7.659"/>
	<circle display="inline" fill="#6B473C" cx="68.931" cy="208.49" r="25.642"/>
	<circle display="inline" fill="#6B473C" cx="414.596" cy="191.673" r="32.135"/>
	<circle display="inline" fill="#6B473C" cx="261.411" cy="192.506" r="10.989"/>
	<circle display="inline" fill="#6B473C" cx="276.23" cy="195.836" r="6.827"/>
	<circle display="inline" fill="#6B473C" cx="294.879" cy="196.502" r="12.821"/>
	<circle display="inline" fill="#6B473C" cx="318.855" cy="199.166" r="12.821"/>
	<circle display="inline" fill="#6B473C" cx="336.005" cy="86.941" r="17.65"/>
	<circle display="inline" fill="#6B473C" cx="360.315" cy="102.592" r="15.318"/>
	<circle display="inline" fill="#6B473C" cx="311.696" cy="78.948" r="7.659"/>
	<circle display="inline" fill="#6B473C" cx="230.274" cy="61.965" r="10.989"/>
	<circle display="inline" fill="#6B473C" cx="245.094" cy="65.295" r="6.826"/>
	<circle display="inline" fill="#6B473C" cx="268.238" cy="65.961" r="19.731"/>
	<circle display="inline" fill="#6B473C" cx="294.212" cy="72.622" r="12.821"/>
	<g display="inline">
		<circle fill="#6B473C" cx="124.211" cy="156.541" r="25.642"/>
		<circle fill="#6B473C" cx="416.261" cy="193.838" r="15.319"/>
		<circle fill="#6B473C" cx="388.621" cy="172.192" r="25.309"/>
		<circle fill="#6B473C" cx="92.574" cy="178.519" r="15.319"/>
		<circle fill="#6B473C" cx="165.837" cy="134.562" r="15.319"/>
		<circle fill="#6B473C" cx="145.856" cy="140.889" r="7.659"/>
		<circle fill="#6B473C" cx="202.801" cy="127.901" r="25.641"/>
		<circle fill="#6B473C" cx="77.256" cy="203.162" r="15.319"/>
		<circle fill="#6B473C" cx="336.005" cy="132.896" r="17.65"/>
		<circle fill="#6B473C" cx="360.315" cy="148.548" r="15.318"/>
		<circle fill="#6B473C" cx="311.696" cy="124.904" r="7.659"/>
		<circle fill="#6B473C" cx="230.274" cy="107.92" r="10.989"/>
		<circle fill="#6B473C" cx="245.094" cy="111.25" r="6.826"/>
		<circle fill="#6B473C" cx="268.238" cy="111.917" r="19.731"/>
		<circle fill="#6B473C" cx="294.212" cy="118.577" r="12.821"/>
	</g>
	<path display="inline" fill="#6B473C" d="M106.561,223.809c0,0,43.292-91.912,140.531-81.255s141.862,69.933,141.862,69.933h23.311
		l12.654-53.282l-31.969-41.96l-69.267-35.3l-85.417-16.65l-69.1,26.641l-55.28,19.98l-39.961,47.289l2.664,43.292l9.324,23.31
		L106.561,223.809z"/>
	<polygon display="inline" fill="#6B473C" points="101.233,217.815 121.214,235.131 181.821,196.502 231.773,193.838 
		258.414,189.842 287.719,199.166 336.339,205.494 366.309,221.145 382.959,229.803 408.27,199.832 239.1,98.596 151.851,125.237 	
		"/>
	<g display="inline">
		<g>
			<circle fill="#3A2727" cx="177.159" cy="129.233" r="15.319"/>
			<circle fill="#3A2727" cx="157.179" cy="135.561" r="7.659"/>
			<circle fill="#3A2727" cx="214.123" cy="122.573" r="25.641"/>
			<circle fill="#3A2727" cx="323.018" cy="119.576" r="7.659"/>
			<circle fill="#3A2727" cx="241.597" cy="102.592" r="10.989"/>
			<circle fill="#3A2727" cx="256.416" cy="105.923" r="6.826"/>
			<circle fill="#3A2727" cx="279.561" cy="106.588" r="19.73"/>
			<circle fill="#3A2727" cx="305.535" cy="113.249" r="12.821"/>
		</g>
		<g>
			<circle fill="#6B473C" cx="177.159" cy="133.896" r="15.319"/>
			<circle fill="#6B473C" cx="157.179" cy="140.223" r="7.659"/>
			<circle fill="#6B473C" cx="216.788" cy="127.235" r="25.642"/>
			<circle fill="#6B473C" cx="323.018" cy="124.238" r="7.659"/>
			<circle fill="#6B473C" cx="241.597" cy="107.254" r="10.989"/>
			<circle fill="#6B473C" cx="256.416" cy="110.584" r="6.826"/>
			<circle fill="#6B473C" cx="279.561" cy="111.25" r="19.73"/>
			<circle fill="#6B473C" cx="305.535" cy="117.911" r="12.821"/>
		</g>
	</g>
	<g display="inline">
		<path fill="#010101" d="M122.546,179.186l0.188-2.042c-0.293,0.315-0.566,0.643-0.855,0.96L122.546,179.186z"/>
		<path fill="#010101" d="M125.259,114.453c-13.028,32.578-4.973,56.699-2.525,62.69c0,0,21.038-23.748,67.702-38.16
			C145.221,108.133,125.259,114.453,125.259,114.453z"/>
	</g>
	<circle display="inline" fill="#6B473C" cx="133.202" cy="175.855" r="15.318"/>
	<circle display="inline" fill="#6B473C" cx="181.156" cy="147.216" r="15.319"/>
	<circle display="inline" fill="#6B473C" cx="161.175" cy="153.544" r="7.659"/>
	<g display="inline">
		<g>
			<circle fill="#3A2727" cx="366.078" cy="92.516" r="10.652"/>
			<circle fill="#3A2727" cx="354.758" cy="83.337" r="5.325"/>
			<path fill="#3A2727" d="M393.902,126.312c-8.221,5.42-19.281,3.148-24.7-5.072c-5.418-8.223-3.146-19.279,5.076-24.699
				c8.22-5.42,19.278-3.149,24.697,5.072C404.396,109.835,402.124,120.895,393.902,126.312z"/>
		</g>
		<g>
			<circle fill="#6B473C" cx="363.372" cy="94.301" r="10.651"/>
			<circle fill="#6B473C" cx="352.052" cy="85.121" r="5.325"/>
			<circle fill="#6B473C" cx="382.403" cy="114.757" r="17.829"/>
		</g>
	</g>
	<g display="inline">
		<path fill="#010101" d="M308.322,138.983c33.601,10.377,53.912,25.593,62.653,33.3c2.956-9.977,6.501-31.042-4.211-57.831
			c0,0-19.269-6.109-62.82,22.937C305.215,137.936,306.656,138.469,308.322,138.983z"/>
		<path fill="#010101" d="M376.305,179.037c-0.039-0.044-0.079-0.087-0.117-0.132l0.026,0.281L376.305,179.037z"/>
	</g>
	<circle display="inline" fill="#6B473C" cx="147.188" cy="159.871" r="7.659"/>
	<circle display="inline" fill="#6B473C" cx="346.995" cy="161.869" r="15.319"/>
	<circle display="inline" fill="#6B473C" cx="329.678" cy="151.545" r="7.66"/>
	<circle display="inline" fill="#6B473C" cx="365.644" cy="171.193" r="7.659"/>
	<circle display="inline" fill="#6B473C" cx="312.195" cy="145.218" r="12.821"/>
	<g display="inline">
		<g>
			<circle fill="#3A2727" cx="90.893" cy="188.278" r="10.651"/>
			<circle fill="#3A2727" cx="76.804" cy="192.006" r="5.326"/>
			<circle fill="#3A2727" cx="116.787" cy="184.885" r="17.829"/>
		</g>
		<g>
			<circle fill="#6B473C" cx="90.738" cy="191.516" r="10.651"/>
			<circle fill="#6B473C" cx="76.649" cy="195.245" r="5.326"/>
			<circle fill="#6B473C" cx="118.483" cy="188.211" r="17.83"/>
		</g>
	</g>
	<g display="inline">
		<g>
			<circle fill="#3A2727" cx="364.833" cy="172.949" r="10.652"/>
			<circle fill="#3A2727" cx="350.601" cy="169.811" r="5.325"/>
			<circle fill="#3A2727" cx="389.406" cy="181.792" r="17.829"/>
		</g>
		<g>
			<circle fill="#6B473C" cx="363.211" cy="175.757" r="10.65"/>
			<circle fill="#6B473C" cx="348.98" cy="172.619" r="5.326"/>
			<circle fill="#6B473C" cx="389.389" cy="185.525" r="17.829"/>
		</g>
	</g>
	<g display="inline">
		<g>
			<circle fill="#3A2727" cx="373.132" cy="216.113" r="10.652"/>
			<circle fill="#3A2727" cx="360.031" cy="209.727" r="5.325"/>
			<circle fill="#3A2727" cx="394.949" cy="230.469" r="17.829"/>
		</g>
		<g>
			<circle fill="#6B473C" cx="370.898" cy="218.462" r="10.651"/>
			<circle fill="#6B473C" cx="357.797" cy="212.077" r="5.325"/>
			<circle fill="#6B473C" cx="394.057" cy="234.094" r="17.83"/>
		</g>
	</g>
	<g display="inline">
		<g>
			<path fill="#3A2727" d="M251.517,154.76c-1.07,5.785-6.628,9.607-12.409,8.539c-5.787-1.07-9.611-6.625-8.542-12.411
				c1.071-5.785,6.627-9.607,12.411-8.538C248.761,143.419,252.585,148.975,251.517,154.76z"/>
			<circle fill="#3A2727" cx="226.58" cy="154.626" r="5.326"/>
			<circle fill="#3A2727" cx="267.157" cy="152.941" r="17.829"/>
		</g>
		<g>
			<circle fill="#6B473C" cx="240.453" cy="156.012" r="10.651"/>
			<circle fill="#6B473C" cx="225.992" cy="157.813" r="5.325"/>
			<circle fill="#6B473C" cx="268.389" cy="156.466" r="17.83"/>
		</g>
	</g>
	<g display="inline">
		<g>
			<path fill="#3A2727" d="M164.492,83.028c0.098,5.883-4.592,10.73-10.471,10.829c-5.882,0.098-10.732-4.59-10.831-10.472
				c-0.096-5.882,4.591-10.73,10.473-10.828C159.543,72.459,164.393,77.147,164.492,83.028z"/>
			<circle fill="#3A2727" cx="140.023" cy="87.839" r="5.326"/>
			<circle fill="#3A2727" cx="179.462" cy="78.146" r="17.829"/>
		</g>
		<g>
			<path fill="#6B473C" d="M164.544,86.271c0.102,5.881-4.589,10.73-10.471,10.829c-5.883,0.098-10.729-4.59-10.827-10.474
				c-0.099-5.881,4.588-10.729,10.471-10.828C159.6,75.7,164.448,80.389,164.544,86.271z"/>
			<circle fill="#6B473C" cx="140.079" cy="91.08" r="5.326"/>
			<circle fill="#6B473C" cx="181.369" cy="81.356" r="17.829"/>
		</g>
	</g>
</g>
<g display="none">
	<path display="inline" fill="#3A2727" d="M247.396,126.007c-8.614-1.786-108.43-20.088-143.271,82.694
		c0,0,9.489,10.24,49.392,17.419c0.634-2.217,2.763-9.044,7.674-19.848c0,0-2.654,15.933-1.01,20.973
		c0.251,0.04,0.51,0.078,0.765,0.119c0.837-1.823,2.929-6.708,3.889-11.985l2.585,12.929c19.946,2.723,45.853,4.627,79.371,4.673
		v0.004c0.205,0,0.401-0.002,0.607-0.002s0.402,0.002,0.607,0.002v-0.004c54.087-0.073,88.366-4.986,109.725-10.372
		c-0.479-3.444-2.21-13.208-7.129-20.585c0,0,10.746,11.26,13.913,18.74c20.583-6.044,26.155-12.063,26.155-12.063
		C355.826,105.918,256.009,124.221,247.396,126.007z"/>
	<path display="inline" opacity="0.5" fill="#FFFFFF" d="M134.682,166.177c0,0,10.284-18.591,34.017-28.875
		c0,0,13.45,41.138,78.716,41.138c65.265,0,80.693-40.347,80.693-40.347s21.277,8.079,42.324,34.413
		c0,0-55.378,20.174-123.017,20.174C179.776,192.679,134.682,166.177,134.682,166.177z"/>
</g>
<g display="none">
	<path display="inline" fill="#EDCB48" d="M430.39,189.949C393.669,95.221,310.648,92.56,310.648,92.56
		c-14.899-18.094-40.978-28.205-40.978-28.205c19.689,9.58,36.721,28.738,36.721,28.738c-9.616-6.44-19.985-10.911-30.783-13.797
		l0.449-0.04c0,0-84.085-22.351-148.479,17.031c0,0,32.208-12.622,73.314-16.718c-31.591,6.692-61.186,19.611-81.829,30.554
		c-41.02,21.746-71.916,77.914-62.906,133.554c3.301,13.328,2.237,23.972-2.553,33.02c0,0,4.516-1.613,7.542-6.5
		c2.089,11.171,10.663,42.162,43.016,58.122c0,0-11.828-7.312-17.395-26.099c19.635,16.992,40.811,19.179,40.811,19.179
		c-14.369-12.772-15.966-37.783-15.966-37.783c4.257,21.818,11.708,25.011,11.708,25.011s-17.562-38.316-0.533-66.521
		c17.03-28.206,82.488-51.089,82.488-51.089c-31.398,29.27-61.201,32.994-61.201,32.994c60.137,3.193,112.823-22.885,112.823-22.885
		c-5.856,13.837-16.498,17.562-16.498,17.562c45.77-7.45,59.604-63.329,59.604-63.329s22.751,9.046,60.67,58.938
		c0,0-5.189-14.369-18.754-32.125c10.768,9.665,19.162,20.154,25.686,30.855c8.729,17.617,18.177,43.288,10.63,65.93
		c0,0,2.657-7.009,6.919-14.619c-0.064,8.367-0.844,35.421-7.982,50.142c0,0,7.058-8.706,12.414-18.141
		c-0.075,11.184-1.241,18.141-1.241,18.141c40.447-18.625,40.447-77.697,40.447-77.697c0.162-5.762,0.071-11.279-0.213-16.592
		c5.935,19.963,5.002,39.478,5.002,39.478C443.695,220.816,430.39,189.949,430.39,189.949z"/>
	<path display="inline" fill="#DEB73E" d="M300.005,154.426c0,0-6.385,53.484-59.604,64.261c0,0,24.48-9.579,43.106-36.721
		C301.887,155.187,300.005,154.426,300.005,154.426z"/>
	<path display="inline" fill="#DEB73E" d="M144.076,224.369c118.29-5.429,129.852-31.758,147.414-69.544
		C282.806,173.51,244.658,219.752,144.076,224.369z"/>
	<path display="inline" fill="#EDCB48" d="M237.74,116.508c0,0,59.605-6.918,69.185-11.175c9.58-4.258-13.839,12.24-13.839,12.24
		L237.74,116.508z"/>
	<g display="inline">
		<path fill="#DEB73E" d="M144.076,224.01c1.139,0.061,2.27,0.091,3.403,0.131c0.406-0.35,0.819-0.701,1.236-1.051
			C145.757,223.794,144.076,224.01,144.076,224.01z"/>
		<path fill="#DEB73E" d="M237.207,165.469c0,0-10.643,14.901-96.325,40.445c-85.682,25.545-50.558,55.347-50.558,55.347
			s-6.917-13.304,13.305-26.609c12.744-8.382,17.453-11.481,19.197-12.629c-6.577,4.534-41.95,32.282-19.197,90.859
			c0.112,0.289,0.222,0.557,0.333,0.84c13.087,6.584,23.617,7.676,23.617,7.676c-14.369-12.772-15.966-37.783-15.966-37.783
			c4.257,21.818,11.708,25.011,11.708,25.011s-17.562-38.316-0.533-66.521c17.03-28.206,82.488-51.089,82.488-51.089
			S230.288,181.435,237.207,165.469z"/>
	</g>
	<g display="inline">
		<path fill="#DEB73E" d="M341.921,182.172l-0.078,2.318C341.924,183.712,341.956,182.936,341.921,182.172z"/>
		<path fill="#DEB73E" d="M402.116,305.401c-3.773-96.583-60.195-123.229-60.195-123.229c10.768,9.665,19.162,20.154,25.686,30.855
			c8.729,17.617,18.177,43.288,10.63,65.93c0,0,2.657-7.009,6.919-14.619c-0.064,8.367-0.844,35.421-7.982,50.142
			c0,0,7.058-8.706,12.414-18.141c-0.075,11.184-1.241,18.141-1.241,18.141C393.591,312.066,398.144,308.961,402.116,305.401z"/>
	</g>
	<path display="inline" fill="#DEB73E" d="M407.772,299.712c0,0,36.986-77.832-13.57-144.887c0,0,24.591,16.84,34.378,65.365
		C438.372,268.713,407.772,299.712,407.772,299.712z"/>
	<path display="inline" fill="#DEB73E" d="M424.003,236.782c0,0-6.919-86.747-117.081-126.66c0,0,101.116,34.592,114.422,149.543
		L424.003,236.782z"/>
	<path display="inline" fill="#DEB73E" d="M281.378,119.17c0,0-22.353,35.655-91.004,50.558
		c-68.651,14.902-111.225,1.596-111.225,1.596S197.827,182.5,281.378,119.17z"/>
	<path display="inline" fill="#DEB73E" d="M281.378,119.17c0,0-56.41,54.282-132.513,35.655
		C148.865,154.825,227.095,158.02,281.378,119.17z"/>
	<path display="inline" fill="#DEB73E" d="M286.7,113.315c0,0-40.981-15.965-106.969,1.065c0,0,54.815-27.142,107.502-9.047
		c0,0-9.05-12.772-53.219-13.304c0,0,42.043-5.321,56.942,14.369L286.7,113.315z"/>
	<path display="inline" fill="#FFFFFF" d="M281.378,119.17c0,0-25.677,35.256-63.994,47.23
		C217.384,166.4,269.537,152.165,281.378,119.17z"/>
	<path display="inline" fill="#FFFFFF" d="M281.378,119.17c0,0-35.655-2.662-89.139,14.102
		C192.239,133.271,242.795,109.458,281.378,119.17z"/>
	<path display="inline" fill="#FFFFFF" d="M281.378,119.17c0,0,39.916-5.323,87.279,56.41
		C368.657,175.58,331.4,110.656,281.378,119.17z"/>
	<path display="inline" fill="#FFFFFF" d="M286.7,113.315c0,0,30.868-8.515,81.427,30.333
		C368.127,143.649,322.884,98.946,286.7,113.315z"/>
	<path display="inline" fill="#FFFFFF" d="M397.395,309.69c0,0,6.92-55.346-16.495-113.355c0,0,24.342,53.155,21.217,109.066
		L397.395,309.69z"/>
	<path display="inline" fill="#FFFFFF" d="M290.956,106.397c0,0,14.372-8.516,33.531-2.661
		C324.487,103.736,304.259,92.561,290.956,106.397z"/>
	<path display="inline" fill="#FFFFFF" d="M127.578,321.398c0,0-61.731-35.656-9.578-95.26c0,0-52.687,48.428-0.533,93.131
		L127.578,321.398z"/>
</g>
<g>
	<path fill="#6B473C" d="M254.28,90.055C196.663,69.249,70.618,113.479,46.215,198.889C21.08,286.863,76.959,330.363,91.62,340.026
		c13.218,11.029,32.217,29.856,27.418,43.721c0,0,8.7-4.974,9.108-14.918c0.136,0.132,0.308,0.301,0.523,0.518
		c2.143,2.409,4.08,4.877,5.692,7.357c3.764,6.366,6.275,15.477-2.105,23.704c0,0,3.978,0.031,7.251-2.948
		c-1.741,9.061-9.651,11.349-9.651,11.349c21.135,0.129,34.252-9.655,36.285-24.6c6.471-1.63,30.633-9.568,2.194-32.035
		c17.828,2.292,34.729-1.237,34.729-1.237c-26.021,2.001-49.223-10.39-62.96-19.956c-23.994-23.151-25.878-48.794-25.487-59.237
		c4.178,7.321,12.422,9.571,12.422,9.571c-15.205-40.012,20.007-51.216,76.024-70.421c56.018-19.206,48.016-73.623,48.016-73.623
		L254.28,90.055z M166.215,383.43c0.738-6.764-0.761-14.541-4.764-22.915c2.054,1.616,3.726,3.476,4.801,5.627
		C171.408,376.452,168.363,381.432,166.215,383.43z M111.908,265.216c0.238-4.442,0.728-7.108,0.728-7.108
		c-0.479,2.75-0.485,5.189-0.162,7.36C112.279,265.375,112.095,265.297,111.908,265.216z"/>
	<path fill="#5F342A" d="M112.636,258.107c-3.201,18.406,14.404,23.207,14.404,23.207c-15.205-40.012,20.007-51.216,76.024-70.421
		c56.018-19.206,48.016-73.623,48.016-73.623c-4.802,26.408-24.809,34.411-97.631,56.018
		c-71.237,21.136-42.929,73.659-41.662,75.937C111.847,262.428,112.636,258.107,112.636,258.107z"/>
	<path fill="#5F342A" d="M254.28,90.055c0,0-72.022-37.345-176.055,39.479c0,0-56.019,42.681-47.482,101.365
		c0,0,8.536-68.288,68.288-99.764C161.739,98.102,200.395,82.053,254.28,90.055z"/>
	<g>
		<path fill="#5F342A" d="M112.474,265.468c-0.194-0.093-0.379-0.171-0.565-0.252c0.062-1.163,0.142-2.196,0.226-3.099l-3.5-13.613
			c0,0-20.806,66.155,51.217,111.5c0,0,1.116,0.12,2.479,2.486c-0.285-0.657-0.56-1.311-0.878-1.977
			c2.054,1.616,3.726,3.476,4.801,5.627c4.773,9.546,2.517,14.517,0.45,16.788c0.028,0.36,0.056,0.711,0.083,1.084
			c0.001,0.01,0.001,0.018,0.001,0.026c7.266-1.964,29.109-10.092,1.547-31.866c17.828,2.292,34.729-1.237,34.729-1.237
			c-26.021,2.001-49.223-10.39-62.96-19.956c-23.994-23.151-25.878-48.794-25.487-59.237c4.178,7.321,12.422,9.571,12.422,9.571
			c-1.42-3.736-2.399-7.221-2.963-10.486l-11.818-8.619C112.25,263.355,112.321,264.443,112.474,265.468z"/>
		<path fill="#5F342A" d="M166.359,379.079c-0.089-3.166-0.621-6.511-1.629-10.003C165.353,371.624,165.922,374.9,166.359,379.079z"
			/>
	</g>
	<path fill="#5F342A" d="M98.499,339.733c20.273,8.535,29.647,29.096,29.647,29.096c0.136,0.132,0.308,0.301,0.523,0.518
		c2.143,2.409,4.08,4.877,5.692,7.357c3.764,6.366,6.275,15.477-2.105,23.704c0,0,3.978,0.031,7.251-2.948
		c-1.741,9.061-9.651,11.349-9.651,11.349c11.511,0.071,20.62-2.817,26.878-7.859C159.079,363.24,98.499,339.733,98.499,339.733z"/>
	<path fill="#5F342A" d="M252.146,129.534c0,0-20.273,33.077-94.43,41.612c-74.156,8.537-77.356,48.015-77.356,48.015
		s0-48.548,76.824-57.617S252.146,129.534,252.146,129.534z"/>
	<path fill="#6B473C" d="M249.659,137.27c0,0-8.002,54.417,48.016,73.623c56.018,19.206,91.229,30.409,76.024,70.421
		c0,0,8.243-2.25,12.422-9.571c0.391,10.443-1.494,36.086-25.489,59.237c-13.735,9.566-36.939,21.957-62.957,19.956
		c0,0,16.902,3.529,34.727,1.237c-28.437,22.467-4.276,30.405,2.194,32.035c2.032,14.944,15.152,24.729,36.287,24.6
		c0,0-7.912-2.288-9.653-11.349c3.272,2.979,7.252,2.948,7.252,2.948c-8.381-8.228-5.87-17.338-2.106-23.704
		c1.616-2.48,3.551-4.948,5.695-7.357c0.213-0.217,0.385-0.386,0.521-0.518c0.41,9.944,9.109,14.918,9.109,14.918
		c-4.802-13.864,14.198-32.691,27.418-43.721c14.661-9.663,70.541-53.163,45.404-141.137
		c-24.404-85.41-150.446-129.64-208.066-108.834L249.659,137.27z M334.486,366.142c1.075-2.151,2.748-4.011,4.799-5.627
		c-4.001,8.374-5.502,16.151-4.764,22.915C332.377,381.432,329.329,376.452,334.486,366.142z M388.263,265.468
		c0.325-2.171,0.319-4.61-0.159-7.36c0,0,0.487,2.666,0.725,7.108C388.645,265.297,388.46,265.375,388.263,265.468z"/>
	<path fill="#5F342A" d="M388.104,258.107c3.201,18.406-14.404,23.207-14.404,23.207c15.204-40.012-20.007-51.216-76.024-70.421
		c-56.019-19.206-48.016-73.623-48.016-73.623c4.8,26.408,24.809,34.411,97.632,56.018c71.234,21.136,42.926,73.659,41.659,75.937
		C388.891,262.428,388.104,258.107,388.104,258.107z"/>
	<path fill="#5F342A" d="M246.458,90.055c0,0,72.024-37.345,176.056,39.479c0,0,56.018,42.681,47.48,101.365
		c0,0-8.537-68.288-68.287-99.764C339,98.102,300.342,82.053,246.458,90.055z"/>
	<g>
		<path fill="#5F342A" d="M388.263,265.468c0.197-0.093,0.382-0.171,0.565-0.252c-0.062-1.163-0.141-2.196-0.225-3.099l3.501-13.613
			c0,0,20.807,66.155-51.216,111.5c0,0-1.119,0.12-2.482,2.486c0.288-0.657,0.562-1.311,0.879-1.977
			c-2.051,1.616-3.724,3.476-4.799,5.627c-4.773,9.546-2.516,14.517-0.453,16.788c-0.028,0.36-0.057,0.711-0.081,1.084
			c0,0.01-0.003,0.018-0.003,0.026c-7.265-1.964-29.106-10.092-1.548-31.866c-17.824,2.292-34.727-1.237-34.727-1.237
			c26.018,2.001,49.222-10.39,62.957-19.956c23.995-23.151,25.88-48.794,25.489-59.237c-4.179,7.321-12.422,9.571-12.422,9.571
			c1.419-3.736,2.397-7.221,2.963-10.486l11.816-8.619C388.488,263.355,388.416,264.443,388.263,265.468z"/>
		<path fill="#5F342A" d="M334.377,379.079c0.091-3.166,0.622-6.511,1.629-10.003C335.387,371.624,334.818,374.9,334.377,379.079z"
			/>
	</g>
	<path fill="#5F342A" d="M402.239,339.733c-20.272,8.535-29.647,29.096-29.647,29.096c-0.137,0.132-0.309,0.301-0.521,0.518
		c-2.145,2.409-4.079,4.877-5.695,7.357c-3.764,6.366-6.274,15.477,2.106,23.704c0,0-3.979,0.031-7.252-2.948
		c1.741,9.061,9.653,11.349,9.653,11.349c-11.511,0.071-20.623-2.817-26.881-7.859C341.657,363.24,402.239,339.733,402.239,339.733z
		"/>
	<path fill="#5F342A" d="M248.591,131.668c0,0,20.275,33.076,94.429,41.613c74.157,8.537,77.358,48.015,77.358,48.015
		s0-48.549-76.824-57.618C266.731,154.609,248.591,131.668,248.591,131.668z"/>
	<path fill="#FFFFFF" d="M248.943,93.789c0,0-16.538,22.94-74.69,32.01C174.252,125.799,236.672,125.266,248.943,93.789z"/>
	<path fill="#FFFFFF" d="M248.943,93.789c0,0,25.075,40.013,97.097,50.149C346.04,143.938,294.29,137.537,248.943,93.789z"/>
	<path fill="#FFFFFF" d="M250.01,139.671c0,0-5.867,52.282-75.223,69.354C191.63,201.828,230.77,191.185,250.01,139.671z"/>
	<path fill="#FFFFFF" d="M410.595,338.133c0,0,46.945-50.684,23.473-125.907C434.067,212.226,447.94,286.384,410.595,338.133z"/>
	<path fill="#FFFFFF" d="M102.765,341.866c0,0-75.224-44.279-32.01-149.379C70.755,192.487,32.876,281.048,102.765,341.866z"/>
</g>
<path display="none" fill="#FFFFFF" d="M212.104,305.715c0,13.994-7.881,25.336-17.599,25.336c-9.722,0-17.603-11.342-17.603-25.336
	c0-13.992,7.881-25.33,17.603-25.33C204.223,280.385,212.104,291.723,212.104,305.715"/>
<g display="none">
	<path display="inline" fill="#AE5D52" d="M201.948,291.649c0,12.601-7.104,22.811-15.85,22.811c-8.757,0-15.85-10.21-15.85-22.811
		c0-12.605,7.093-22.82,15.85-22.82C194.844,268.829,201.948,279.044,201.948,291.649"/>
	<path display="inline" fill="#FFFFFF" d="M337.117,289.193c0,18.903-10.644,34.223-23.776,34.223
		c-13.128,0-23.771-15.319-23.771-34.223c0-18.9,10.644-34.215,23.771-34.215C326.474,254.979,337.117,270.293,337.117,289.193"/>
	<path display="inline" fill="#AE5D52" d="M329.485,291.649c0,12.601-7.099,22.811-15.851,22.811
		c-8.751,0-15.849-10.21-15.849-22.811c0-12.605,7.098-22.82,15.849-22.82C322.387,268.829,329.485,279.044,329.485,291.649"/>
	<path display="inline" fill="#F4CBB3" d="M163.509,269.746l48.178,20.262c0,0,4.502-30.618-16.66-39.173
		C173.865,242.281,163.509,269.746,163.509,269.746z"/>
	<path display="inline" fill="#F4CBB3" d="M336.808,269.746l-48.177,20.262c0,0-4.503-30.618,16.659-39.173
		C326.452,242.281,336.808,269.746,336.808,269.746z"/>
	<path display="inline" fill="#DBAE94" d="M204.686,282.649l-33.917-12.823c1.711-5.398,7.262-10.774,7.262-10.774
		c-5.741,0.676-12.157,11.481-12.157,11.481l0.357,0.356l4.048,1.703c0-0.029-0.002-0.057-0.002-0.086l3.088,1.384l37.011,15.565
		c0.1-4.083-0.18-19.804-9.72-29.054C200.655,260.402,205.539,270.1,204.686,282.649z"/>
	<path display="inline" fill="#DBAE94" d="M295.169,282.649l33.918-12.823c-1.711-5.398-7.262-10.774-7.262-10.774
		c5.74,0.676,12.157,11.481,12.157,11.481l-0.356,0.356l-4.05,1.703c0-0.029,0.003-0.057,0.003-0.086l-3.088,1.384l-37.012,15.565
		c-0.099-4.083,0.18-19.804,9.721-29.054C299.2,260.402,294.316,270.1,295.169,282.649z"/>
</g>
<g display="none">
	<path display="inline" fill="#FFFFFF" d="M209.574,291.896c0,18.902-10.645,34.223-23.772,34.223
		c-13.131,0-23.777-15.32-23.777-34.223c0-18.9,10.646-34.216,23.777-34.216C198.93,257.68,209.574,272.995,209.574,291.896"/>
	<path display="inline" fill="#AE5D52" d="M201.948,294.352c0,12.6-7.104,22.81-15.85,22.81c-8.757,0-15.85-10.21-15.85-22.81
		c0-12.605,7.093-22.821,15.85-22.821C194.844,271.53,201.948,281.746,201.948,294.352"/>
	<path display="inline" fill="#FFFFFF" d="M337.117,291.896c0,18.902-10.644,34.223-23.776,34.223
		c-13.128,0-23.771-15.32-23.771-34.223c0-18.9,10.644-34.216,23.771-34.216C326.474,257.68,337.117,272.995,337.117,291.896"/>
	<path display="inline" fill="#AE5D52" d="M329.485,294.352c0,12.6-7.099,22.81-15.851,22.81c-8.751,0-15.849-10.21-15.849-22.81
		c0-12.605,7.098-22.821,15.849-22.821C322.387,271.53,329.485,281.746,329.485,294.352"/>
	<path display="inline" fill="#F4CBB3" d="M209.854,287.742c0,0-22.565,6.498-42.938-13.581
		C146.544,254.08,214.62,241.271,209.854,287.742z"/>
	<path display="inline" fill="#F4CBB3" d="M289.638,287.742c0,0,22.564,6.498,42.937-13.581
		C352.947,254.08,284.87,241.271,289.638,287.742z"/>
	<path display="inline" fill="#DBAE94" d="M208.76,287.756c0,0-0.338-16.885-8.105-24.651c0,0,5.065,11.481,1.688,24.651H208.76z"/>
	<path display="inline" fill="#DBAE94" d="M165.873,273.235c0,0,6.417-10.807,12.157-11.481c0,0-10.469,10.13-7.092,16.547
		L165.873,273.235z"/>
	<path display="inline" fill="#DBAE94" d="M290.143,287.756c0,0,0.338-16.885,8.104-24.651c0,0-5.065,11.481-1.688,24.651H290.143z"
		/>
	<path display="inline" fill="#DBAE94" d="M333.029,273.235c0,0-6.416-10.807-12.156-11.481c0,0,10.468,10.13,7.091,16.547
		L333.029,273.235z"/>
	<path display="inline" fill="#3A2727" d="M165.873,273.235c0,0-8.104,1.013-10.918-2.139c0,0,2.588,7.204,14.295,8.555
		c0,0-3.49,1.125-8.442,0.675c0,0,19.168,17.235,47.953,7.43C208.76,287.756,180.986,288.906,165.873,273.235z"/>
	<path display="inline" fill="#3A2727" d="M332.918,273.235c0,0,8.104,1.013,10.918-2.139c0,0-2.588,7.204-14.295,8.555
		c0,0,3.488,1.125,8.441,0.675c0,0-19.168,17.235-47.951,7.43C290.031,287.756,317.805,288.906,332.918,273.235z"/>
</g>
<g display="none">
	<path display="inline" fill="#FFFFFF" d="M209.574,268.932c0,18.903-10.645,34.224-23.772,34.224
		c-13.131,0-23.777-15.32-23.777-34.224c0-18.899,10.646-34.214,23.777-34.214C198.93,234.717,209.574,250.032,209.574,268.932"/>
	<path display="inline" fill="#AE5D52" d="M201.948,271.389c0,12.6-7.104,22.81-15.85,22.81c-8.757,0-15.85-10.21-15.85-22.81
		c0-12.605,7.093-22.821,15.85-22.821C194.844,248.568,201.948,258.783,201.948,271.389"/>
	<path display="inline" fill="#FFFFFF" d="M337.117,268.932c0,18.903-10.644,34.224-23.776,34.224
		c-13.128,0-23.771-15.32-23.771-34.224c0-18.899,10.644-34.214,23.771-34.214C326.474,234.717,337.117,250.032,337.117,268.932"/>
	<path display="inline" fill="#AE5D52" d="M329.485,271.389c0,12.6-7.099,22.81-15.851,22.81c-8.751,0-15.849-10.21-15.849-22.81
		c0-12.605,7.098-22.821,15.849-22.821C322.387,248.568,329.485,258.783,329.485,271.389"/>
	<path display="inline" fill="#F4CBB3" d="M290.48,285.505c0,0,19.811-12.607,45.025,0.9
		C360.721,299.912,299.035,331.432,290.48,285.505z"/>
	<path display="inline" fill="#F4CBB3" d="M210.495,285.505c0,0-19.81-12.607-45.024,0.9
		C140.256,299.912,201.941,331.432,210.495,285.505z"/>
</g>
<g display="none">
	<path display="inline" fill="#3A2727" d="M205.157,254.662c0,0-9.229-24.09-30.167-14.409c0,0-10.806,6.079-18.911,3.377
		c0,0,7.655,7.204,17.11,2.702C182.459,241.917,205.157,254.662,205.157,254.662z"/>
	<path display="inline" fill="#3A2727" d="M172.396,246.584c0,0-11.777,4.566-19.467,1.683c0,0,9.132,6.73,17.064,3.845
		C177.923,249.227,172.396,246.584,172.396,246.584z"/>
	<path display="inline" fill="#FFFFFF" d="M209.574,274.786c0,18.903-10.645,34.223-23.772,34.223
		c-13.131,0-23.777-15.319-23.777-34.223c0-18.9,10.646-34.215,23.777-34.215C198.93,240.571,209.574,255.886,209.574,274.786"/>
	<path display="inline" fill="#AE5D52" d="M201.948,277.239c0,12.601-7.104,22.812-15.85,22.812c-8.757,0-15.85-10.211-15.85-22.812
		c0-12.603,7.093-22.818,15.85-22.818C194.844,254.421,201.948,264.637,201.948,277.239"/>
	<path display="inline" fill="#3A2727" d="M294.083,254.662c0,0,9.229-24.09,30.167-14.409c0,0,10.806,6.079,18.91,3.377
		c0,0-7.654,7.204-17.11,2.702C316.781,241.917,294.083,254.662,294.083,254.662z"/>
	<path display="inline" fill="#3A2727" d="M326.845,246.584c0,0,11.776,4.566,19.467,1.683c0,0-9.132,6.73-17.063,3.845
		C321.317,249.227,326.845,246.584,326.845,246.584z"/>
	<path display="inline" fill="#FFFFFF" d="M337.117,274.786c0,18.903-10.644,34.223-23.776,34.223
		c-13.128,0-23.771-15.319-23.771-34.223c0-18.9,10.644-34.215,23.771-34.215C326.474,240.571,337.117,255.886,337.117,274.786"/>
	<path display="inline" fill="#AE5D52" d="M329.485,277.239c0,12.601-7.099,22.812-15.851,22.812
		c-8.751,0-15.849-10.211-15.849-22.812c0-12.603,7.098-22.818,15.849-22.818C322.387,254.421,329.485,264.637,329.485,277.239"/>
	<path display="inline" fill="#F4CBB3" d="M290.48,291.356c0,0,19.811-12.606,45.025,0.901S299.035,337.283,290.48,291.356z"/>
	<path display="inline" fill="#F4CBB3" d="M210.495,291.356c0,0-19.81-12.606-45.024,0.901
		C140.256,305.766,201.941,337.283,210.495,291.356z"/>
</g>
<g display="none">
	<path display="inline" fill="#FFFFFF" d="M208.224,286.492c0,18.902-10.645,34.223-23.772,34.223
		c-13.13,0-23.777-15.32-23.777-34.223c0-18.9,10.646-34.215,23.777-34.215C197.579,252.277,208.224,267.592,208.224,286.492"/>
	<path display="inline" fill="#AE5D52" d="M200.597,288.948c0,12.6-7.103,22.81-15.85,22.81c-8.756,0-15.851-10.21-15.851-22.81
		c0-12.605,7.094-22.82,15.851-22.82C193.494,266.128,200.597,276.343,200.597,288.948"/>
	<path display="inline" fill="#FFFFFF" d="M335.767,286.492c0,18.902-10.644,34.223-23.776,34.223
		c-13.128,0-23.771-15.32-23.771-34.223c0-18.9,10.644-34.215,23.771-34.215C325.123,252.277,335.767,267.592,335.767,286.492"/>
	<path display="inline" fill="#AE5D52" d="M328.135,288.948c0,12.6-7.099,22.81-15.851,22.81c-8.751,0-15.85-10.21-15.85-22.81
		c0-12.605,7.099-22.82,15.85-22.82C321.036,266.128,328.135,276.343,328.135,288.948"/>
	<path display="inline" fill="#F4CBB3" d="M160.913,281.677h47.072c-1.627-16.617-11.542-29.399-23.534-29.399
		C172.457,252.277,162.541,265.06,160.913,281.677z"/>
	<path display="inline" fill="#DBAE94" d="M194.15,255.282c5.314,4.586,9.131,12.737,10.019,22.343h-39.777
		c0.828-8.959,4.207-16.651,8.97-21.369c-6.597,5.022-11.365,14.359-12.448,25.421h47.072
		C206.828,269.853,201.462,259.999,194.15,255.282z"/>
	<path display="inline" fill="#F4CBB3" d="M285.077,281.677h52.68c0,0,3.377-30.392-29.717-33.769
		C274.947,244.531,285.077,281.677,285.077,281.677z"/>
	<path display="inline" fill="#DBAE94" d="M321.573,255.282c5.314,4.586,9.131,12.737,10.019,22.343h-39.777
		c0.828-8.959,4.206-16.651,8.97-21.369c-6.597,5.022-11.365,14.359-12.448,25.421h47.072
		C334.251,269.853,328.885,259.999,321.573,255.282z"/>
</g>
<g display="none">
	<path display="inline" fill="#FFFFFF" d="M210.476,286.943c0,18.902-10.645,34.223-23.771,34.223
		c-13.133,0-23.778-15.32-23.778-34.223c0-18.9,10.645-34.215,23.778-34.215C199.831,252.729,210.476,268.043,210.476,286.943"/>
	<path display="inline" fill="#AE5D52" d="M202.849,289.397c0,12.601-7.104,22.812-15.849,22.812
		c-8.757,0-15.851-10.211-15.851-22.812c0-12.604,7.093-22.818,15.851-22.818C195.745,266.579,202.849,276.794,202.849,289.397"/>
	<path display="inline" fill="#FFFFFF" d="M338.019,286.943c0,18.902-10.644,34.223-23.777,34.223
		c-13.127,0-23.771-15.32-23.771-34.223c0-18.9,10.645-34.215,23.771-34.215C327.375,252.729,338.019,268.043,338.019,286.943"/>
	<path display="inline" fill="#AE5D52" d="M330.386,289.397c0,12.601-7.098,22.812-15.85,22.812c-8.751,0-15.85-10.211-15.85-22.812
		c0-12.604,7.099-22.818,15.85-22.818C323.288,266.579,330.386,276.794,330.386,289.397"/>
	<path display="inline" fill="#F4CBB3" d="M163.165,282.128h47.072c-1.627-16.617-11.542-29.399-23.532-29.399
		C174.708,252.729,164.791,265.511,163.165,282.128z"/>
	<path display="inline" fill="#DBAE94" d="M196.402,255.733c5.313,4.585,9.131,12.737,10.019,22.343h-39.778
		c0.829-8.96,4.208-16.652,8.97-21.371c-6.598,5.024-11.365,14.36-12.448,25.423h47.072
		C209.078,270.304,203.715,260.45,196.402,255.733z"/>
	<path display="inline" fill="#F4CBB3" d="M287.329,282.128h52.68c0,0,3.377-30.392-29.717-33.769S287.329,282.128,287.329,282.128z
		"/>
	<path display="inline" fill="#DBAE94" d="M323.825,255.733c5.314,4.585,9.131,12.737,10.019,22.343h-39.777
		c0.828-8.96,4.206-16.652,8.97-21.371c-6.597,5.024-11.366,14.36-12.448,25.423h47.072
		C336.503,270.304,331.137,260.45,323.825,255.733z"/>
	<path display="inline" fill="#3A2727" d="M210.236,282.128c0,0-30.067,1.124-47.627-8.779c0,0,1.351,3.601,4.052,5.853
		c0,0-9.456-1.351-16.66-5.853C150.001,273.349,159.908,294.06,210.236,282.128z"/>
	<path display="inline" fill="#3A2727" d="M290.031,282.128c0,0,30.067,1.124,47.627-8.779c0,0-1.351,3.601-4.052,5.853
		c0,0,9.455-1.351,16.66-5.853C350.267,273.349,340.36,294.06,290.031,282.128z"/>
</g>
<g display="none">
	<path display="inline" fill="#FFFFFF" d="M210.025,285.142c0,18.902-10.645,34.223-23.772,34.223
		c-13.13,0-23.777-15.32-23.777-34.223c0-18.9,10.646-34.215,23.777-34.215C199.38,250.927,210.025,266.241,210.025,285.142"/>
	<path display="inline" fill="#AE5D52" d="M202.399,285.796c0,12.6-7.104,22.81-15.851,22.81c-8.756,0-15.85-10.21-15.85-22.81
		c0-12.604,7.094-22.821,15.85-22.821C195.295,262.975,202.399,273.191,202.399,285.796"/>
	<path display="inline" fill="#FFFFFF" d="M337.568,285.142c0,18.902-10.644,34.223-23.776,34.223
		c-13.128,0-23.771-15.32-23.771-34.223c0-18.9,10.644-34.215,23.771-34.215C326.925,250.927,337.568,266.241,337.568,285.142"/>
	<path display="inline" fill="#AE5D52" d="M329.937,285.796c0,12.6-7.099,22.81-15.851,22.81c-8.751,0-15.849-10.21-15.849-22.81
		c0-12.604,7.098-22.821,15.849-22.821C322.838,262.975,329.937,273.191,329.937,285.796"/>
	<path display="inline" fill="#F4CBB3" d="M162.655,307.727l43.829,8.123l-21.104,12.574
		C185.379,328.424,156.538,318.499,162.655,307.727z"/>
	<path display="inline" fill="#F4CBB3" d="M336.656,307.727l-43.829,8.123l21.104,12.574
		C313.932,328.424,342.773,318.499,336.656,307.727z"/>
	<path display="inline" fill="#DBAE94" d="M201.781,317.024c0,0-10.259-6.305-40.523-5.403
		C161.258,311.621,189.472,303.065,201.781,317.024z"/>
	<path display="inline" fill="#DBAE94" d="M298.136,317.024c0,0,10.258-6.305,40.523-5.403
		C338.659,311.621,310.446,303.065,298.136,317.024z"/>
	<path display="inline" fill="#F4CBB3" d="M208.986,261.64c0,0-8.104,13.059-46.827,13.059l1.351-35.12l29.267-1.351L208.986,261.64
		z"/>
	<path display="inline" fill="#F4CBB3" d="M291.382,261.64c0,0,8.103,13.059,46.826,13.059l-1.351-35.12l-29.267-1.351
		L291.382,261.64z"/>
	<path display="inline" fill="#DBAE94" d="M188.725,252.185c0,0,4.952,0.451,9.456,12.608c0,0-13.958,7.653-29.267,6.303
		c0,0-1.8-4.503,3.603-14.858c0,0-7.655,7.656-10.356,18.461c25.651,0,37.86-5.729,43.184-9.597
		C204.971,263.853,200.431,256.237,188.725,252.185z"/>
	<path display="inline" fill="#DBAE94" d="M313.792,250.927c0,0-8.903,3.06-12.095,13.866c0,0,13.957,7.653,29.267,6.303
		c0,0,1.801-4.503-3.603-14.858c0,0,7.655,7.656,10.356,18.461c-25.651,0-37.861-5.729-43.184-9.597
		C294.905,263.853,299.938,253.986,313.792,250.927z"/>
	<path display="inline" fill="#DBAE94" d="M153.605,272.897c0,0,36.471,8.104,58.533-13.057
		C212.138,259.841,191.426,272.897,153.605,272.897z"/>
	<path display="inline" fill="#DBAE94" d="M285.079,259.39c0,0,25.213,20.713,61.684,13.508
		C346.763,272.897,319.299,273.349,285.079,259.39z"/>
</g>
<g display="none">
	<path display="inline" fill="#FFFFFF" d="M210.926,285.142c0,18.902-10.646,34.223-23.773,34.223
		c-13.13,0-23.777-15.32-23.777-34.223c0-18.9,10.646-34.215,23.777-34.215C200.28,250.927,210.926,266.241,210.926,285.142"/>
	<path display="inline" fill="#AE5D52" d="M203.298,285.796c0,12.6-7.104,22.81-15.851,22.81c-8.756,0-15.85-10.21-15.85-22.81
		c0-12.604,7.094-22.821,15.85-22.821C196.195,262.975,203.298,273.191,203.298,285.796"/>
	<path display="inline" fill="#FFFFFF" d="M338.469,285.142c0,18.902-10.645,34.223-23.777,34.223
		c-13.128,0-23.771-15.32-23.771-34.223c0-18.9,10.644-34.215,23.771-34.215C327.824,250.927,338.469,266.241,338.469,285.142"/>
	<path display="inline" fill="#AE5D52" d="M330.836,285.796c0,12.6-7.098,22.81-15.851,22.81c-8.751,0-15.849-10.21-15.849-22.81
		c0-12.604,7.098-22.821,15.849-22.821C323.738,262.975,330.836,273.191,330.836,285.796"/>
	<path display="inline" fill="#F4CBB3" d="M163.555,307.727l43.829,8.123l-21.104,12.574
		C186.279,328.424,157.437,318.499,163.555,307.727z"/>
	<path display="inline" fill="#F4CBB3" d="M337.556,307.727l-43.829,8.123l21.104,12.574
		C314.831,328.424,343.674,318.499,337.556,307.727z"/>
	<path display="inline" fill="#DBAE94" d="M202.681,317.024c0,0-10.259-6.305-40.523-5.403
		C162.158,311.621,190.371,303.065,202.681,317.024z"/>
	<path display="inline" fill="#DBAE94" d="M299.035,317.024c0,0,10.259-6.305,40.524-5.403
		C339.56,311.621,311.346,303.065,299.035,317.024z"/>
	<path display="inline" fill="#F4CBB3" d="M209.886,261.64c0,0-8.104,13.059-46.827,13.059l1.351-35.12l29.267-1.351L209.886,261.64
		z"/>
	<path display="inline" fill="#F4CBB3" d="M292.281,261.64c0,0,8.104,13.059,46.827,13.059l-1.352-35.12l-29.267-1.351
		L292.281,261.64z"/>
	<path display="inline" fill="#DBAE94" d="M189.625,252.185c0,0,4.952,0.451,9.456,12.608c0,0-13.959,7.653-29.267,6.303
		c0,0-1.801-4.503,3.603-14.858c0,0-7.655,7.656-10.356,18.461c25.651,0,37.859-5.729,43.184-9.597
		C205.871,263.853,201.33,256.237,189.625,252.185z"/>
	<path display="inline" fill="#DBAE94" d="M314.691,250.927c0,0-8.902,3.06-12.095,13.866c0,0,13.957,7.653,29.267,6.303
		c0,0,1.801-4.503-3.603-14.858c0,0,7.655,7.656,10.356,18.461c-25.651,0-37.86-5.729-43.184-9.597
		C295.805,263.853,300.837,253.986,314.691,250.927z"/>
	<path display="inline" fill="#DBAE94" d="M154.505,272.897c0,0,36.47,8.104,58.532-13.057
		C213.037,259.841,192.326,272.897,154.505,272.897z"/>
	<path display="inline" fill="#DBAE94" d="M285.979,259.39c0,0,25.213,20.713,61.684,13.508
		C347.662,272.897,320.198,273.349,285.979,259.39z"/>
	<path display="inline" fill="#3A2727" d="M295.434,265.102c0,0,18.348,12.523,49.753,8.134c0,0,7.092-1.352,11.481-6.079
		c0,0-6.078,10.131-14.858,10.807c0,0,3.715,1.688,11.144,1.351C352.953,279.313,322.562,289.444,295.434,265.102z"/>
	<path display="inline" fill="#3A2727" d="M206.059,265.102c0,0-18.347,12.523-49.752,8.134c0,0-7.092-1.352-11.481-6.079
		c0,0,6.078,10.131,14.858,10.807c0,0-3.715,1.688-11.144,1.351C148.54,279.313,178.932,289.444,206.059,265.102z"/>
	<ellipse display="inline" fill="#9EDAF1" cx="166.042" cy="304.472" rx="11.312" ry="5.909"/>
	<circle display="inline" fill="#FFFFFF" cx="169.756" cy="303.458" r="2.469"/>
	<ellipse display="inline" fill="#9EDAF1" cx="335.225" cy="304.472" rx="11.312" ry="5.909"/>
	<circle display="inline" fill="#FFFFFF" cx="338.714" cy="303.234" r="2.28"/>
</g>
<g display="none">
	<path display="inline" fill="#FFFFFF" d="M210.109,273.907c0,18.903-10.646,34.224-23.772,34.224
		c-13.133,0-23.778-15.32-23.778-34.224c0-18.899,10.645-34.214,23.778-34.214C199.464,239.693,210.109,255.008,210.109,273.907"/>
	<path display="inline" fill="#AE5D52" d="M203.744,273.349c0,8.123-4.58,14.708-10.218,14.708c-5.647,0-10.22-6.585-10.22-14.708
		c0-8.127,4.573-14.714,10.22-14.714C199.164,258.635,203.744,265.222,203.744,273.349"/>
	<path display="inline" fill="#FFFFFF" d="M337.651,273.907c0,18.903-10.644,34.224-23.776,34.224
		c-13.128,0-23.771-15.32-23.771-34.224c0-18.899,10.644-34.214,23.771-34.214C327.008,239.693,337.651,255.008,337.651,273.907"/>
	<path display="inline" fill="#AE5D52" d="M317.046,273.349c0,8.123-4.576,14.708-10.219,14.708c-5.644,0-10.22-6.585-10.22-14.708
		c0-8.127,4.576-14.714,10.22-14.714C312.47,258.635,317.046,265.222,317.046,273.349"/>
	<path display="inline" fill="#DBAE94" d="M205.579,295.433c0,0-9.793,21.95-29.379,13.846
		C176.2,309.278,194.098,327.514,205.579,295.433z"/>
	<path display="inline" fill="#DBAE94" d="M295.067,295.433c0,0,9.793,21.95,29.379,13.846
		C324.446,309.278,306.549,327.514,295.067,295.433z"/>
</g>
<g display="none">
	<path display="inline" fill="#3A2727" d="M201.33,251.285c0,0-9.682-15.982-26.34-8.78c0,0-4.728,2.927-8.556,0.901
		c0,0,1.575,3.151,3.601,3.827c0,0-7.653,2.252-12.605-1.351c0,0,4.052,7.656,10.806,6.754
		C174.99,251.736,201.33,251.285,201.33,251.285z"/>
	<path display="inline" fill="#FFFFFF" d="M210.024,276.588c0,18.903-10.645,34.223-23.771,34.223
		c-13.133,0-23.778-15.319-23.778-34.223c0-18.899,10.646-34.215,23.778-34.215C199.379,242.373,210.024,257.688,210.024,276.588"/>
	<path display="inline" fill="#AE5D52" d="M203.66,276.027c0,8.124-4.58,14.707-10.218,14.707c-5.647,0-10.22-6.583-10.22-14.707
		c0-8.127,4.573-14.715,10.22-14.715C199.08,261.312,203.66,267.9,203.66,276.027"/>
	<path display="inline" fill="#3A2727" d="M299.035,251.285c0,0,9.681-15.982,26.34-8.78c0,0,4.727,2.927,8.555,0.901
		c0,0-1.575,3.151-3.602,3.827c0,0,7.653,2.252,12.606-1.351c0,0-4.052,7.656-10.806,6.754
		C325.375,251.736,299.035,251.285,299.035,251.285z"/>
	<path display="inline" fill="#FFFFFF" d="M337.567,276.588c0,18.903-10.644,34.223-23.777,34.223
		c-13.127,0-23.771-15.319-23.771-34.223c0-18.899,10.645-34.215,23.771-34.215C326.924,242.373,337.567,257.688,337.567,276.588"/>
	<path display="inline" fill="#AE5D52" d="M316.962,276.027c0,8.124-4.576,14.707-10.22,14.707c-5.643,0-10.219-6.583-10.219-14.707
		c0-8.127,4.576-14.715,10.219-14.715C312.386,261.312,316.962,267.9,316.962,276.027"/>
	<path display="inline" fill="#DBAE94" d="M205.495,298.112c0,0-9.793,21.949-29.379,13.845
		C176.116,311.957,194.013,330.192,205.495,298.112z"/>
	<path display="inline" fill="#DBAE94" d="M294.982,298.112c0,0,9.793,21.949,29.379,13.845
		C324.361,311.957,306.464,330.192,294.982,298.112z"/>
</g>
</svg>
