<?xml version="1.0" encoding="utf-8"?>
<!-- Generator: Adobe Illustrator 15.0.0, SVG Export Plug-In . SVG Version: 6.00 Build 0)  -->
<!DOCTYPE svg PUBLIC "-//W3C//DTD SVG 1.1//EN" "http://www.w3.org/Graphics/SVG/1.1/DTD/svg11.dtd">
<svg version="1.1" id="Layer_1" xmlns="http://www.w3.org/2000/svg" xmlns:xlink="http://www.w3.org/1999/xlink" x="0px" y="0px"
	 width="500px" height="500px" viewBox="0 0 500 500" enable-background="new 0 0 500 500" xml:space="preserve">
<path fill="#F4CBB3" d="M340.23,236.72c12.092,10.954,19.166,24.186,19.166,38.44c0,66.556-49.613,68.358-110.808,68.358
	c-61.205,0-110.814-9.216-110.814-68.358c0-14.159,6.974-27.307,18.918-38.219c19.924-18.185,53.641-8.553,91.896-8.553
	C286.684,228.388,320.277,218.659,340.23,236.72"/>
<path fill="#AE5D52" d="M254.676,308.029c0,3.188-2.578,5.767-5.763,5.767c-3.186,0-5.767-2.579-5.767-5.767
	c0-3.188,2.581-5.767,5.767-5.767C252.098,302.263,254.676,304.841,254.676,308.029"/>
</svg>
