<?xml version="1.0" encoding="utf-8"?>
<!-- Generator: Adobe Illustrator 15.0.0, SVG Export Plug-In . SVG Version: 6.00 Build 0)  -->
<!DOCTYPE svg PUBLIC "-//W3C//DTD SVG 1.1//EN" "http://www.w3.org/Graphics/SVG/1.1/DTD/svg11.dtd">
<svg version="1.1" id="Layer_1" xmlns="http://www.w3.org/2000/svg" xmlns:xlink="http://www.w3.org/1999/xlink" x="0px" y="0px"
	 width="500px" height="500px" viewBox="0 0 500 500" enable-background="new 0 0 500 500" xml:space="preserve">
<g>
	<path fill="#3A2727" d="M201.33,251.285c0,0-9.682-15.982-26.34-8.78c0,0-4.728,2.927-8.556,0.901c0,0,1.575,3.151,3.601,3.827
		c0,0-7.653,2.252-12.605-1.351c0,0,4.052,7.656,10.806,6.754C174.99,251.736,201.33,251.285,201.33,251.285z"/>
	<path fill="#FFFFFF" d="M210.024,276.588c0,18.903-10.645,34.223-23.771,34.223c-13.133,0-23.778-15.319-23.778-34.223
		c0-18.899,10.646-34.215,23.778-34.215C199.379,242.373,210.024,257.688,210.024,276.588"/>
	<path fill="#AE5D52" d="M203.66,276.027c0,8.124-4.58,14.707-10.218,14.707c-5.647,0-10.22-6.583-10.22-14.707
		c0-8.127,4.573-14.715,10.22-14.715C199.08,261.312,203.66,267.9,203.66,276.027"/>
	<path fill="#3A2727" d="M299.035,251.285c0,0,9.681-15.982,26.34-8.78c0,0,4.727,2.927,8.555,0.901c0,0-1.575,3.151-3.602,3.827
		c0,0,7.653,2.252,12.606-1.351c0,0-4.052,7.656-10.806,6.754C325.375,251.736,299.035,251.285,299.035,251.285z"/>
	<path fill="#FFFFFF" d="M337.567,276.588c0,18.903-10.644,34.223-23.777,34.223c-13.127,0-23.771-15.319-23.771-34.223
		c0-18.899,10.645-34.215,23.771-34.215C326.924,242.373,337.567,257.688,337.567,276.588"/>
	<path fill="#AE5D52" d="M316.962,276.027c0,8.124-4.576,14.707-10.22,14.707c-5.643,0-10.219-6.583-10.219-14.707
		c0-8.127,4.576-14.715,10.219-14.715C312.386,261.312,316.962,267.9,316.962,276.027"/>
	<path fill="#DBAE94" d="M205.495,298.112c0,0-9.793,21.949-29.379,13.845C176.116,311.957,194.013,330.192,205.495,298.112z"/>
	<path fill="#DBAE94" d="M294.982,298.112c0,0,9.793,21.949,29.379,13.845C324.361,311.957,306.464,330.192,294.982,298.112z"/>
</g>
</svg>
