<?xml version="1.0" encoding="utf-8"?>
<!-- Generator: Adobe Illustrator 15.0.0, SVG Export Plug-In . SVG Version: 6.00 Build 0)  -->
<!DOCTYPE svg PUBLIC "-//W3C//DTD SVG 1.1//EN" "http://www.w3.org/Graphics/SVG/1.1/DTD/svg11.dtd">
<svg version="1.1" id="Layer_1" xmlns="http://www.w3.org/2000/svg" xmlns:xlink="http://www.w3.org/1999/xlink" x="0px" y="0px"
	 width="500px" height="500px" viewBox="0 0 500 500" enable-background="new 0 0 500 500" xml:space="preserve">
<g>
	<path fill="#3A2727" d="M205.157,254.662c0,0-9.229-24.09-30.167-14.409c0,0-10.806,6.079-18.911,3.377
		c0,0,7.655,7.204,17.11,2.702C182.459,241.917,205.157,254.662,205.157,254.662z"/>
	<path fill="#3A2727" d="M172.396,246.584c0,0-11.777,4.566-19.467,1.683c0,0,9.132,6.73,17.064,3.845
		C177.923,249.227,172.396,246.584,172.396,246.584z"/>
	<path fill="#FFFFFF" d="M209.574,274.786c0,18.903-10.645,34.223-23.772,34.223c-13.131,0-23.777-15.319-23.777-34.223
		c0-18.9,10.646-34.215,23.777-34.215C198.93,240.571,209.574,255.886,209.574,274.786"/>
	<path fill="#AE5D52" d="M201.948,277.239c0,12.601-7.104,22.812-15.85,22.812c-8.757,0-15.85-10.211-15.85-22.812
		c0-12.603,7.093-22.818,15.85-22.818C194.844,254.421,201.948,264.637,201.948,277.239"/>
	<path fill="#3A2727" d="M294.083,254.662c0,0,9.229-24.09,30.167-14.409c0,0,10.806,6.079,18.91,3.377c0,0-7.654,7.204-17.11,2.702
		C316.781,241.917,294.083,254.662,294.083,254.662z"/>
	<path fill="#3A2727" d="M326.845,246.584c0,0,11.776,4.566,19.467,1.683c0,0-9.132,6.73-17.063,3.845
		C321.317,249.227,326.845,246.584,326.845,246.584z"/>
	<path fill="#FFFFFF" d="M337.117,274.786c0,18.903-10.644,34.223-23.776,34.223c-13.128,0-23.771-15.319-23.771-34.223
		c0-18.9,10.644-34.215,23.771-34.215C326.474,240.571,337.117,255.886,337.117,274.786"/>
	<path fill="#AE5D52" d="M329.485,277.239c0,12.601-7.099,22.812-15.851,22.812c-8.751,0-15.849-10.211-15.849-22.812
		c0-12.603,7.098-22.818,15.849-22.818C322.387,254.421,329.485,264.637,329.485,277.239"/>
	<path fill="#F4CBB3" d="M290.48,291.356c0,0,19.811-12.606,45.025,0.901S299.035,337.283,290.48,291.356z"/>
	<path fill="#F4CBB3" d="M210.495,291.356c0,0-19.81-12.606-45.024,0.901C140.256,305.766,201.941,337.283,210.495,291.356z"/>
</g>
</svg>
