<?xml version="1.0" encoding="utf-8"?>
<!-- Generator: Adobe Illustrator 15.0.0, SVG Export Plug-In . SVG Version: 6.00 Build 0)  -->
<!DOCTYPE svg PUBLIC "-//W3C//DTD SVG 1.1//EN" "http://www.w3.org/Graphics/SVG/1.1/DTD/svg11.dtd">
<svg version="1.1" id="Layer_1" xmlns="http://www.w3.org/2000/svg" xmlns:xlink="http://www.w3.org/1999/xlink" x="0px" y="0px"
	 width="500px" height="500px" viewBox="0 0 500 500" enable-background="new 0 0 500 500" xml:space="preserve">
<g>
	<circle fill="#6B473C" cx="124.211" cy="110.584" r="25.642"/>
	<circle fill="#6B473C" cx="196.474" cy="193.838" r="15.318"/>
	<circle fill="#6B473C" cx="176.493" cy="200.165" r="7.659"/>
	<circle fill="#6B473C" cx="358.317" cy="211.155" r="15.319"/>
	<circle fill="#6B473C" cx="416.261" cy="147.882" r="15.319"/>
	<circle fill="#6B473C" cx="389.287" cy="234.132" r="25.309"/>
	<circle fill="#6B473C" cx="388.621" cy="126.236" r="25.309"/>
	<circle fill="#6B473C" cx="336.339" cy="205.494" r="7.659"/>
	<circle fill="#6B473C" cx="142.526" cy="215.151" r="15.319"/>
	<circle fill="#6B473C" cx="92.574" cy="132.563" r="15.319"/>
	<circle fill="#6B473C" cx="127.208" cy="229.803" r="7.659"/>
	<circle fill="#6B473C" cx="162.507" cy="206.492" r="7.659"/>
	<circle fill="#6B473C" cx="230.108" cy="183.848" r="25.642"/>
	<circle fill="#6B473C" cx="165.837" cy="88.606" r="15.319"/>
	<circle fill="#6B473C" cx="145.856" cy="94.933" r="7.659"/>
	<circle fill="#6B473C" cx="202.801" cy="81.945" r="25.641"/>
	<circle fill="#6B473C" cx="97.57" cy="241.792" r="25.642"/>
	<circle fill="#6B473C" cx="77.256" cy="157.207" r="15.319"/>
	<circle fill="#6B473C" cx="73.926" cy="177.854" r="7.659"/>
	<circle fill="#6B473C" cx="68.931" cy="208.49" r="25.642"/>
	<circle fill="#6B473C" cx="414.596" cy="191.673" r="32.135"/>
	<circle fill="#6B473C" cx="261.411" cy="192.506" r="10.989"/>
	<circle fill="#6B473C" cx="276.23" cy="195.836" r="6.827"/>
	<circle fill="#6B473C" cx="294.879" cy="196.502" r="12.821"/>
	<circle fill="#6B473C" cx="318.855" cy="199.166" r="12.821"/>
	<circle fill="#6B473C" cx="336.005" cy="86.941" r="17.65"/>
	<circle fill="#6B473C" cx="360.315" cy="102.592" r="15.318"/>
	<circle fill="#6B473C" cx="311.696" cy="78.948" r="7.659"/>
	<circle fill="#6B473C" cx="230.274" cy="61.965" r="10.989"/>
	<circle fill="#6B473C" cx="245.094" cy="65.295" r="6.826"/>
	<circle fill="#6B473C" cx="268.238" cy="65.961" r="19.731"/>
	<circle fill="#6B473C" cx="294.212" cy="72.622" r="12.821"/>
	<g>
		<circle fill="#6B473C" cx="124.211" cy="156.541" r="25.642"/>
		<circle fill="#6B473C" cx="416.261" cy="193.838" r="15.319"/>
		<circle fill="#6B473C" cx="388.621" cy="172.192" r="25.309"/>
		<circle fill="#6B473C" cx="92.574" cy="178.519" r="15.319"/>
		<circle fill="#6B473C" cx="165.837" cy="134.562" r="15.319"/>
		<circle fill="#6B473C" cx="145.856" cy="140.889" r="7.659"/>
		<circle fill="#6B473C" cx="202.801" cy="127.901" r="25.641"/>
		<circle fill="#6B473C" cx="77.256" cy="203.162" r="15.319"/>
		<circle fill="#6B473C" cx="336.005" cy="132.896" r="17.65"/>
		<circle fill="#6B473C" cx="360.315" cy="148.548" r="15.318"/>
		<circle fill="#6B473C" cx="311.696" cy="124.904" r="7.659"/>
		<circle fill="#6B473C" cx="230.274" cy="107.92" r="10.989"/>
		<circle fill="#6B473C" cx="245.094" cy="111.25" r="6.826"/>
		<circle fill="#6B473C" cx="268.238" cy="111.917" r="19.731"/>
		<circle fill="#6B473C" cx="294.212" cy="118.577" r="12.821"/>
	</g>
	<path fill="#6B473C" d="M106.561,223.809c0,0,43.292-91.912,140.531-81.255s141.862,69.933,141.862,69.933h23.311l12.654-53.282
		l-31.969-41.96l-69.267-35.3l-85.417-16.65l-69.1,26.641l-55.28,19.98l-39.961,47.289l2.664,43.292l9.324,23.31L106.561,223.809z"
		/>
	<polygon fill="#6B473C" points="101.233,217.815 121.214,235.131 181.821,196.502 231.773,193.838 258.414,189.842 
		287.719,199.166 336.339,205.494 366.309,221.145 382.959,229.803 408.27,199.832 239.1,98.596 151.851,125.237 	"/>
	<g>
		<g>
			<circle fill="#3A2727" cx="177.159" cy="129.233" r="15.319"/>
			<circle fill="#3A2727" cx="157.179" cy="135.561" r="7.659"/>
			<circle fill="#3A2727" cx="214.123" cy="122.573" r="25.641"/>
			<circle fill="#3A2727" cx="323.018" cy="119.576" r="7.659"/>
			<circle fill="#3A2727" cx="241.597" cy="102.592" r="10.989"/>
			<circle fill="#3A2727" cx="256.416" cy="105.923" r="6.826"/>
			<circle fill="#3A2727" cx="279.561" cy="106.588" r="19.73"/>
			<circle fill="#3A2727" cx="305.535" cy="113.249" r="12.821"/>
		</g>
		<g>
			<circle fill="#6B473C" cx="177.159" cy="133.896" r="15.319"/>
			<circle fill="#6B473C" cx="157.179" cy="140.223" r="7.659"/>
			<circle fill="#6B473C" cx="216.788" cy="127.235" r="25.642"/>
			<circle fill="#6B473C" cx="323.018" cy="124.238" r="7.659"/>
			<circle fill="#6B473C" cx="241.597" cy="107.254" r="10.989"/>
			<circle fill="#6B473C" cx="256.416" cy="110.584" r="6.826"/>
			<circle fill="#6B473C" cx="279.561" cy="111.25" r="19.73"/>
			<circle fill="#6B473C" cx="305.535" cy="117.911" r="12.821"/>
		</g>
	</g>
	<g>
		<path fill="#010101" d="M122.546,179.186l0.188-2.042c-0.293,0.315-0.566,0.643-0.855,0.96L122.546,179.186z"/>
		<path fill="#010101" d="M125.259,114.453c-13.028,32.578-4.973,56.699-2.525,62.69c0,0,21.038-23.748,67.702-38.16
			C145.221,108.133,125.259,114.453,125.259,114.453z"/>
	</g>
	<circle fill="#6B473C" cx="133.202" cy="175.855" r="15.318"/>
	<circle fill="#6B473C" cx="181.156" cy="147.216" r="15.319"/>
	<circle fill="#6B473C" cx="161.175" cy="153.544" r="7.659"/>
	<g>
		<g>
			<circle fill="#3A2727" cx="366.078" cy="92.516" r="10.652"/>
			<circle fill="#3A2727" cx="354.758" cy="83.337" r="5.325"/>
			<path fill="#3A2727" d="M393.902,126.312c-8.221,5.42-19.281,3.148-24.7-5.072c-5.418-8.223-3.146-19.279,5.076-24.699
				c8.22-5.42,19.278-3.149,24.697,5.072C404.396,109.835,402.124,120.895,393.902,126.312z"/>
		</g>
		<g>
			<circle fill="#6B473C" cx="363.372" cy="94.301" r="10.651"/>
			<circle fill="#6B473C" cx="352.052" cy="85.121" r="5.325"/>
			<circle fill="#6B473C" cx="382.403" cy="114.757" r="17.829"/>
		</g>
	</g>
	<g>
		<path fill="#010101" d="M308.322,138.983c33.601,10.377,53.912,25.593,62.653,33.3c2.956-9.977,6.501-31.042-4.211-57.831
			c0,0-19.269-6.109-62.82,22.937C305.215,137.936,306.656,138.469,308.322,138.983z"/>
		<path fill="#010101" d="M376.305,179.037c-0.039-0.044-0.079-0.087-0.117-0.132l0.026,0.281L376.305,179.037z"/>
	</g>
	<circle fill="#6B473C" cx="147.188" cy="159.871" r="7.659"/>
	<circle fill="#6B473C" cx="346.995" cy="161.869" r="15.319"/>
	<circle fill="#6B473C" cx="329.678" cy="151.545" r="7.66"/>
	<circle fill="#6B473C" cx="365.644" cy="171.193" r="7.659"/>
	<circle fill="#6B473C" cx="312.195" cy="145.218" r="12.821"/>
	<g>
		<g>
			<circle fill="#3A2727" cx="90.893" cy="188.278" r="10.651"/>
			<circle fill="#3A2727" cx="76.804" cy="192.006" r="5.326"/>
			<circle fill="#3A2727" cx="116.787" cy="184.885" r="17.829"/>
		</g>
		<g>
			<circle fill="#6B473C" cx="90.738" cy="191.516" r="10.651"/>
			<circle fill="#6B473C" cx="76.649" cy="195.245" r="5.326"/>
			<circle fill="#6B473C" cx="118.483" cy="188.211" r="17.83"/>
		</g>
	</g>
	<g>
		<g>
			<circle fill="#3A2727" cx="364.833" cy="172.949" r="10.652"/>
			<circle fill="#3A2727" cx="350.601" cy="169.811" r="5.325"/>
			<circle fill="#3A2727" cx="389.406" cy="181.792" r="17.829"/>
		</g>
		<g>
			<circle fill="#6B473C" cx="363.211" cy="175.757" r="10.65"/>
			<circle fill="#6B473C" cx="348.98" cy="172.619" r="5.326"/>
			<circle fill="#6B473C" cx="389.389" cy="185.525" r="17.829"/>
		</g>
	</g>
	<g>
		<g>
			<circle fill="#3A2727" cx="373.132" cy="216.113" r="10.652"/>
			<circle fill="#3A2727" cx="360.031" cy="209.727" r="5.325"/>
			<circle fill="#3A2727" cx="394.949" cy="230.469" r="17.829"/>
		</g>
		<g>
			<circle fill="#6B473C" cx="370.898" cy="218.462" r="10.651"/>
			<circle fill="#6B473C" cx="357.797" cy="212.077" r="5.325"/>
			<circle fill="#6B473C" cx="394.057" cy="234.094" r="17.83"/>
		</g>
	</g>
	<g>
		<g>
			<path fill="#3A2727" d="M251.517,154.76c-1.07,5.785-6.628,9.607-12.409,8.539c-5.787-1.07-9.611-6.625-8.542-12.411
				c1.071-5.785,6.627-9.607,12.411-8.538C248.761,143.419,252.585,148.975,251.517,154.76z"/>
			<circle fill="#3A2727" cx="226.58" cy="154.626" r="5.326"/>
			<circle fill="#3A2727" cx="267.157" cy="152.941" r="17.829"/>
		</g>
		<g>
			<circle fill="#6B473C" cx="240.453" cy="156.012" r="10.651"/>
			<circle fill="#6B473C" cx="225.992" cy="157.813" r="5.325"/>
			<circle fill="#6B473C" cx="268.389" cy="156.466" r="17.83"/>
		</g>
	</g>
	<g>
		<g>
			<path fill="#3A2727" d="M164.492,83.028c0.098,5.883-4.592,10.73-10.471,10.829c-5.882,0.098-10.732-4.59-10.831-10.472
				c-0.096-5.882,4.591-10.73,10.473-10.828C159.543,72.459,164.393,77.147,164.492,83.028z"/>
			<circle fill="#3A2727" cx="140.023" cy="87.839" r="5.326"/>
			<circle fill="#3A2727" cx="179.462" cy="78.146" r="17.829"/>
		</g>
		<g>
			<path fill="#6B473C" d="M164.544,86.271c0.102,5.881-4.589,10.73-10.471,10.829c-5.883,0.098-10.729-4.59-10.827-10.474
				c-0.099-5.881,4.588-10.729,10.471-10.828C159.6,75.7,164.448,80.389,164.544,86.271z"/>
			<circle fill="#6B473C" cx="140.079" cy="91.08" r="5.326"/>
			<circle fill="#6B473C" cx="181.369" cy="81.356" r="17.829"/>
		</g>
	</g>
</g>
</svg>
