<?xml version="1.0" encoding="utf-8"?>
<!-- Generator: Adobe Illustrator 15.0.0, SVG Export Plug-In . SVG Version: 6.00 Build 0)  -->
<!DOCTYPE svg PUBLIC "-//W3C//DTD SVG 1.1//EN" "http://www.w3.org/Graphics/SVG/1.1/DTD/svg11.dtd">
<svg version="1.1" id="Layer_1" xmlns="http://www.w3.org/2000/svg" xmlns:xlink="http://www.w3.org/1999/xlink" x="0px" y="0px"
	 width="500px" height="500px" viewBox="0 0 500 500" enable-background="new 0 0 500 500" xml:space="preserve">
<g>
	<path fill="#EDCB48" d="M430.39,189.949C393.669,95.221,310.648,92.56,310.648,92.56c-14.899-18.094-40.978-28.205-40.978-28.205
		c19.689,9.58,36.721,28.738,36.721,28.738c-9.616-6.44-19.985-10.911-30.783-13.797l0.449-0.04c0,0-84.085-22.351-148.479,17.031
		c0,0,32.208-12.622,73.314-16.718c-31.591,6.692-61.186,19.611-81.829,30.554c-41.02,21.746-71.916,77.914-62.906,133.554
		c3.301,13.328,2.237,23.972-2.553,33.02c0,0,4.516-1.613,7.542-6.5c2.089,11.171,10.663,42.162,43.016,58.122
		c0,0-11.828-7.312-17.395-26.099c19.635,16.992,40.811,19.179,40.811,19.179c-14.369-12.772-15.966-37.783-15.966-37.783
		c4.257,21.818,11.708,25.011,11.708,25.011s-17.562-38.316-0.533-66.521c17.03-28.206,82.488-51.089,82.488-51.089
		c-31.398,29.27-61.201,32.994-61.201,32.994c60.137,3.193,112.823-22.885,112.823-22.885
		c-5.856,13.837-16.498,17.562-16.498,17.562c45.77-7.45,59.604-63.329,59.604-63.329s22.751,9.046,60.67,58.938
		c0,0-5.189-14.369-18.754-32.125c10.768,9.665,19.162,20.154,25.686,30.855c8.729,17.617,18.177,43.288,10.63,65.93
		c0,0,2.657-7.009,6.919-14.619c-0.064,8.367-0.844,35.421-7.982,50.142c0,0,7.058-8.706,12.414-18.141
		c-0.075,11.184-1.241,18.141-1.241,18.141c40.447-18.625,40.447-77.697,40.447-77.697c0.162-5.762,0.071-11.279-0.213-16.592
		c5.935,19.963,5.002,39.478,5.002,39.478C443.695,220.816,430.39,189.949,430.39,189.949z"/>
	<path fill="#DEB73E" d="M300.005,154.426c0,0-6.385,53.484-59.604,64.261c0,0,24.48-9.579,43.106-36.721
		C301.887,155.187,300.005,154.426,300.005,154.426z"/>
	<path fill="#DEB73E" d="M144.076,224.369c118.29-5.429,129.852-31.758,147.414-69.544
		C282.806,173.51,244.658,219.752,144.076,224.369z"/>
	<path fill="#EDCB48" d="M237.74,116.508c0,0,59.605-6.918,69.185-11.175c9.58-4.258-13.839,12.24-13.839,12.24L237.74,116.508z"/>
	<g>
		<path fill="#DEB73E" d="M144.076,224.01c1.139,0.061,2.27,0.091,3.403,0.131c0.406-0.35,0.819-0.701,1.236-1.051
			C145.757,223.794,144.076,224.01,144.076,224.01z"/>
		<path fill="#DEB73E" d="M237.207,165.469c0,0-10.643,14.901-96.325,40.445c-85.682,25.545-50.558,55.347-50.558,55.347
			s-6.917-13.304,13.305-26.609c12.744-8.382,17.453-11.481,19.197-12.629c-6.577,4.534-41.95,32.282-19.197,90.859
			c0.112,0.289,0.222,0.557,0.333,0.84c13.087,6.584,23.617,7.676,23.617,7.676c-14.369-12.772-15.966-37.783-15.966-37.783
			c4.257,21.818,11.708,25.011,11.708,25.011s-17.562-38.316-0.533-66.521c17.03-28.206,82.488-51.089,82.488-51.089
			S230.288,181.435,237.207,165.469z"/>
	</g>
	<g>
		<path fill="#DEB73E" d="M341.921,182.172l-0.078,2.318C341.924,183.712,341.956,182.936,341.921,182.172z"/>
		<path fill="#DEB73E" d="M402.116,305.401c-3.773-96.583-60.195-123.229-60.195-123.229c10.768,9.665,19.162,20.154,25.686,30.855
			c8.729,17.617,18.177,43.288,10.63,65.93c0,0,2.657-7.009,6.919-14.619c-0.064,8.367-0.844,35.421-7.982,50.142
			c0,0,7.058-8.706,12.414-18.141c-0.075,11.184-1.241,18.141-1.241,18.141C393.591,312.066,398.144,308.961,402.116,305.401z"/>
	</g>
	<path fill="#DEB73E" d="M407.772,299.712c0,0,36.986-77.832-13.57-144.887c0,0,24.591,16.84,34.378,65.365
		C438.372,268.713,407.772,299.712,407.772,299.712z"/>
	<path fill="#DEB73E" d="M424.003,236.782c0,0-6.919-86.747-117.081-126.66c0,0,101.116,34.592,114.422,149.543L424.003,236.782z"/>
	<path fill="#DEB73E" d="M281.378,119.17c0,0-22.353,35.655-91.004,50.558c-68.651,14.902-111.225,1.596-111.225,1.596
		S197.827,182.5,281.378,119.17z"/>
	<path fill="#DEB73E" d="M281.378,119.17c0,0-56.41,54.282-132.513,35.655C148.865,154.825,227.095,158.02,281.378,119.17z"/>
	<path fill="#DEB73E" d="M286.7,113.315c0,0-40.981-15.965-106.969,1.065c0,0,54.815-27.142,107.502-9.047
		c0,0-9.05-12.772-53.219-13.304c0,0,42.043-5.321,56.942,14.369L286.7,113.315z"/>
	<path fill="#FFFFFF" d="M281.378,119.17c0,0-25.677,35.256-63.994,47.23C217.384,166.4,269.537,152.165,281.378,119.17z"/>
	<path fill="#FFFFFF" d="M281.378,119.17c0,0-35.655-2.662-89.139,14.102C192.239,133.271,242.795,109.458,281.378,119.17z"/>
	<path fill="#FFFFFF" d="M281.378,119.17c0,0,39.916-5.323,87.279,56.41C368.657,175.58,331.4,110.656,281.378,119.17z"/>
	<path fill="#FFFFFF" d="M286.7,113.315c0,0,30.868-8.515,81.427,30.333C368.127,143.649,322.884,98.946,286.7,113.315z"/>
	<path fill="#FFFFFF" d="M397.395,309.69c0,0,6.92-55.346-16.495-113.355c0,0,24.342,53.155,21.217,109.066L397.395,309.69z"/>
	<path fill="#FFFFFF" d="M290.956,106.397c0,0,14.372-8.516,33.531-2.661C324.487,103.736,304.259,92.561,290.956,106.397z"/>
	<path fill="#FFFFFF" d="M127.578,321.398c0,0-61.731-35.656-9.578-95.26c0,0-52.687,48.428-0.533,93.131L127.578,321.398z"/>
</g>
</svg>
