<?xml version="1.0" encoding="utf-8"?>
<!-- Generator: Adobe Illustrator 15.0.0, SVG Export Plug-In . SVG Version: 6.00 Build 0)  -->
<!DOCTYPE svg PUBLIC "-//W3C//DTD SVG 1.1//EN" "http://www.w3.org/Graphics/SVG/1.1/DTD/svg11.dtd">
<svg version="1.1" id="Layer_1" xmlns="http://www.w3.org/2000/svg" xmlns:xlink="http://www.w3.org/1999/xlink" x="0px" y="0px"
	 width="500px" height="500px" viewBox="0 0 500 500" enable-background="new 0 0 500 500" xml:space="preserve">
<g>
	<path fill="#FFFFFF" d="M209.574,291.896c0,18.902-10.645,34.223-23.772,34.223c-13.131,0-23.777-15.32-23.777-34.223
		c0-18.9,10.646-34.216,23.777-34.216C198.93,257.68,209.574,272.995,209.574,291.896"/>
	<path fill="#AE5D52" d="M201.948,294.352c0,12.6-7.104,22.81-15.85,22.81c-8.757,0-15.85-10.21-15.85-22.81
		c0-12.605,7.093-22.821,15.85-22.821C194.844,271.53,201.948,281.746,201.948,294.352"/>
	<path fill="#FFFFFF" d="M337.117,291.896c0,18.902-10.644,34.223-23.776,34.223c-13.128,0-23.771-15.32-23.771-34.223
		c0-18.9,10.644-34.216,23.771-34.216C326.474,257.68,337.117,272.995,337.117,291.896"/>
	<path fill="#AE5D52" d="M329.485,294.352c0,12.6-7.099,22.81-15.851,22.81c-8.751,0-15.849-10.21-15.849-22.81
		c0-12.605,7.098-22.821,15.849-22.821C322.387,271.53,329.485,281.746,329.485,294.352"/>
	<path fill="#F4CBB3" d="M209.854,287.742c0,0-22.565,6.498-42.938-13.581C146.544,254.08,214.62,241.271,209.854,287.742z"/>
	<path fill="#F4CBB3" d="M289.638,287.742c0,0,22.564,6.498,42.937-13.581C352.947,254.08,284.87,241.271,289.638,287.742z"/>
	<path fill="#DBAE94" d="M208.76,287.756c0,0-0.338-16.885-8.105-24.651c0,0,5.065,11.481,1.688,24.651H208.76z"/>
	<path fill="#DBAE94" d="M165.873,273.235c0,0,6.417-10.807,12.157-11.481c0,0-10.469,10.13-7.092,16.547L165.873,273.235z"/>
	<path fill="#DBAE94" d="M290.143,287.756c0,0,0.338-16.885,8.104-24.651c0,0-5.065,11.481-1.688,24.651H290.143z"/>
	<path fill="#DBAE94" d="M333.029,273.235c0,0-6.416-10.807-12.156-11.481c0,0,10.468,10.13,7.091,16.547L333.029,273.235z"/>
	<path fill="#3A2727" d="M165.873,273.235c0,0-8.104,1.013-10.918-2.139c0,0,2.588,7.204,14.295,8.555c0,0-3.49,1.125-8.442,0.675
		c0,0,19.168,17.235,47.953,7.43C208.76,287.756,180.986,288.906,165.873,273.235z"/>
	<path fill="#3A2727" d="M332.918,273.235c0,0,8.104,1.013,10.918-2.139c0,0-2.588,7.204-14.295,8.555c0,0,3.488,1.125,8.441,0.675
		c0,0-19.168,17.235-47.951,7.43C290.031,287.756,317.805,288.906,332.918,273.235z"/>
</g>
</svg>
