<?xml version="1.0" encoding="utf-8"?>
<!-- Generator: Adobe Illustrator 15.0.0, SVG Export Plug-In . SVG Version: 6.00 Build 0)  -->
<!DOCTYPE svg PUBLIC "-//W3C//DTD SVG 1.1//EN" "http://www.w3.org/Graphics/SVG/1.1/DTD/svg11.dtd">
<svg version="1.1" id="Layer_1" xmlns="http://www.w3.org/2000/svg" xmlns:xlink="http://www.w3.org/1999/xlink" x="0px" y="0px"
	 width="500px" height="500px" viewBox="0 0 500 500" enable-background="new 0 0 500 500" xml:space="preserve">
<g>
	<path fill="#DEB73E" d="M67.941,191.667c0,0-16.498-25.777-38.151-11.342C8.135,194.76-6.302,225.695,17.416,255.6
		c3.577,4.509,6.555,8.422,9.023,11.876c3.756,6.941,6.214,16.025-2.58,20.862c0,0,6.805-0.345,11.613-4.866
		c2.311,7.434-0.595,11.744-5.682,18.529c0,0,44.338,4.123,45.37-63.933C76.191,170.013,67.941,191.667,67.941,191.667z"/>
	<path fill="#DEB73E" d="M425.474,191.667c0,0,16.497-25.777,38.151-11.342c21.654,14.436,36.091,45.371,12.374,75.275
		c-3.577,4.509-6.556,8.422-9.023,11.876c-3.757,6.941-6.214,16.025,2.58,20.862c0,0-6.805-0.345-11.612-4.866
		c-2.312,7.434,0.595,11.744,5.682,18.529c0,0-44.339,4.123-45.37-63.933S425.474,191.667,425.474,191.667z"/>
	<g>
		<path fill="#EDCB48" d="M429.102,183.934C393.526,92.16,313.097,89.583,313.097,89.583c-14.437-17.529-39.7-27.325-39.7-27.325
			c19.077,9.281,35.575,27.841,35.575,27.841c-9.315-6.24-19.359-10.57-29.821-13.367l0.434-0.038c0,0-81.461-21.653-143.846,16.499
			c0,0,31.204-12.229,71.027-16.196c-30.605,6.484-59.277,18.999-79.276,29.601c-39.741,21.067-69.672,75.482-60.943,129.386
			c3.197,12.914,2.167,23.224-2.473,31.991c0,0,4.375-1.564,7.306-6.3c2.023,10.825,10.331,40.847,41.673,56.31
			c0,0-11.459-7.083-16.852-25.284c19.023,16.462,39.537,18.583,39.537,18.583c-13.921-12.374-15.467-36.607-15.467-36.607
			c4.125,21.139,11.342,24.233,11.342,24.233s-17.014-37.122-0.515-64.448c16.499-27.326,79.915-49.495,79.915-49.495
			c-30.418,28.356-59.292,31.966-59.292,31.966c58.26,3.093,109.301-22.171,109.301-22.171
			c-5.671,13.404-15.982,17.014-15.982,17.014c44.34-7.219,57.745-61.353,57.745-61.353s22.041,8.764,58.775,57.1
			c0,0-5.026-13.92-18.166-31.123c10.431,9.364,18.562,19.523,24.882,29.892c8.455,17.066,17.61,41.937,10.298,63.873
			c0,0,2.576-6.792,6.706-14.164c-0.063,8.107-0.819,34.315-7.736,48.579c0,0,6.837-8.437,12.026-17.575
			c-0.071,10.836-1.199,17.575-1.199,17.575c39.182-18.043,39.184-75.273,39.184-75.273c0.155-5.583,0.069-10.928-0.205-16.075
			c5.747,19.339,4.845,38.244,4.845,38.244C441.99,213.838,429.102,183.934,429.102,183.934z"/>
		<path fill="#DEB73E" d="M302.785,149.518c0,0-6.187,51.815-57.745,62.256c0,0,23.717-9.28,41.762-35.574
			C304.607,150.256,302.785,149.518,302.785,149.518z"/>
		<path fill="#DEB73E" d="M151.721,217.277c114.599-5.258,125.801-30.767,142.815-67.372
			C286.124,168.005,249.166,212.804,151.721,217.277z"/>
		<path fill="#EDCB48" d="M242.463,112.784c0,0,57.745-6.703,67.026-10.827c9.28-4.124-13.405,11.857-13.405,11.857L242.463,112.784
			z"/>
		<g>
			<path fill="#DEB73E" d="M151.721,216.931c1.104,0.057,2.199,0.087,3.297,0.125c0.395-0.339,0.793-0.678,1.198-1.017
				C153.351,216.723,151.721,216.931,151.721,216.931z"/>
			<path fill="#DEB73E" d="M241.946,160.216c0,0-10.311,14.437-93.319,39.184c-83.008,24.748-48.979,53.619-48.979,53.619
				s-6.702-12.888,12.889-25.778c12.346-8.122,16.908-11.125,18.598-12.235c-6.372,4.393-40.641,31.273-18.598,88.025
				c0.108,0.278,0.214,0.538,0.323,0.812c12.679,6.377,22.879,7.438,22.879,7.438c-13.921-12.374-15.467-36.607-15.467-36.607
				c4.125,21.139,11.342,24.233,11.342,24.233s-17.014-37.122-0.515-64.448c16.499-27.326,79.915-49.495,79.915-49.495
				S235.245,175.684,241.946,160.216z"/>
		</g>
		<g>
			<path fill="#DEB73E" d="M343.395,176.398l-0.077,2.247C343.396,177.891,343.428,177.138,343.395,176.398z"/>
			<path fill="#DEB73E" d="M401.711,295.78c-3.655-93.567-58.316-119.382-58.316-119.382c10.431,9.364,18.562,19.523,24.882,29.892
				c8.455,17.066,17.61,41.937,10.298,63.873c0,0,2.576-6.792,6.706-14.164c-0.063,8.107-0.819,34.315-7.736,48.579
				c0,0,6.837-8.437,12.026-17.575c-0.071,10.836-1.199,17.575-1.199,17.575C393.451,302.238,397.861,299.229,401.711,295.78z"/>
		</g>
		<path fill="#DEB73E" d="M407.189,290.271c0,0,35.832-75.403-13.147-140.366c0,0,23.823,16.314,33.308,63.324
			C436.834,260.238,407.189,290.271,407.189,290.271z"/>
		<path fill="#DEB73E" d="M422.913,229.305c0,0-6.702-84.039-113.426-122.708c0,0,97.96,33.512,110.85,144.876L422.913,229.305z"/>
		<path fill="#DEB73E" d="M284.74,115.362c0,0-21.655,34.543-88.165,48.98c-66.509,14.437-107.754,1.546-107.754,1.546
			S203.795,176.716,284.74,115.362z"/>
		<path fill="#DEB73E" d="M284.74,115.362c0,0-54.651,52.588-128.379,34.543C156.361,149.905,232.15,152.999,284.74,115.362z"/>
		<path fill="#DEB73E" d="M289.895,109.69c0,0-39.7-15.466-103.631,1.031c0,0,53.106-26.295,104.147-8.765
			c0,0-8.767-12.373-51.559-12.889c0,0,40.731-5.155,55.167,13.921L289.895,109.69z"/>
		<path fill="#FFFFFF" d="M284.74,115.362c0,0-24.876,34.156-61.998,45.757C222.742,161.119,273.268,147.328,284.74,115.362z"/>
		<path fill="#FFFFFF" d="M284.74,115.362c0,0-34.544-2.578-86.36,13.663C198.38,129.024,247.359,105.954,284.74,115.362z"/>
		<path fill="#FFFFFF" d="M284.74,115.362c0,0,38.67-5.156,84.556,54.651C369.296,170.013,333.202,107.114,284.74,115.362z"/>
		<path fill="#FFFFFF" d="M289.895,109.69c0,0,29.906-8.25,78.886,29.388C368.78,139.078,324.951,95.77,289.895,109.69z"/>
		<path fill="#FFFFFF" d="M397.137,299.938c0,0,6.705-53.62-15.982-109.817c0,0,23.583,51.495,20.557,105.66L397.137,299.938z"/>
		<path fill="#FFFFFF" d="M294.02,102.988c0,0,13.922-8.25,32.482-2.578C326.502,100.41,306.907,89.583,294.02,102.988z"/>
		<path fill="#FFFFFF" d="M135.738,311.282c0,0-59.804-34.546-9.278-92.291c0,0-51.042,46.918-0.517,90.228L135.738,311.282z"/>
	</g>
	<path fill="#3A2727" d="M12.259,214.481"/>
</g>
</svg>
