<?xml version="1.0" encoding="utf-8"?>
<!-- Generator: Adobe Illustrator 15.0.0, SVG Export Plug-In . SVG Version: 6.00 Build 0)  -->
<!DOCTYPE svg PUBLIC "-//W3C//DTD SVG 1.1//EN" "http://www.w3.org/Graphics/SVG/1.1/DTD/svg11.dtd">
<svg version="1.1" id="Layer_1" xmlns="http://www.w3.org/2000/svg" xmlns:xlink="http://www.w3.org/1999/xlink" x="0px" y="0px"
	 width="500px" height="500px" viewBox="0 0 500 500" enable-background="new 0 0 500 500" xml:space="preserve">
<pattern  width="28.8" height="28.8" patternUnits="userSpaceOnUse" id="_x31_0_dpi_40_x25_" viewBox="17.28 -31.68 28.8 28.8" overflow="visible">
	<g>
		<polygon fill="none" points="17.28,-2.88 17.28,-31.68 46.08,-31.68 46.08,-2.88 		"/>
		<path fill="#231F20" d="M46.08,0c1.59,0,2.88-1.29,2.88-2.88c0-1.591-1.29-2.88-2.88-2.88c-1.591,0-2.88,1.289-2.88,2.88
			C43.2-1.29,44.489,0,46.08,0z"/>
		<path fill="#231F20" d="M31.68,0c1.59,0,2.88-1.29,2.88-2.88c0-1.591-1.29-2.88-2.88-2.88c-1.591,0-2.88,1.289-2.88,2.88
			C28.8-1.29,30.089,0,31.68,0z"/>
		<path fill="#231F20" d="M17.28,0c1.59,0,2.88-1.29,2.88-2.88c0-1.591-1.29-2.88-2.88-2.88c-1.59,0-2.88,1.289-2.88,2.88
			C14.4-1.29,15.69,0,17.28,0z"/>
		<path fill="#231F20" d="M46.08-14.4c1.59,0,2.88-1.29,2.88-2.88c0-1.591-1.29-2.88-2.88-2.88c-1.591,0-2.88,1.289-2.88,2.88
			C43.2-15.69,44.489-14.4,46.08-14.4z"/>
		<path fill="#231F20" d="M31.68-14.4c1.59,0,2.88-1.29,2.88-2.88c0-1.591-1.29-2.88-2.88-2.88c-1.591,0-2.88,1.289-2.88,2.88
			C28.8-15.69,30.089-14.4,31.68-14.4z"/>
		<path fill="#231F20" d="M17.28-14.4c1.59,0,2.88-1.29,2.88-2.88c0-1.591-1.29-2.88-2.88-2.88c-1.59,0-2.88,1.289-2.88,2.88
			C14.4-15.69,15.69-14.4,17.28-14.4z"/>
		<path fill="#231F20" d="M46.08-28.8c1.59,0,2.88-1.29,2.88-2.88c0-1.591-1.29-2.88-2.88-2.88c-1.591,0-2.88,1.289-2.88,2.88
			C43.2-30.09,44.489-28.8,46.08-28.8z"/>
		<path fill="#231F20" d="M31.68-28.8c1.59,0,2.88-1.29,2.88-2.88c0-1.591-1.29-2.88-2.88-2.88c-1.591,0-2.88,1.289-2.88,2.88
			C28.8-30.09,30.089-28.8,31.68-28.8z"/>
		<path fill="#231F20" d="M17.28-28.8c1.59,0,2.88-1.29,2.88-2.88c0-1.591-1.29-2.88-2.88-2.88c-1.59,0-2.88,1.289-2.88,2.88
			C14.4-30.09,15.69-28.8,17.28-28.8z"/>
		<path fill="#231F20" d="M2.88-28.8c1.591,0,2.88-1.29,2.88-2.88c0-1.591-1.289-2.88-2.88-2.88C1.29-34.56,0-33.271,0-31.68
			C0-30.09,1.29-28.8,2.88-28.8z"/>
		<path fill="#231F20" d="M2.88-31.68"/>
		<path fill="#231F20" d="M24.479-7.2c1.591,0,2.881-1.29,2.881-2.88c0-1.591-1.29-2.88-2.881-2.88s-2.88,1.289-2.88,2.88
			C21.6-8.49,22.889-7.2,24.479-7.2z"/>
		<path fill="#231F20" d="M38.88-7.2c1.59,0,2.88-1.29,2.88-2.88c0-1.591-1.29-2.88-2.88-2.88c-1.591,0-2.88,1.289-2.88,2.88
			C36-8.49,37.289-7.2,38.88-7.2z"/>
		<path fill="#231F20" d="M24.479-21.6c1.591,0,2.881-1.29,2.881-2.88c0-1.591-1.29-2.88-2.881-2.88s-2.88,1.289-2.88,2.88
			C21.6-22.89,22.889-21.6,24.479-21.6z"/>
		<path fill="#231F20" d="M38.88-21.6c1.59,0,2.88-1.29,2.88-2.88c0-1.591-1.29-2.88-2.88-2.88c-1.591,0-2.88,1.289-2.88,2.88
			C36-22.89,37.289-21.6,38.88-21.6z"/>
		<path fill="#231F20" d="M10.08-21.6c1.591,0,2.88-1.29,2.88-2.88c0-1.591-1.289-2.88-2.88-2.88c-1.59,0-2.88,1.289-2.88,2.88
			C7.2-22.89,8.49-21.6,10.08-21.6z"/>
		<path fill="#231F20" d="M10.08-24.48"/>
	</g>
</pattern>
<pattern  width="72" height="72" patternUnits="userSpaceOnUse" id="Plaid_1" viewBox="1.601 -73.6 72 72" overflow="visible">
	<g>
		<polygon fill="none" points="1.601,-1.6 1.601,-73.6 73.601,-73.6 73.601,-1.6 		"/>
		<line fill="none" stroke="#231F20" stroke-width="0.3" stroke-linecap="square" x1="73.601" y1="-57.6" x2="1.601" y2="-57.6"/>
		<line fill="none" stroke="#231F20" stroke-width="0.3" stroke-linecap="square" x1="73.601" y1="-21.6" x2="1.601" y2="-21.6"/>
		<line fill="none" stroke="#231F20" stroke-width="0.3" stroke-linecap="square" x1="73.601" y1="-51.6" x2="1.601" y2="-51.6"/>
		<line fill="none" stroke="#231F20" stroke-width="0.3" stroke-linecap="square" x1="73.601" y1="-15.6" x2="1.601" y2="-15.6"/>
		<line fill="none" stroke="#231F20" stroke-width="0.3" stroke-linecap="square" x1="73.601" y1="-53.6" x2="1.601" y2="-53.6"/>
		<line fill="none" stroke="#231F20" stroke-width="0.3" stroke-linecap="square" x1="73.601" y1="-17.6" x2="1.601" y2="-17.6"/>
		<line fill="none" stroke="#231F20" stroke-width="0.3" stroke-linecap="square" x1="73.601" y1="-59.6" x2="1.601" y2="-59.6"/>
		<line fill="none" stroke="#231F20" stroke-width="0.3" stroke-linecap="square" x1="73.601" y1="-23.6" x2="1.601" y2="-23.6"/>
		<line fill="none" stroke="#231F20" stroke-width="0.3" stroke-linecap="square" x1="17.601" y1="-73.6" x2="17.601" y2="-1.6"/>
		<line fill="none" stroke="#231F20" stroke-width="0.3" stroke-linecap="square" x1="53.601" y1="-73.6" x2="53.601" y2="-1.6"/>
		<line fill="none" stroke="#231F20" stroke-width="0.3" stroke-linecap="square" x1="23.601" y1="-73.6" x2="23.601" y2="-1.6"/>
		<line fill="none" stroke="#231F20" stroke-width="0.3" stroke-linecap="square" x1="59.601" y1="-73.6" x2="59.601" y2="-1.6"/>
		<line fill="none" stroke="#231F20" stroke-width="0.3" stroke-linecap="square" x1="15.601" y1="-73.6" x2="15.601" y2="-1.6"/>
		<line fill="none" stroke="#231F20" stroke-width="0.3" stroke-linecap="square" x1="51.601" y1="-73.6" x2="51.601" y2="-1.6"/>
		<line fill="none" stroke="#231F20" stroke-width="0.3" stroke-linecap="square" x1="21.601" y1="-73.6" x2="21.601" y2="-1.6"/>
		<line fill="none" stroke="#231F20" stroke-width="0.3" stroke-linecap="square" x1="57.601" y1="-73.6" x2="57.601" y2="-1.6"/>
	</g>
</pattern>
<g>
	<path fill="#9EDAF1" d="M92.875,357.222l-4.017,13.994c0,0-1.047,5.058,3.72,5.957c4.977-0.099,4.567-4.754,4.221-6.264
		L92.875,357.222z"/>
	<path fill="#010101" d="M497.424,298.544l0.367-1.821c-40.824-8.164-82.717-8.247-108.059-7.191
		c4.162-15.001,5.414-32.262,5.414-51.511c0-27.604-10.371-49.688-27.209-66.496c2.941-9.495,6.873-30.589-3.924-57.589
		c0,0-19.049-6.051-62.137,22.789c-16.879-4.221-34.84-6.3-52.831-6.3c-19.792,0-39.792,2.517-58.446,7.637
		c-44.468-30.34-64.101-24.125-64.101-24.125c-12.812,32.04-4.89,55.762-2.482,61.653c-15.059,16.25-24.253,36.998-24.253,62.433
		c0,19.202,2.186,36.429,7.526,51.404c-25.558-0.932-65.924-0.574-105.29,7.298l0.363,1.821
		c39.604-7.924,80.221-8.196,105.626-7.234c1.175,3.096,2.487,6.105,3.956,9.01c-25.124,0.811-68.02,4.01-109.129,15.608
		l0.507,1.781c41.434-11.683,84.703-14.804,109.583-15.566c15.009,27.979,44.602,46.051,97.25,51.726
		c-7.473,5.021-15.097,13.557-18.185,28c-10.182,4.87-42.417,16.76-61.756-16.505c0,0-10.826-19.793-31.548-21.344
		c0,0-20.101-0.309-1.387,12.526c0,0,13.448,6.338,22.729,30.156c0,0,12.107,40.623,70.526,27.588v41.964
		c0,0-1.236,14.843-14.842,19.788c0,0-8.04,5.566,0.622,8.655c0,0,37.718,3.094,37.718-27.823v-45.758
		c0,0-1.495-18.146,7.419-24.453v75.158c0,0-0.616,17.928-9.892,24.734c0,0-6.187,11.126,7.418,8.037c0,0,25.969-3.71,27.207-34.009
		l0.589-76.059h6.242l0.594,76.059c1.236,30.299,27.205,34.009,27.205,34.009c13.604,3.089,7.42-8.037,7.42-8.037
		c-9.275-6.807-9.893-24.734-9.893-24.734v-74.51c8.91,6.938,7.42,23.805,7.42,23.805v45.758c0,30.917,37.719,27.823,37.719,27.823
		c8.654-3.089,0.619-8.655,0.619-8.655c-13.605-4.945-14.842-19.788-14.842-19.788v-59.98c0-23.39-9.848-35.776-19.479-42.312
		c56.146-5.568,83.088-23.699,95.504-51.866c24.594,0.676,68.85,3.672,111.186,15.614l0.502-1.781
		c-42.092-11.873-86.059-14.944-110.9-15.669c1.178-2.844,2.203-5.805,3.115-8.849C414.357,290.335,456.439,290.348,497.424,298.544
		"/>
	<path fill="#F4CBB3" d="M340.23,236.72c12.092,10.955,19.166,24.186,19.166,38.44c0,66.556-49.613,68.358-110.808,68.358
		c-61.205,0-110.814-9.216-110.814-68.358c0-14.159,6.974-27.307,18.918-38.219c19.924-18.185,53.641-8.553,91.896-8.553
		C286.684,228.388,320.277,218.659,340.23,236.72"/>
	<path fill="#C4E5D9" d="M107.641,348.971c0,1.538-1.803,2.781-4.022,2.781c-2.219,0-4.022-1.243-4.022-2.781
		c0-1.539,1.803-2.786,4.022-2.786C105.838,346.185,107.641,347.432,107.641,348.971"/>
	<path fill="#C4E5D9" d="M118.774,355.153c0,1.539-1.804,2.786-4.021,2.786c-2.221,0-4.025-1.247-4.025-2.786
		c0-1.533,1.804-2.781,4.025-2.781C116.971,352.372,118.774,353.62,118.774,355.153"/>
	<path fill="#C4E5D9" d="M125.578,363.199c0,1.532-1.804,2.779-4.024,2.779c-2.218,0-4.017-1.247-4.017-2.779
		c0-1.539,1.799-2.786,4.017-2.786C123.774,360.413,125.578,361.66,125.578,363.199"/>
	<path fill="#C4E5D9" d="M131.76,372.474c0,1.539-1.797,2.788-4.016,2.788c-2.226,0-4.023-1.249-4.023-2.788
		c0-1.54,1.797-2.785,4.023-2.785C129.962,369.688,131.76,370.934,131.76,372.474"/>
	<path fill="#C4E5D9" d="M138.563,381.134c0,1.534-1.799,2.78-4.016,2.78c-2.221,0-4.025-1.246-4.025-2.78
		c0-1.538,1.804-2.785,4.025-2.785C136.764,378.349,138.563,379.596,138.563,381.134"/>
	<path fill="#C4E5D9" d="M147.845,388.553c0,1.537-1.804,2.784-4.022,2.784c-2.222,0-4.021-1.247-4.021-2.784
		c0-1.532,1.799-2.781,4.021-2.781C146.041,385.771,147.845,387.021,147.845,388.553"/>
	<path fill="#C4E5D9" d="M160.83,393.504c0,1.533-1.799,2.781-4.018,2.781c-2.226,0-4.024-1.248-4.024-2.781
		c0-1.539,1.799-2.785,4.024-2.785C159.031,390.719,160.83,391.965,160.83,393.504"/>
	<path fill="#C4E5D9" d="M173.754,393.504c0,1.533-1.797,2.781-4.016,2.781c-2.226,0-4.025-1.248-4.025-2.781
		c0-1.539,1.799-2.785,4.025-2.785C171.957,390.719,173.754,391.965,173.754,393.504"/>
	<path fill="#C4E5D9" d="M186.875,391.351c0,1.539-1.799,2.786-4.015,2.786c-2.227,0-4.025-1.247-4.025-2.786
		s1.798-2.786,4.025-2.786C185.076,388.564,186.875,389.812,186.875,391.351"/>
	<path fill="#FFFFFF" d="M211.739,278.552c0,18.332-10.324,33.19-23.056,33.19c-12.735,0-23.06-14.858-23.06-33.19
		c0-18.329,10.325-33.182,23.06-33.182C201.415,245.37,211.739,260.223,211.739,278.552"/>
	<path fill="#AE5D52" d="M204.341,278.969c0,12.221-6.889,22.121-15.372,22.121c-8.492,0-15.372-9.9-15.372-22.121
		c0-12.225,6.88-22.132,15.372-22.132C197.453,256.837,204.341,266.744,204.341,278.969"/>
	<g>
		<g opacity="0.5">
			<path fill="#272626" d="M256.799,337.202c0,0.958-0.784,1.742-1.742,1.742h-12.673c-0.958,0-1.742-0.784-1.742-1.742v-6.119
				c0-0.958,0.784-1.742,1.742-1.742h12.673c0.958,0,1.742,0.784,1.742,1.742V337.202z"/>
		</g>
		<g>
			<path fill="#FFFFFF" d="M256.799,336.331c0,0.958-0.784,1.742-1.742,1.742h-12.673c-0.958,0-1.742-0.784-1.742-1.742v-6.119
				c0-0.958,0.784-1.742,1.742-1.742h12.673c0.958,0,1.742,0.784,1.742,1.742V336.331z"/>
		</g>
	</g>
	<path fill="#FFFFFF" d="M335.436,278.552c0,18.332-10.324,33.19-23.061,33.19c-12.732,0-23.055-14.858-23.055-33.19
		c0-18.329,10.322-33.182,23.055-33.182C325.111,245.37,335.436,260.223,335.436,278.552"/>
	<polygon fill="#97A88E" points="247.411,331.306 248.721,337.855 250.904,331.741 	"/>
	<path fill="#AE5D52" d="M328.031,278.969c0,12.221-6.883,22.121-15.371,22.121s-15.371-9.9-15.371-22.121
		c0-12.225,6.883-22.132,15.371-22.132S328.031,266.744,328.031,278.969"/>
	<path fill="#AE5D52" d="M235.479,322.605c-0.341-0.967,0.167-2.021,1.126-2.362c0.967-0.34,2.027,0.166,2.365,1.127
		c1.485,4.189,5.459,7.003,9.892,7.003c4.432,0,8.405-2.813,9.891-7.003c0.342-0.967,1.398-1.467,2.365-1.127
		c0.967,0.341,1.469,1.396,1.129,2.362c-2.004,5.666-7.387,9.471-13.385,9.471S237.487,328.271,235.479,322.605"/>
	<g>
		<path fill="#F4E7D0" d="M278.42,446.805v15.017c0,0,0.469,13.507,6.66,21.523l0.352,3.197h-20.664
			c-5.566-5.03-10.557-13.089-11.08-25.958l-0.107-13.779H278.42z"/>
		<path opacity="0.2" fill="url(#_x31_0_dpi_40_x25_)" d="M278.42,446.805v15.017c0,0,0.469,13.507,6.66,21.523l0.352,3.197h-20.664
			c-5.566-5.03-10.557-13.089-11.08-25.958l-0.107-13.779H278.42z"/>
		<path fill="#3B6632" d="M280.41,459.577"/>
		<path fill="#6B473C" d="M265.129,477.591c2.619,3.711,7.637,5.677,7.637,5.677c4.369-6.55,9.609-3.93,9.609-3.93l0.492,0.508
			c1.359,2.627,3.135,5.016,5.445,6.71c0,0,6.188,11.126-7.418,8.037c0,0-14.852-2.133-22.627-16.278
			C261.51,474.203,265.129,477.591,265.129,477.591z"/>
		<path fill="#3A2727" d="M288.916,487.858c1.146,2.842,2.646,9.155-8.021,6.734c0,0-14.852-2.133-22.627-16.278
			c3.242-4.111,6.861-0.724,6.861-0.724c2.619,3.711,7.637,5.677,7.637,5.677S284.111,493.083,288.916,487.858z"/>
		<path fill="#E3BC3D" d="M282.156,481.085c0,0-5.238-1.747-7.857,3.275l1.963,1.31c0,0,1.527-3.712,6.768-3.275L282.156,481.085z"
			/>
	</g>
	<g>
		<g>
			<path fill="#3A2727" d="M227.493,288.479c-0.192-1.428-0.348-3.776-0.348-5.217c0,0,0-7.86,0-12.663
				c0-10.045-17.032-17.905-32.316-17.905c-15.282,0-55.917,5.338-55.917,5.338c-1.428,0.187-2.597,1.521-2.597,2.96v5.24
				c0,1.44,1.066,3.122,2.37,3.735l2.683,1.262c1.303,0.614,2.697,2.248,3.096,3.634c0,0,5.824,20.189,16.523,30.886
				c8.515,8.517,15.065,9.391,27.728,9.391C231.073,315.14,227.493,288.479,227.493,288.479z M192.646,311.211
				c-29.693,1.745-36.244-21.397-36.244-21.397c-15.721-29.259,8.296-31.441,8.296-31.441c38.864-5.24,43.23,0,43.23,0
				s16.593,3.492,16.593,20.96C224.522,295.49,222.339,309.463,192.646,311.211z"/>
			<path opacity="0.3" fill="#FFFFFF" d="M207.929,258.372c0,0-4.366-5.24-43.23,0c0,0-24.017,2.183-8.296,31.441
				c0,0,6.551,23.143,36.244,21.397c29.693-1.748,31.876-15.721,31.876-31.879C224.522,261.864,207.929,258.372,207.929,258.372z"/>
			<path opacity="0.5" fill="#3A2727" d="M164.698,262.304c38.864-5.241,43.23,0,43.23,0s15.93,3.362,16.565,19.94
				c0.02-0.959,0.028-1.932,0.028-2.912c0-17.468-16.593-20.96-16.593-20.96s-4.366-5.24-43.23,0c0,0-14.963,1.374-13.52,16.355
				C152.448,263.424,164.698,262.304,164.698,262.304z"/>
			<path opacity="0.5" fill="#FFFFFF" d="M164.698,258.372c0,0-0.339,0.033-0.897,0.133l-12.661,12.661
				c-0.159,1.78-0.036,3.817,0.427,6.122l19.748-19.748C169.228,257.784,167.029,258.058,164.698,258.372z"/>
			<path opacity="0.5" fill="#FFFFFF" d="M178.618,256.789l-25.599,25.598c0.824,2.26,1.932,4.726,3.383,7.427
				c0,0,0.863,3.022,3.354,6.798l40.287-40.286C195.664,255.918,188.921,255.864,178.618,256.789z"/>
		</g>
		<g>
			<path fill="#3A2727" d="M316.322,315.14c12.66,0,19.213-0.874,27.727-9.391c10.697-10.696,16.525-30.886,16.525-30.886
				c0.398-1.386,1.791-3.02,3.096-3.634l2.68-1.262c1.305-0.613,2.373-2.295,2.373-3.735v-5.24c0-1.439-1.17-2.773-2.598-2.96
				c0,0-40.633-5.338-55.916-5.338c-15.285,0-32.316,7.86-32.316,17.905c0,4.803,0,12.663,0,12.663c0,1.44-0.154,3.789-0.348,5.217
				C277.545,288.479,273.963,315.14,316.322,315.14z M280.512,279.332c0-17.468,16.598-20.96,16.598-20.96s4.363-5.24,43.23,0
				c0,0,24.016,2.183,8.295,31.441c0,0-6.549,23.143-36.244,21.397C282.699,309.463,280.512,295.49,280.512,279.332z"/>
			<path opacity="0.3" fill="#FFFFFF" d="M297.109,258.372c0,0,4.363-5.24,43.23,0c0,0,24.016,2.183,8.295,31.441
				c0,0-6.549,23.143-36.244,21.397c-29.691-1.748-31.879-15.721-31.879-31.879C280.512,261.864,297.109,258.372,297.109,258.372z"
				/>
			<path opacity="0.5" fill="#3A2727" d="M340.34,262.304c-38.867-5.241-43.23,0-43.23,0s-15.932,3.362-16.564,19.94
				c-0.021-0.959-0.033-1.932-0.033-2.912c0-17.468,16.598-20.96,16.598-20.96s4.363-5.24,43.23,0c0,0,14.963,1.374,13.518,16.355
				C352.59,263.424,340.34,262.304,340.34,262.304z"/>
			<path opacity="0.5" fill="#FFFFFF" d="M340.34,258.372c0,0,0.338,0.033,0.895,0.133l12.664,12.661
				c0.158,1.78,0.035,3.817-0.428,6.122l-19.746-19.748C335.811,257.784,338.008,258.058,340.34,258.372z"/>
			<path opacity="0.5" fill="#FFFFFF" d="M326.418,256.789l25.598,25.598c-0.822,2.26-1.932,4.726-3.381,7.427
				c0,0-0.861,3.022-3.354,6.798l-40.287-40.286C309.371,255.918,316.117,255.864,326.418,256.789z"/>
		</g>
		<path fill="#3A2727" d="M227.034,268.307c0,0,1.965,2.948,5.24,2.948s5.894-4.585,20.304-4.585s18.012,5.567,20.633,5.567
			c2.619,0,5.24-3.931,5.24-3.931l-0.654,16.703c0,0-7.533-14.737-26.201-14.737c-18.667,0-24.562,15.064-24.562,15.064V268.307z"/>
		<path fill="#3A2727" d="M231.153,277.806c0,0,2.665,1.638,1.48,7.531c-1.183,5.895-8.875,16.376-8.875,16.376l3.847-23.907
			H231.153z"/>
		<path fill="#3A2727" d="M274.012,277.806c0,0-2.664,1.638-1.482,7.531c1.186,5.895,8.877,16.376,8.877,16.376l-3.844-23.907
			H274.012z"/>
	</g>
	<path fill="#65994B" d="M309.258,456.254v-59.98c0-20.006-7.205-31.942-15.316-39.073l-4.162-3.239l-40.186,4.612l-39.956-4.125
		l-2.924,2.009c-6.267,5.211-12.129,13.192-14.742,25.411c-10.182,4.87-42.417,16.76-61.756-16.505c0,0-2.352-4.292-6.952-9.036
		l-12.718,12.72c3.2,4.383,6.54,10.149,9.464,17.655c0,0,12.107,40.623,70.526,27.588v41.964c0,0-0.174,2.09-1.11,4.962h24.312
		c0.179-1.375,0.296-2.804,0.296-4.342v-45.758c0,0-1.495-18.146,7.419-24.453v2.486l25.291-0.576l0.031-4.048h2.819v-3.877
		l28.749,7.1v-0.437c0.254,0.198,0.496,0.405,0.732,0.617c8.092,7.269,6.688,23.188,6.688,23.188v45.758
		c0,1.538,0.117,2.967,0.295,4.342h24.312C309.432,458.344,309.258,456.254,309.258,456.254z"/>
	<path opacity="0.6" fill="url(#Plaid_1)" d="M309.258,456.254v-59.98c0-20.006-7.205-31.942-15.316-39.073l-4.162-3.239
		l-40.186,4.612l-39.956-4.125l-2.924,2.009c-6.267,5.211-12.129,13.192-14.742,25.411c-10.182,4.87-42.417,16.76-61.756-16.505
		c0,0-2.352-4.292-6.952-9.036l-12.718,12.72c3.2,4.383,6.54,10.149,9.464,17.655c0,0,12.107,40.623,70.526,27.588v41.964
		c0,0-0.174,2.09-1.11,4.962h24.312c0.179-1.375,0.296-2.804,0.296-4.342v-45.758c0,0-1.495-18.146,7.419-24.453v2.486l25.291-0.576
		l0.031-4.048h2.819v-3.877l28.749,7.1v-0.437c0.254,0.198,0.496,0.405,0.732,0.617c8.092,7.269,6.688,23.188,6.688,23.188v45.758
		c0,1.538,0.117,2.967,0.295,4.342h24.312C309.432,458.344,309.258,456.254,309.258,456.254z"/>
	<polygon fill="#3B6632" points="123.263,356.327 132.347,365.257 115.317,381.304 110.545,369.047 	"/>
	<polygon fill="#3B6632" points="189.425,461.216 187.368,445.496 216.516,445.496 213.736,461.216 	"/>
	<polygon fill="#3B6632" points="285.711,461.216 283.654,445.496 312.803,445.496 310.021,461.216 	"/>
	<path fill="#3B6632" d="M189.987,407.832c-0.655-14.084,1.984-25.964,1.984-25.964c-1.293,0.619-2.949,1.35-4.883,2.092
		C187.538,393.375,189.987,407.832,189.987,407.832z"/>
	<polygon fill="#6B473C" points="229.112,380.321 229.112,361 233.286,361 233.286,381.304 	"/>
	<polygon fill="#6B473C" points="267.537,380.321 267.537,361 271.715,361 271.715,381.304 	"/>
	<polygon fill="#3B6632" points="209.638,354.448 249.593,358.573 237.606,365.584 	"/>
	<polygon fill="#3B6632" points="288.24,354.448 248.284,358.573 260.271,365.584 	"/>
	<path fill="#3B6632" d="M219.463,459.577"/>
	<path fill="#4999C3" d="M221.452,448.443h24.829l0.494-57.969h6.242l0.5,57.969h24.826v-61.132
		c0.254,0.198,0.496,0.405,0.732,0.617l-0.006-0.073v-8.516h-57.641v6.55l-0.136,0.896c0.054-0.038,0.104-0.084,0.16-0.123V448.443z
		"/>
	<g>
		<path fill="#F4E7D0" d="M221.452,446.805v15.017c0,0-0.469,13.507-6.658,21.523l-0.352,3.197h20.665
			c5.563-5.03,10.555-13.089,11.079-25.958l0.108-13.779H221.452z"/>
		<path opacity="0.2" fill="url(#_x31_0_dpi_40_x25_)" d="M221.452,446.805v15.017c0,0-0.469,13.507-6.658,21.523l-0.352,3.197
			h20.665c5.563-5.03,10.555-13.089,11.079-25.958l0.108-13.779H221.452z"/>
		<path fill="#6B473C" d="M234.746,477.591c-2.621,3.711-7.64,5.677-7.64,5.677c-4.367-6.55-9.607-3.93-9.607-3.93l-0.494,0.508
			c-1.36,2.627-3.132,5.016-5.444,6.71c0,0-6.187,11.126,7.418,8.037c0,0,14.851-2.133,22.627-16.278
			C238.363,474.203,234.746,477.591,234.746,477.591z"/>
		<path fill="#3A2727" d="M210.957,487.858c-1.147,2.842-2.646,9.155,8.022,6.734c0,0,14.851-2.133,22.627-16.278
			c-3.243-4.111-6.86-0.724-6.86-0.724c-2.621,3.711-7.64,5.677-7.64,5.677S215.762,493.083,210.957,487.858z"/>
		<path fill="#E3BC3D" d="M217.716,481.085c0,0,5.24-1.747,7.859,3.275l-1.964,1.31c0,0-1.528-3.712-6.768-3.275L217.716,481.085z"
			/>
	</g>
	<g>
		<g opacity="0.5">
			<rect x="220.555" y="439.199" fill="#272626" width="26.855" height="12.009"/>
		</g>
		<g>
			<rect x="220.555" y="437.199" fill="#7FBCE7" width="26.855" height="12.009"/>
		</g>
	</g>
	<g>
		<g opacity="0.5">
			<rect x="252.432" y="439.199" fill="#272626" width="26.857" height="12.009"/>
		</g>
		<g>
			<rect x="252.432" y="437.199" fill="#7FBCE7" width="26.857" height="12.009"/>
		</g>
	</g>
	<path fill="#508694" d="M232.563,384.251c0,0-1.31,13.102-8.843,14.411c0,0,8.188,1.312,11.135-13.754L232.563,384.251z"/>
	<path fill="#508694" d="M266.295,384.251c0,0,1.312,13.102,8.844,14.411c0,0-8.189,1.312-11.133-13.754L266.295,384.251z"/>
	<rect x="221.428" y="379.34" fill="#6B473C" width="57.641" height="5.568"/>
	<rect x="245.009" y="378.684" fill="#E3BC3D" width="9.823" height="7.206"/>
	<polygon fill="#3B6632" points="221.428,379.34 221.428,367.986 216.405,392.439 221.452,386.663 	"/>
	<polygon fill="#3B6632" points="278.438,380.648 278.438,369.297 283.459,393.748 278.414,387.974 	"/>
	<path fill="#AE5D52" d="M254.676,308.029c0,3.188-2.578,5.767-5.763,5.767c-3.186,0-5.767-2.579-5.767-5.767
		c0-3.188,2.581-5.767,5.767-5.767C252.098,302.263,254.676,304.841,254.676,308.029"/>
	<g>
		<path fill="#AC1F25" d="M236.332,350.992c1.461-1.463,12.878,5.604,12.878,7.435c0,1.83-11.593,8.721-12.878,7.434
			C235.045,364.575,234.869,352.452,236.332,350.992z"/>
		<path fill="#AC1F25" d="M261.971,365.822c-1.463,1.46-12.878-5.604-12.878-7.436c0-1.831,11.591-8.721,12.878-7.436
			C263.256,352.237,263.434,364.359,261.971,365.822z"/>
		<rect x="247.434" y="356.309" fill="#84181A" width="3.607" height="4.18"/>
	</g>
</g>
<path display="none" fill="#020202" d="M498.979,297.646l0.369-1.834c-41.115-8.221-83.309-8.305-108.834-7.242
	c4.192-15.108,5.453-32.492,5.453-51.879c0-27.804-10.443-50.046-27.404-66.973c2.965-9.564,6.923-30.81-3.952-58.004
	c0,0-19.187-6.093-62.581,22.953c-16.998-4.25-35.09-6.347-53.209-6.347c-19.936,0-40.079,2.537-58.865,7.692
	c-44.786-30.558-64.561-24.298-64.561-24.298c-12.903,32.269-4.925,56.162-2.501,62.096c-15.166,16.367-24.427,37.263-24.427,62.881
	c0,19.341,2.202,36.689,7.579,51.771c-25.74-0.937-66.396-0.576-106.045,7.353l0.366,1.832c39.887-7.978,80.796-8.254,106.383-7.285
	c1.185,3.119,2.505,6.149,3.985,9.074c-25.304,0.817-68.507,4.041-109.912,15.722l0.511,1.795
	c41.731-11.767,85.311-14.911,110.369-15.679c15.118,28.182,44.922,46.381,97.948,52.097c-7.525,5.058-15.205,13.653-18.314,28.202
	c-10.256,4.904-42.722,16.879-62.201-16.623c0,0-10.901-19.938-31.773-21.497c0,0-20.244-0.312-1.396,12.614
	c0,0,13.544,6.386,22.892,30.373c0,0,12.193,40.914,71.03,27.787v42.266c0,0-1.244,14.949-14.948,19.928
	c0,0-8.097,5.607,0.626,8.718c0,0,37.989,3.115,37.989-28.021v-46.087c0,0-1.507-18.276,7.471-24.627v75.694
	c0,0-0.619,18.061-9.962,24.912c0,0-6.231,11.207,7.472,8.097c0,0,26.156-3.735,27.403-34.253l0.592-64.676h6.288l0.598,64.676
	c1.244,30.518,27.4,34.253,27.4,34.253c13.699,3.11,7.473-8.097,7.473-8.097c-9.342-6.853-9.963-24.912-9.963-24.912v-75.042
	c8.974,6.987,7.472,23.975,7.472,23.975v46.087c0,31.138,37.99,28.021,37.99,28.021c8.716-3.109,0.625-8.718,0.625-8.718
	c-13.703-4.979-14.949-19.928-14.949-19.928V396.08c0-23.559-9.919-36.032-19.62-42.616c56.551-5.606,83.687-23.868,96.189-52.237
	c24.771,0.681,69.344,3.698,111.984,15.727l0.506-1.795c-42.395-11.958-86.678-15.053-111.696-15.78
	c1.186-2.864,2.219-5.846,3.139-8.912C415.317,289.379,457.698,289.391,498.979,297.646"/>
<line display="none" fill="none" stroke="#AE5D52" stroke-width="3" stroke-linecap="round" x1="234.834" y1="326.317" x2="262.168" y2="326.317"/>
<path display="none" fill="#AE5D52" d="M251.647,320.025c-1.897,0-3.329,2.638-3.513,3.367c-0.184-0.729-1.635-3.367-3.512-3.367
	c-3.841,0-4.88,3.484-4.03,6.496c0.973,3.449,6.728,5.578,7.499,5.849v0.03c0,0,0.018-0.006,0.044-0.016
	c0.026,0.01,0.044,0.016,0.044,0.016v-0.03c0.77-0.271,6.525-2.399,7.499-5.849C256.526,323.51,255.487,320.025,251.647,320.025z"/>
<path display="none" fill="#AE5D52" d="M255.047,326.883c0,2.432-3.969,2.4-6.4,2.4c-2.433,0-6.402,0.031-6.402-2.4
	c0-2.434,3.97-4.402,6.402-4.402C251.078,322.48,255.047,324.449,255.047,326.883"/>
<g display="none">
	<g display="inline">
		<g>
			<circle opacity="0.4" fill="#FFFFFF" cx="189.483" cy="277.972" r="39.928"/>
			<g opacity="0.5">
				<path fill="#FFFFFF" d="M189.482,314.861c-21.542,0-39.09-17.062-39.89-38.409c-0.019,0.506-0.038,1.01-0.038,1.52
					c0,22.052,17.876,39.929,39.928,39.929c22.053,0,39.928-17.877,39.928-39.929c0-0.51-0.019-1.014-0.038-1.52
					C228.573,297.799,211.025,314.861,189.482,314.861z"/>
			</g>
			<g opacity="0.5">
				<path fill="#B0B2B3" d="M189.483,242.6c21.542,0,39.089,17.063,39.889,38.409c0.019-0.503,0.038-1.009,0.038-1.518
					c0-22.053-17.875-39.929-39.927-39.929c-22.053,0-39.929,17.876-39.929,39.929c0,0.509,0.019,1.015,0.038,1.518
					C150.393,259.663,167.94,242.6,189.483,242.6z"/>
			</g>
			<path opacity="0.5" fill="#FFFFFF" d="M189.482,238.043c-1.39,0-2.763,0.072-4.116,0.211l-35.602,35.602
				c-0.137,1.354-0.21,2.727-0.21,4.116c0,0.64,0.019,1.272,0.048,1.904l41.785-41.785
				C190.756,238.062,190.122,238.043,189.482,238.043z"/>
			<path opacity="0.5" fill="#FFFFFF" d="M149.963,283.64c0.679,4.783,2.2,9.296,4.417,13.376l54.148-54.146
				c-4.082-2.218-8.593-3.738-13.376-4.418L149.963,283.64z"/>
		</g>
		<g>
			<g opacity="0.5">
				<path fill="#FFFFFF" d="M189.482,316.163c-21.542,0-39.09-17.062-39.89-38.409c-0.019,0.506-0.038,1.01-0.038,1.52
					c0,22.052,17.876,39.929,39.928,39.929c22.053,0,39.928-17.877,39.928-39.929c0-0.51-0.019-1.014-0.038-1.52
					C228.573,299.102,211.025,316.163,189.482,316.163z"/>
			</g>
			<g opacity="0.5">
				<path fill="#B0B2B3" d="M189.483,243.902c21.542,0,39.089,17.063,39.889,38.41c0.019-0.504,0.038-1.01,0.038-1.519
					c0-22.053-17.875-39.929-39.927-39.929c-22.053,0-39.929,17.876-39.929,39.929c0,0.509,0.019,1.015,0.038,1.519
					C150.393,260.965,167.94,243.902,189.483,243.902z"/>
			</g>
			<path opacity="0.2" fill="#FFFFFF" d="M189.482,238.043c-1.39,0-2.763,0.072-4.116,0.211l-35.602,35.602
				c-0.137,1.354-0.21,2.727-0.21,4.116c0,0.64,0.019,1.272,0.048,1.904l41.785-41.785
				C190.756,238.062,190.122,238.043,189.482,238.043z"/>
			<path opacity="0.2" fill="#FFFFFF" d="M149.963,283.64c0.679,4.783,2.2,9.296,4.417,13.376l54.148-54.146
				c-4.082-2.218-8.593-3.738-13.376-4.418L149.963,283.64z"/>
		</g>
		<path fill="none" stroke="#454545" stroke-width="3" d="M189.482,314.861c21.542,0,39.089-17.061,39.89-38.405
			c-0.798-21.348-18.346-38.413-39.89-38.413c-21.543,0-39.092,17.065-39.89,38.413
			C150.395,297.801,167.942,314.861,189.482,314.861z"/>
	</g>
	<g display="inline">
		<g>
			<circle opacity="0.4" fill="#FFFFFF" cx="313.174" cy="277.972" r="39.927"/>
			<g opacity="0.5">
				<path fill="#FFFFFF" d="M313.174,314.861c-21.541,0-39.091-17.062-39.889-38.409c-0.021,0.506-0.038,1.01-0.038,1.52
					c0,22.052,17.874,39.929,39.927,39.929s39.928-17.877,39.928-39.929c0-0.51-0.018-1.014-0.038-1.52
					C352.265,297.799,334.716,314.861,313.174,314.861z"/>
			</g>
			<g opacity="0.5">
				<path fill="#B0B2B3" d="M313.174,242.6c21.542,0,39.091,17.063,39.89,38.409c0.021-0.503,0.038-1.009,0.038-1.518
					c0-22.053-17.875-39.929-39.928-39.929s-39.927,17.876-39.927,39.929c0,0.509,0.018,1.015,0.038,1.518
					C274.083,259.663,291.633,242.6,313.174,242.6z"/>
			</g>
			<path opacity="0.5" fill="#FFFFFF" d="M313.174,238.043c-1.391,0-2.764,0.072-4.117,0.211l-35.602,35.602
				c-0.137,1.354-0.208,2.727-0.208,4.116c0,0.64,0.018,1.272,0.048,1.904l41.784-41.785
				C314.448,238.062,313.812,238.043,313.174,238.043z"/>
			<path opacity="0.5" fill="#FFFFFF" d="M273.653,283.64c0.68,4.783,2.2,9.296,4.418,13.376l54.147-54.146
				c-4.082-2.218-8.593-3.738-13.376-4.418L273.653,283.64z"/>
		</g>
		<g>
			<g opacity="0.5">
				<path fill="#FFFFFF" d="M313.174,316.163c-21.541,0-39.091-17.062-39.889-38.409c-0.021,0.506-0.038,1.01-0.038,1.52
					c0,22.052,17.874,39.929,39.927,39.929s39.928-17.877,39.928-39.929c0-0.51-0.018-1.014-0.038-1.52
					C352.265,299.102,334.716,316.163,313.174,316.163z"/>
			</g>
			<g opacity="0.5">
				<path fill="#B0B2B3" d="M313.174,243.902c21.542,0,39.091,17.063,39.89,38.41c0.021-0.504,0.038-1.01,0.038-1.519
					c0-22.053-17.875-39.929-39.928-39.929s-39.927,17.876-39.927,39.929c0,0.509,0.018,1.015,0.038,1.519
					C274.083,260.965,291.633,243.902,313.174,243.902z"/>
			</g>
			<path opacity="0.2" fill="#FFFFFF" d="M313.174,238.043c-1.391,0-2.764,0.072-4.117,0.211l-35.602,35.602
				c-0.137,1.354-0.208,2.727-0.208,4.116c0,0.64,0.018,1.272,0.048,1.904l41.784-41.785
				C314.448,238.062,313.812,238.043,313.174,238.043z"/>
			<path opacity="0.2" fill="#FFFFFF" d="M273.653,283.64c0.68,4.783,2.2,9.296,4.418,13.376l54.147-54.146
				c-4.082-2.218-8.593-3.738-13.376-4.418L273.653,283.64z"/>
		</g>
		<path fill="none" stroke="#454545" stroke-width="3" d="M313.174,314.861c21.542,0,39.089-17.061,39.89-38.405
			c-0.799-21.348-18.345-38.413-39.89-38.413c-21.544,0-39.093,17.065-39.889,38.413
			C274.086,297.801,291.633,314.861,313.174,314.861z"/>
	</g>
	<path display="inline" fill="none" stroke="#454545" stroke-width="6" d="M229.373,276.456c0,0,6.98-3.906,22.606-3.906
		c15.625,0,21.269,3.906,21.269,3.906"/>
</g>
<g display="none">
	<g display="inline">
		<path fill="#3A2727" d="M226.493,288.479c-0.192-1.428-0.348-3.776-0.348-5.217c0,0,0-7.86,0-12.663
			c0-10.045-17.032-17.905-32.316-17.905c-15.282,0-55.917,5.338-55.917,5.338c-1.428,0.187-2.597,1.521-2.597,2.96v5.24
			c0,1.44,1.066,3.122,2.37,3.735l2.683,1.262c1.303,0.614,2.697,2.248,3.096,3.634c0,0,5.824,20.189,16.523,30.886
			c8.515,8.517,15.065,9.391,27.728,9.391C230.073,315.14,226.493,288.479,226.493,288.479z M191.646,311.211
			c-29.693,1.745-36.244-21.397-36.244-21.397c-15.721-29.259,8.296-31.441,8.296-31.441c38.864-5.24,43.23,0,43.23,0
			s16.593,3.492,16.593,20.96C223.522,295.49,221.339,309.463,191.646,311.211z"/>
		<path opacity="0.3" fill="#FFFFFF" d="M206.929,258.372c0,0-4.366-5.24-43.23,0c0,0-24.017,2.183-8.296,31.441
			c0,0,6.551,23.143,36.244,21.397c29.693-1.748,31.876-15.721,31.876-31.879C223.522,261.864,206.929,258.372,206.929,258.372z"/>
		<path opacity="0.5" fill="#3A2727" d="M163.698,262.304c38.864-5.241,43.23,0,43.23,0s15.93,3.362,16.565,19.94
			c0.02-0.959,0.028-1.932,0.028-2.912c0-17.468-16.593-20.96-16.593-20.96s-4.366-5.24-43.23,0c0,0-14.963,1.374-13.52,16.355
			C151.448,263.424,163.698,262.304,163.698,262.304z"/>
		<path opacity="0.5" fill="#FFFFFF" d="M163.698,258.372c0,0-0.339,0.033-0.897,0.133l-12.661,12.661
			c-0.159,1.78-0.036,3.817,0.427,6.122l19.748-19.748C168.228,257.784,166.029,258.058,163.698,258.372z"/>
		<path opacity="0.5" fill="#FFFFFF" d="M177.618,256.789l-25.599,25.598c0.824,2.26,1.932,4.726,3.383,7.427
			c0,0,0.863,3.022,3.354,6.798l40.287-40.286C194.664,255.918,187.921,255.864,177.618,256.789z"/>
	</g>
	<g display="inline">
		<path fill="#3A2727" d="M315.322,315.14c12.66,0,19.213-0.874,27.727-9.391c10.697-10.696,16.525-30.886,16.525-30.886
			c0.398-1.386,1.791-3.02,3.096-3.634l2.68-1.262c1.305-0.613,2.373-2.295,2.373-3.735v-5.24c0-1.439-1.17-2.773-2.598-2.96
			c0,0-40.633-5.338-55.916-5.338c-15.285,0-32.316,7.86-32.316,17.905c0,4.803,0,12.663,0,12.663c0,1.44-0.154,3.789-0.348,5.217
			C276.545,288.479,272.963,315.14,315.322,315.14z M279.512,279.332c0-17.468,16.598-20.96,16.598-20.96s4.363-5.24,43.23,0
			c0,0,24.016,2.183,8.295,31.441c0,0-6.549,23.143-36.244,21.397C281.699,309.463,279.512,295.49,279.512,279.332z"/>
		<path opacity="0.3" fill="#FFFFFF" d="M296.109,258.372c0,0,4.363-5.24,43.23,0c0,0,24.016,2.183,8.295,31.441
			c0,0-6.549,23.143-36.244,21.397c-29.691-1.748-31.879-15.721-31.879-31.879C279.512,261.864,296.109,258.372,296.109,258.372z"/>
		<path opacity="0.5" fill="#3A2727" d="M339.34,262.304c-38.867-5.241-43.23,0-43.23,0s-15.932,3.362-16.564,19.94
			c-0.021-0.959-0.033-1.932-0.033-2.912c0-17.468,16.598-20.96,16.598-20.96s4.363-5.24,43.23,0c0,0,14.963,1.374,13.518,16.355
			C351.59,263.424,339.34,262.304,339.34,262.304z"/>
		<path opacity="0.5" fill="#FFFFFF" d="M339.34,258.372c0,0,0.338,0.033,0.895,0.133l12.664,12.661
			c0.158,1.78,0.035,3.817-0.428,6.122l-19.746-19.748C334.811,257.784,337.008,258.058,339.34,258.372z"/>
		<path opacity="0.5" fill="#FFFFFF" d="M325.418,256.789l25.598,25.598c-0.822,2.26-1.932,4.726-3.381,7.427
			c0,0-0.861,3.022-3.354,6.798l-40.287-40.286C308.371,255.918,315.117,255.864,325.418,256.789z"/>
	</g>
	<path display="inline" fill="#3A2727" d="M226.034,268.307c0,0,1.965,2.948,5.24,2.948s5.894-4.585,20.304-4.585
		s18.012,5.567,20.633,5.567c2.619,0,5.24-3.931,5.24-3.931l-0.654,16.703c0,0-7.533-14.737-26.201-14.737
		c-18.667,0-24.562,15.064-24.562,15.064V268.307z"/>
	<path display="inline" fill="#3A2727" d="M230.153,277.806c0,0,2.665,1.638,1.48,7.531c-1.183,5.895-8.875,16.376-8.875,16.376
		l3.847-23.907H230.153z"/>
	<path display="inline" fill="#3A2727" d="M273.012,277.806c0,0-2.664,1.638-1.482,7.531c1.186,5.895,8.877,16.376,8.877,16.376
		l-3.844-23.907H273.012z"/>
</g>
<path fill="#F4CBB3" d="M340.23,236.72c12.092,10.954,19.166,24.186,19.166,38.44c0,66.556-49.613,68.358-110.808,68.358
	c-61.205,0-110.814-9.216-110.814-68.358c0-14.159,6.974-27.307,18.918-38.219c19.924-18.185,53.641-8.553,91.896-8.553
	C286.684,228.388,320.277,218.659,340.23,236.72"/>
<path fill="#AE5D52" d="M254.676,308.029c0,3.188-2.578,5.767-5.763,5.767c-3.186,0-5.767-2.579-5.767-5.767
	c0-3.188,2.581-5.767,5.767-5.767C252.098,302.263,254.676,304.841,254.676,308.029"/>
</svg>
