<?xml version="1.0" encoding="utf-8"?>
<!-- Generator: Adobe Illustrator 15.0.0, SVG Export Plug-In . SVG Version: 6.00 Build 0)  -->
<!DOCTYPE svg PUBLIC "-//W3C//DTD SVG 1.1//EN" "http://www.w3.org/Graphics/SVG/1.1/DTD/svg11.dtd">
<svg version="1.1" id="Layer_1" xmlns="http://www.w3.org/2000/svg" xmlns:xlink="http://www.w3.org/1999/xlink" x="0px" y="0px"
	 width="500px" height="500px" viewBox="0 0 500 500" enable-background="new 0 0 500 500" xml:space="preserve">
<g>
	<path fill="#FFFFFF" d="M208.224,286.492c0,18.902-10.645,34.223-23.772,34.223c-13.13,0-23.777-15.32-23.777-34.223
		c0-18.9,10.646-34.215,23.777-34.215C197.579,252.277,208.224,267.592,208.224,286.492"/>
	<path fill="#AE5D52" d="M200.597,288.948c0,12.6-7.103,22.81-15.85,22.81c-8.756,0-15.851-10.21-15.851-22.81
		c0-12.605,7.094-22.82,15.851-22.82C193.494,266.128,200.597,276.343,200.597,288.948"/>
	<path fill="#FFFFFF" d="M335.767,286.492c0,18.902-10.644,34.223-23.776,34.223c-13.128,0-23.771-15.32-23.771-34.223
		c0-18.9,10.644-34.215,23.771-34.215C325.123,252.277,335.767,267.592,335.767,286.492"/>
	<path fill="#AE5D52" d="M328.135,288.948c0,12.6-7.099,22.81-15.851,22.81c-8.751,0-15.85-10.21-15.85-22.81
		c0-12.605,7.099-22.82,15.85-22.82C321.036,266.128,328.135,276.343,328.135,288.948"/>
	<path fill="#F4CBB3" d="M160.913,281.677h47.072c-1.627-16.617-11.542-29.399-23.534-29.399
		C172.457,252.277,162.541,265.06,160.913,281.677z"/>
	<path fill="#DBAE94" d="M194.15,255.282c5.314,4.586,9.131,12.737,10.019,22.343h-39.777c0.828-8.959,4.207-16.651,8.97-21.369
		c-6.597,5.022-11.365,14.359-12.448,25.421h47.072C206.828,269.853,201.462,259.999,194.15,255.282z"/>
	<path fill="#F4CBB3" d="M285.077,281.677h52.68c0,0,3.377-30.392-29.717-33.769C274.947,244.531,285.077,281.677,285.077,281.677z"
		/>
	<path fill="#DBAE94" d="M321.573,255.282c5.314,4.586,9.131,12.737,10.019,22.343h-39.777c0.828-8.959,4.206-16.651,8.97-21.369
		c-6.597,5.022-11.365,14.359-12.448,25.421h47.072C334.251,269.853,328.885,259.999,321.573,255.282z"/>
</g>
</svg>
