<?xml version="1.0" encoding="utf-8"?>
<!-- Generator: Adobe Illustrator 15.0.0, SVG Export Plug-In . SVG Version: 6.00 Build 0)  -->
<!DOCTYPE svg PUBLIC "-//W3C//DTD SVG 1.1//EN" "http://www.w3.org/Graphics/SVG/1.1/DTD/svg11.dtd">
<svg version="1.1" id="Layer_1" xmlns="http://www.w3.org/2000/svg" xmlns:xlink="http://www.w3.org/1999/xlink" x="0px" y="0px"
	 width="500px" height="500px" viewBox="0 0 500 500" enable-background="new 0 0 500 500" xml:space="preserve">
<g>
	<path fill="#C35C28" d="M374.025,148.87c-49.776-32.507-107.488-41.311-111.095-70.433c0,0,2.164,20.317,7.934,26.413
		c0,0-16.19-21.879-20.557-47.069h0.271c-4.368,25.19-21.915,47.069-21.915,47.069c5.771-6.095,7.936-26.413,7.936-26.413
		c-3.607,29.122-61.32,37.925-111.096,70.433c-49.778,32.509-29.579,111.069-29.579,111.069
		c6.493,36.569,20.199,46.729,20.199,46.729c-12.263-46.729-6.958-85.749,12.264-104.295c25.971-25.058,67.812-8.127,92.34-8.127
		c0,0,19.331,1.464,29.038,1.464c9.704,0,29.035-1.464,29.035-1.464c24.528,0,66.369-16.93,92.34,8.127
		c19.221,18.546,24.528,57.566,12.263,104.295c0,0,13.708-10.16,20.199-46.729C403.603,259.938,423.802,181.378,374.025,148.87z"/>
	<path fill="#A33D23" d="M250.17,59.927c-4.097,20.098-16.146,37.698-20.173,43.165c4.773-7.516,6.603-24.655,6.603-24.655
		c-1.042,8.402-6.595,15.113-15.154,21.189c-6.948,22.917-31.292,38.659-31.292,38.659
		C242.285,119.185,249.261,70.694,250.17,59.927z"/>
	<path fill="#A33D23" d="M221.446,99.626c0,0-50.596,33.721-80.673,47.188c-30.079,13.469-48.933,45.343-48.036,76.767
		c0,0-9.427-53.422,47.137-85.296c51.858-29.221,77.626-34.852,96.725-59.849C236.6,78.437,236.393,93.394,221.446,99.626z"/>
	<path fill="#A33D23" d="M157.382,151.754c0,0,34.12-16.162,49.382-35.466c0,0-10.326,24.242-20.651,32.771
		c0,0,3.143-6.285,4.489-12.57C190.603,136.49,169.953,149.06,157.382,151.754z"/>
	<path fill="#A33D23" d="M202.724,150.407c0,0,45.791-26.936,48.036-50.729c0,0,11.67,32.771,51.177,51.625
		c0,0-37.261-12.569-51.627-34.117C250.309,117.187,225.17,144.123,202.724,150.407z"/>
	<path fill="#A33D23" d="M307.324,127.512c48.932,15.263,97.416,35.465,100.109,92.029l0.034-3.189
		c-1.211-23.651-8.639-51.283-33.442-67.482c-49.776-32.507-107.488-41.311-111.095-70.433c0,0,1.195,11.207,4.175,19.472
		C272.236,108.127,283.372,120.041,307.324,127.512z"/>
	<path fill="#A33D23" d="M325.28,136.491c0,0-26.487,1.795-41.302-12.57c0,0,1.347,17.059,30.528,36.363
		c0,0-14.367-11.224-16.162-21.998C298.345,138.286,311.365,140.98,325.28,136.491z"/>
	<path fill="#C35C28" d="M216.08,193.727c0,0,20.201,3.592,22.895,13.467c0,0,3.593-4.489,0.898-10.773
		c0,0,23.344,11.222,4.489,27.384c0,0,35.915-12.121,45.789-32.771c9.877-20.649-40.402-13.467-40.402-13.467L216.08,193.727z"/>
	<path fill="#A33D23" d="M199.357,192.157c0,0,30.079,1.458,39.618,15.038C238.975,207.194,242.791,190.473,199.357,192.157z"/>
	<path fill="#A33D23" d="M239.873,196.421c0,0,23.568,11.559,4.489,27.384C244.362,223.805,279.718,212.132,239.873,196.421z"/>
	<path fill="#A33D23" d="M273.431,208.655c0,0,18.518-10.101,6.396-36.7C279.827,171.955,306.089,189.127,273.431,208.655z"/>
	<path fill="#A33D23" d="M110.134,162.527c0,0,49.494-35.689,57.574-54.207c0,0-3.367,20.201-10.101,24.579
		C150.874,137.276,110.134,162.527,110.134,162.527z"/>
	<path fill="#A33D23" d="M359.624,140.306c0,0-0.471-0.247-1.313-0.706c-6.868-3.755-38.418-21.672-38.418-33.973
		c0,0-2.357,13.467,2.021,17.844"/>
</g>
</svg>
