<?xml version="1.0" encoding="utf-8"?>
<!-- Generator: Adobe Illustrator 15.0.0, SVG Export Plug-In . SVG Version: 6.00 Build 0)  -->
<!DOCTYPE svg PUBLIC "-//W3C//DTD SVG 1.1//EN" "http://www.w3.org/Graphics/SVG/1.1/DTD/svg11.dtd">
<svg version="1.1" id="Layer_1" xmlns="http://www.w3.org/2000/svg" xmlns:xlink="http://www.w3.org/1999/xlink" x="0px" y="0px"
	 width="500px" height="500px" viewBox="0 0 500 500" enable-background="new 0 0 500 500" xml:space="preserve">
<g>
	<path fill="#FFFFFF" d="M210.025,285.142c0,18.902-10.645,34.223-23.772,34.223c-13.13,0-23.777-15.32-23.777-34.223
		c0-18.9,10.646-34.215,23.777-34.215C199.38,250.927,210.025,266.241,210.025,285.142"/>
	<path fill="#AE5D52" d="M202.399,285.796c0,12.6-7.104,22.81-15.851,22.81c-8.756,0-15.85-10.21-15.85-22.81
		c0-12.604,7.094-22.821,15.85-22.821C195.295,262.975,202.399,273.191,202.399,285.796"/>
	<path fill="#FFFFFF" d="M337.568,285.142c0,18.902-10.644,34.223-23.776,34.223c-13.128,0-23.771-15.32-23.771-34.223
		c0-18.9,10.644-34.215,23.771-34.215C326.925,250.927,337.568,266.241,337.568,285.142"/>
	<path fill="#AE5D52" d="M329.937,285.796c0,12.6-7.099,22.81-15.851,22.81c-8.751,0-15.849-10.21-15.849-22.81
		c0-12.604,7.098-22.821,15.849-22.821C322.838,262.975,329.937,273.191,329.937,285.796"/>
	<path fill="#F4CBB3" d="M162.655,307.727l43.829,8.123l-21.104,12.574C185.379,328.424,156.538,318.499,162.655,307.727z"/>
	<path fill="#F4CBB3" d="M336.656,307.727l-43.829,8.123l21.104,12.574C313.932,328.424,342.773,318.499,336.656,307.727z"/>
	<path fill="#DBAE94" d="M201.781,317.024c0,0-10.259-6.305-40.523-5.403C161.258,311.621,189.472,303.065,201.781,317.024z"/>
	<path fill="#DBAE94" d="M298.136,317.024c0,0,10.258-6.305,40.523-5.403C338.659,311.621,310.446,303.065,298.136,317.024z"/>
	<path fill="#F4CBB3" d="M208.986,261.64c0,0-8.104,13.059-46.827,13.059l1.351-35.12l29.267-1.351L208.986,261.64z"/>
	<path fill="#F4CBB3" d="M291.382,261.64c0,0,8.103,13.059,46.826,13.059l-1.351-35.12l-29.267-1.351L291.382,261.64z"/>
	<path fill="#DBAE94" d="M188.725,252.185c0,0,4.952,0.451,9.456,12.608c0,0-13.958,7.653-29.267,6.303c0,0-1.8-4.503,3.603-14.858
		c0,0-7.655,7.656-10.356,18.461c25.651,0,37.86-5.729,43.184-9.597C204.971,263.853,200.431,256.237,188.725,252.185z"/>
	<path fill="#DBAE94" d="M313.792,250.927c0,0-8.903,3.06-12.095,13.866c0,0,13.957,7.653,29.267,6.303
		c0,0,1.801-4.503-3.603-14.858c0,0,7.655,7.656,10.356,18.461c-25.651,0-37.861-5.729-43.184-9.597
		C294.905,263.853,299.938,253.986,313.792,250.927z"/>
	<path fill="#DBAE94" d="M153.605,272.897c0,0,36.471,8.104,58.533-13.057C212.138,259.841,191.426,272.897,153.605,272.897z"/>
	<path fill="#DBAE94" d="M285.079,259.39c0,0,25.213,20.713,61.684,13.508C346.763,272.897,319.299,273.349,285.079,259.39z"/>
</g>
</svg>
