<?xml version="1.0" encoding="utf-8"?>
<!-- Generator: Adobe Illustrator 15.0.0, SVG Export Plug-In . SVG Version: 6.00 Build 0)  -->
<!DOCTYPE svg PUBLIC "-//W3C//DTD SVG 1.1//EN" "http://www.w3.org/Graphics/SVG/1.1/DTD/svg11.dtd">
<svg version="1.1" id="Layer_1" xmlns="http://www.w3.org/2000/svg" xmlns:xlink="http://www.w3.org/1999/xlink" x="0px" y="0px"
	 width="500px" height="500px" viewBox="0 0 500 500" enable-background="new 0 0 500 500" xml:space="preserve">
<g>
	<path fill="#FFFFFF" d="M210.109,273.907c0,18.903-10.646,34.224-23.772,34.224c-13.133,0-23.778-15.32-23.778-34.224
		c0-18.899,10.645-34.214,23.778-34.214C199.464,239.693,210.109,255.008,210.109,273.907"/>
	<path fill="#AE5D52" d="M203.744,273.349c0,8.123-4.58,14.708-10.218,14.708c-5.647,0-10.22-6.585-10.22-14.708
		c0-8.127,4.573-14.714,10.22-14.714C199.164,258.635,203.744,265.222,203.744,273.349"/>
	<path fill="#FFFFFF" d="M337.651,273.907c0,18.903-10.644,34.224-23.776,34.224c-13.128,0-23.771-15.32-23.771-34.224
		c0-18.899,10.644-34.214,23.771-34.214C327.008,239.693,337.651,255.008,337.651,273.907"/>
	<path fill="#AE5D52" d="M317.046,273.349c0,8.123-4.576,14.708-10.219,14.708c-5.644,0-10.22-6.585-10.22-14.708
		c0-8.127,4.576-14.714,10.22-14.714C312.47,258.635,317.046,265.222,317.046,273.349"/>
	<path fill="#DBAE94" d="M205.579,295.433c0,0-9.793,21.95-29.379,13.846C176.2,309.278,194.098,327.514,205.579,295.433z"/>
	<path fill="#DBAE94" d="M295.067,295.433c0,0,9.793,21.95,29.379,13.846C324.446,309.278,306.549,327.514,295.067,295.433z"/>
</g>
</svg>
