<?xml version="1.0" encoding="utf-8"?>
<!-- Generator: Adobe Illustrator 15.0.0, SVG Export Plug-In . SVG Version: 6.00 Build 0)  -->
<!DOCTYPE svg PUBLIC "-//W3C//DTD SVG 1.1//EN" "http://www.w3.org/Graphics/SVG/1.1/DTD/svg11.dtd">
<svg version="1.1" id="Layer_1" xmlns="http://www.w3.org/2000/svg" xmlns:xlink="http://www.w3.org/1999/xlink" x="0px" y="0px"
	 width="500px" height="500px" viewBox="0 0 500 500" enable-background="new 0 0 500 500" xml:space="preserve">
<g>
	<path fill="#FFFFFF" d="M210.926,285.142c0,18.902-10.646,34.223-23.773,34.223c-13.13,0-23.777-15.32-23.777-34.223
		c0-18.9,10.646-34.215,23.777-34.215C200.28,250.927,210.926,266.241,210.926,285.142"/>
	<path fill="#AE5D52" d="M203.298,285.796c0,12.6-7.104,22.81-15.851,22.81c-8.756,0-15.85-10.21-15.85-22.81
		c0-12.604,7.094-22.821,15.85-22.821C196.195,262.975,203.298,273.191,203.298,285.796"/>
	<path fill="#FFFFFF" d="M338.469,285.142c0,18.902-10.645,34.223-23.777,34.223c-13.128,0-23.771-15.32-23.771-34.223
		c0-18.9,10.644-34.215,23.771-34.215C327.824,250.927,338.469,266.241,338.469,285.142"/>
	<path fill="#AE5D52" d="M330.836,285.796c0,12.6-7.098,22.81-15.851,22.81c-8.751,0-15.849-10.21-15.849-22.81
		c0-12.604,7.098-22.821,15.849-22.821C323.738,262.975,330.836,273.191,330.836,285.796"/>
	<path fill="#F4CBB3" d="M163.555,307.727l43.829,8.123l-21.104,12.574C186.279,328.424,157.437,318.499,163.555,307.727z"/>
	<path fill="#F4CBB3" d="M337.556,307.727l-43.829,8.123l21.104,12.574C314.831,328.424,343.674,318.499,337.556,307.727z"/>
	<path fill="#DBAE94" d="M202.681,317.024c0,0-10.259-6.305-40.523-5.403C162.158,311.621,190.371,303.065,202.681,317.024z"/>
	<path fill="#DBAE94" d="M299.035,317.024c0,0,10.259-6.305,40.524-5.403C339.56,311.621,311.346,303.065,299.035,317.024z"/>
	<path fill="#F4CBB3" d="M209.886,261.64c0,0-8.104,13.059-46.827,13.059l1.351-35.12l29.267-1.351L209.886,261.64z"/>
	<path fill="#F4CBB3" d="M292.281,261.64c0,0,8.104,13.059,46.827,13.059l-1.352-35.12l-29.267-1.351L292.281,261.64z"/>
	<path fill="#DBAE94" d="M189.625,252.185c0,0,4.952,0.451,9.456,12.608c0,0-13.959,7.653-29.267,6.303
		c0,0-1.801-4.503,3.603-14.858c0,0-7.655,7.656-10.356,18.461c25.651,0,37.859-5.729,43.184-9.597
		C205.871,263.853,201.33,256.237,189.625,252.185z"/>
	<path fill="#DBAE94" d="M314.691,250.927c0,0-8.902,3.06-12.095,13.866c0,0,13.957,7.653,29.267,6.303
		c0,0,1.801-4.503-3.603-14.858c0,0,7.655,7.656,10.356,18.461c-25.651,0-37.86-5.729-43.184-9.597
		C295.805,263.853,300.837,253.986,314.691,250.927z"/>
	<path fill="#DBAE94" d="M154.505,272.897c0,0,36.47,8.104,58.532-13.057C213.037,259.841,192.326,272.897,154.505,272.897z"/>
	<path fill="#DBAE94" d="M285.979,259.39c0,0,25.213,20.713,61.684,13.508C347.662,272.897,320.198,273.349,285.979,259.39z"/>
	<path fill="#3A2727" d="M295.434,265.102c0,0,18.348,12.523,49.753,8.134c0,0,7.092-1.352,11.481-6.079
		c0,0-6.078,10.131-14.858,10.807c0,0,3.715,1.688,11.144,1.351C352.953,279.313,322.562,289.444,295.434,265.102z"/>
	<path fill="#3A2727" d="M206.059,265.102c0,0-18.347,12.523-49.752,8.134c0,0-7.092-1.352-11.481-6.079
		c0,0,6.078,10.131,14.858,10.807c0,0-3.715,1.688-11.144,1.351C148.54,279.313,178.932,289.444,206.059,265.102z"/>
	<ellipse fill="#9EDAF1" cx="166.042" cy="304.472" rx="11.312" ry="5.909"/>
	<circle fill="#FFFFFF" cx="169.756" cy="303.458" r="2.469"/>
	<ellipse fill="#9EDAF1" cx="335.225" cy="304.472" rx="11.312" ry="5.909"/>
	<circle fill="#FFFFFF" cx="338.714" cy="303.234" r="2.28"/>
</g>
</svg>
