<?xml version="1.0" encoding="utf-8"?>
<!-- Generator: Adobe Illustrator 15.0.0, SVG Export Plug-In . SVG Version: 6.00 Build 0)  -->
<!DOCTYPE svg PUBLIC "-//W3C//DTD SVG 1.1//EN" "http://www.w3.org/Graphics/SVG/1.1/DTD/svg11.dtd">
<svg version="1.1" id="Layer_1" xmlns="http://www.w3.org/2000/svg" xmlns:xlink="http://www.w3.org/1999/xlink" x="0px" y="0px"
	 width="500px" height="500px" viewBox="0 0 500 500" enable-background="new 0 0 500 500" xml:space="preserve">
<g>
	<path fill="#6B473C" d="M254.28,90.055C196.663,69.249,70.618,113.479,46.215,198.889C21.08,286.863,76.959,330.363,91.62,340.026
		c13.218,11.029,32.217,29.856,27.418,43.721c0,0,8.7-4.974,9.108-14.918c0.136,0.132,0.308,0.301,0.523,0.518
		c2.143,2.409,4.08,4.877,5.692,7.357c3.764,6.366,6.275,15.477-2.105,23.704c0,0,3.978,0.031,7.251-2.948
		c-1.741,9.061-9.651,11.349-9.651,11.349c21.135,0.129,34.252-9.655,36.285-24.6c6.471-1.63,30.633-9.568,2.194-32.035
		c17.828,2.292,34.729-1.237,34.729-1.237c-26.021,2.001-49.223-10.39-62.96-19.956c-23.994-23.151-25.878-48.794-25.487-59.237
		c4.178,7.321,12.422,9.571,12.422,9.571c-15.205-40.012,20.007-51.216,76.024-70.421c56.018-19.206,48.016-73.623,48.016-73.623
		L254.28,90.055z M166.215,383.43c0.738-6.764-0.761-14.541-4.764-22.915c2.054,1.616,3.726,3.476,4.801,5.627
		C171.408,376.452,168.363,381.432,166.215,383.43z M111.908,265.216c0.238-4.442,0.728-7.108,0.728-7.108
		c-0.479,2.75-0.485,5.189-0.162,7.36C112.279,265.375,112.095,265.297,111.908,265.216z"/>
	<path fill="#5F342A" d="M112.636,258.107c-3.201,18.406,14.404,23.207,14.404,23.207c-15.205-40.012,20.007-51.216,76.024-70.421
		c56.018-19.206,48.016-73.623,48.016-73.623c-4.802,26.408-24.809,34.411-97.631,56.018
		c-71.237,21.136-42.929,73.659-41.662,75.937C111.847,262.428,112.636,258.107,112.636,258.107z"/>
	<path fill="#5F342A" d="M254.28,90.055c0,0-72.022-37.345-176.055,39.479c0,0-56.019,42.681-47.482,101.365
		c0,0,8.536-68.288,68.288-99.764C161.739,98.102,200.395,82.053,254.28,90.055z"/>
	<g>
		<path fill="#5F342A" d="M112.474,265.468c-0.194-0.093-0.379-0.171-0.565-0.252c0.062-1.163,0.142-2.196,0.226-3.099l-3.5-13.613
			c0,0-20.806,66.155,51.217,111.5c0,0,1.116,0.12,2.479,2.486c-0.285-0.657-0.56-1.311-0.878-1.977
			c2.054,1.616,3.726,3.476,4.801,5.627c4.773,9.546,2.517,14.517,0.45,16.788c0.028,0.36,0.056,0.711,0.083,1.084
			c0.001,0.01,0.001,0.018,0.001,0.026c7.266-1.964,29.109-10.092,1.547-31.866c17.828,2.292,34.729-1.237,34.729-1.237
			c-26.021,2.001-49.223-10.39-62.96-19.956c-23.994-23.151-25.878-48.794-25.487-59.237c4.178,7.321,12.422,9.571,12.422,9.571
			c-1.42-3.736-2.399-7.221-2.963-10.486l-11.818-8.619C112.25,263.355,112.321,264.443,112.474,265.468z"/>
		<path fill="#5F342A" d="M166.359,379.079c-0.089-3.166-0.621-6.511-1.629-10.003C165.353,371.624,165.922,374.9,166.359,379.079z"
			/>
	</g>
	<path fill="#5F342A" d="M98.499,339.733c20.273,8.535,29.647,29.096,29.647,29.096c0.136,0.132,0.308,0.301,0.523,0.518
		c2.143,2.409,4.08,4.877,5.692,7.357c3.764,6.366,6.275,15.477-2.105,23.704c0,0,3.978,0.031,7.251-2.948
		c-1.741,9.061-9.651,11.349-9.651,11.349c11.511,0.071,20.62-2.817,26.878-7.859C159.079,363.24,98.499,339.733,98.499,339.733z"/>
	<path fill="#5F342A" d="M252.146,129.534c0,0-20.273,33.077-94.43,41.612c-74.156,8.537-77.356,48.015-77.356,48.015
		s0-48.548,76.824-57.617S252.146,129.534,252.146,129.534z"/>
	<path fill="#6B473C" d="M249.659,137.27c0,0-8.002,54.417,48.016,73.623c56.018,19.206,91.229,30.409,76.024,70.421
		c0,0,8.243-2.25,12.422-9.571c0.391,10.443-1.494,36.086-25.489,59.237c-13.735,9.566-36.939,21.957-62.957,19.956
		c0,0,16.902,3.529,34.727,1.237c-28.437,22.467-4.276,30.405,2.194,32.035c2.032,14.944,15.152,24.729,36.287,24.6
		c0,0-7.912-2.288-9.653-11.349c3.272,2.979,7.252,2.948,7.252,2.948c-8.381-8.228-5.87-17.338-2.106-23.704
		c1.616-2.48,3.551-4.948,5.695-7.357c0.213-0.217,0.385-0.386,0.521-0.518c0.41,9.944,9.109,14.918,9.109,14.918
		c-4.802-13.864,14.198-32.691,27.418-43.721c14.661-9.663,70.541-53.163,45.404-141.137
		c-24.404-85.41-150.446-129.64-208.066-108.834L249.659,137.27z M334.486,366.142c1.075-2.151,2.748-4.011,4.799-5.627
		c-4.001,8.374-5.502,16.151-4.764,22.915C332.377,381.432,329.329,376.452,334.486,366.142z M388.263,265.468
		c0.325-2.171,0.319-4.61-0.159-7.36c0,0,0.487,2.666,0.725,7.108C388.645,265.297,388.46,265.375,388.263,265.468z"/>
	<path fill="#5F342A" d="M388.104,258.107c3.201,18.406-14.404,23.207-14.404,23.207c15.204-40.012-20.007-51.216-76.024-70.421
		c-56.019-19.206-48.016-73.623-48.016-73.623c4.8,26.408,24.809,34.411,97.632,56.018c71.234,21.136,42.926,73.659,41.659,75.937
		C388.891,262.428,388.104,258.107,388.104,258.107z"/>
	<path fill="#5F342A" d="M246.458,90.055c0,0,72.024-37.345,176.056,39.479c0,0,56.018,42.681,47.48,101.365
		c0,0-8.537-68.288-68.287-99.764C339,98.102,300.342,82.053,246.458,90.055z"/>
	<g>
		<path fill="#5F342A" d="M388.263,265.468c0.197-0.093,0.382-0.171,0.565-0.252c-0.062-1.163-0.141-2.196-0.225-3.099l3.501-13.613
			c0,0,20.807,66.155-51.216,111.5c0,0-1.119,0.12-2.482,2.486c0.288-0.657,0.562-1.311,0.879-1.977
			c-2.051,1.616-3.724,3.476-4.799,5.627c-4.773,9.546-2.516,14.517-0.453,16.788c-0.028,0.36-0.057,0.711-0.081,1.084
			c0,0.01-0.003,0.018-0.003,0.026c-7.265-1.964-29.106-10.092-1.548-31.866c-17.824,2.292-34.727-1.237-34.727-1.237
			c26.018,2.001,49.222-10.39,62.957-19.956c23.995-23.151,25.88-48.794,25.489-59.237c-4.179,7.321-12.422,9.571-12.422,9.571
			c1.419-3.736,2.397-7.221,2.963-10.486l11.816-8.619C388.488,263.355,388.416,264.443,388.263,265.468z"/>
		<path fill="#5F342A" d="M334.377,379.079c0.091-3.166,0.622-6.511,1.629-10.003C335.387,371.624,334.818,374.9,334.377,379.079z"
			/>
	</g>
	<path fill="#5F342A" d="M402.239,339.733c-20.272,8.535-29.647,29.096-29.647,29.096c-0.137,0.132-0.309,0.301-0.521,0.518
		c-2.145,2.409-4.079,4.877-5.695,7.357c-3.764,6.366-6.274,15.477,2.106,23.704c0,0-3.979,0.031-7.252-2.948
		c1.741,9.061,9.653,11.349,9.653,11.349c-11.511,0.071-20.623-2.817-26.881-7.859C341.657,363.24,402.239,339.733,402.239,339.733z
		"/>
	<path fill="#5F342A" d="M248.591,131.668c0,0,20.275,33.076,94.429,41.613c74.157,8.537,77.358,48.015,77.358,48.015
		s0-48.549-76.824-57.618C266.731,154.609,248.591,131.668,248.591,131.668z"/>
	<path fill="#FFFFFF" d="M248.943,93.789c0,0-16.538,22.94-74.69,32.01C174.252,125.799,236.672,125.266,248.943,93.789z"/>
	<path fill="#FFFFFF" d="M248.943,93.789c0,0,25.075,40.013,97.097,50.149C346.04,143.938,294.29,137.537,248.943,93.789z"/>
	<path fill="#FFFFFF" d="M250.01,139.671c0,0-5.867,52.282-75.223,69.354C191.63,201.828,230.77,191.185,250.01,139.671z"/>
	<path fill="#FFFFFF" d="M410.595,338.133c0,0,46.945-50.684,23.473-125.907C434.067,212.226,447.94,286.384,410.595,338.133z"/>
	<path fill="#FFFFFF" d="M102.765,341.866c0,0-75.224-44.279-32.01-149.379C70.755,192.487,32.876,281.048,102.765,341.866z"/>
</g>
</svg>
