<?xml version="1.0" encoding="utf-8"?>
<!-- Generator: Adobe Illustrator 15.0.0, SVG Export Plug-In . SVG Version: 6.00 Build 0)  -->
<!DOCTYPE svg PUBLIC "-//W3C//DTD SVG 1.1//EN" "http://www.w3.org/Graphics/SVG/1.1/DTD/svg11.dtd">
<svg version="1.1" id="Layer_1" xmlns="http://www.w3.org/2000/svg" xmlns:xlink="http://www.w3.org/1999/xlink" x="0px" y="0px"
	 width="500px" height="500px" viewBox="0 0 500 500" enable-background="new 0 0 500 500" xml:space="preserve">
<g>
	<path fill="#FFFFFF" d="M210.476,286.943c0,18.902-10.645,34.223-23.771,34.223c-13.133,0-23.778-15.32-23.778-34.223
		c0-18.9,10.645-34.215,23.778-34.215C199.831,252.729,210.476,268.043,210.476,286.943"/>
	<path fill="#AE5D52" d="M202.849,289.397c0,12.601-7.104,22.812-15.849,22.812c-8.757,0-15.851-10.211-15.851-22.812
		c0-12.604,7.093-22.818,15.851-22.818C195.745,266.579,202.849,276.794,202.849,289.397"/>
	<path fill="#FFFFFF" d="M338.019,286.943c0,18.902-10.644,34.223-23.777,34.223c-13.127,0-23.771-15.32-23.771-34.223
		c0-18.9,10.645-34.215,23.771-34.215C327.375,252.729,338.019,268.043,338.019,286.943"/>
	<path fill="#AE5D52" d="M330.386,289.397c0,12.601-7.098,22.812-15.85,22.812c-8.751,0-15.85-10.211-15.85-22.812
		c0-12.604,7.099-22.818,15.85-22.818C323.288,266.579,330.386,276.794,330.386,289.397"/>
	<path fill="#F4CBB3" d="M163.165,282.128h47.072c-1.627-16.617-11.542-29.399-23.532-29.399
		C174.708,252.729,164.791,265.511,163.165,282.128z"/>
	<path fill="#DBAE94" d="M196.402,255.733c5.313,4.585,9.131,12.737,10.019,22.343h-39.778c0.829-8.96,4.208-16.652,8.97-21.371
		c-6.598,5.024-11.365,14.36-12.448,25.423h47.072C209.078,270.304,203.715,260.45,196.402,255.733z"/>
	<path fill="#F4CBB3" d="M287.329,282.128h52.68c0,0,3.377-30.392-29.717-33.769S287.329,282.128,287.329,282.128z"/>
	<path fill="#DBAE94" d="M323.825,255.733c5.314,4.585,9.131,12.737,10.019,22.343h-39.777c0.828-8.96,4.206-16.652,8.97-21.371
		c-6.597,5.024-11.366,14.36-12.448,25.423h47.072C336.503,270.304,331.137,260.45,323.825,255.733z"/>
	<path fill="#3A2727" d="M210.236,282.128c0,0-30.067,1.124-47.627-8.779c0,0,1.351,3.601,4.052,5.853c0,0-9.456-1.351-16.66-5.853
		C150.001,273.349,159.908,294.06,210.236,282.128z"/>
	<path fill="#3A2727" d="M290.031,282.128c0,0,30.067,1.124,47.627-8.779c0,0-1.351,3.601-4.052,5.853c0,0,9.455-1.351,16.66-5.853
		C350.267,273.349,340.36,294.06,290.031,282.128z"/>
</g>
</svg>
