<?xml version="1.0" encoding="utf-8"?>
<!-- Generator: Adobe Illustrator 15.0.0, SVG Export Plug-In . SVG Version: 6.00 Build 0)  -->
<!DOCTYPE svg PUBLIC "-//W3C//DTD SVG 1.1//EN" "http://www.w3.org/Graphics/SVG/1.1/DTD/svg11.dtd">
<svg version="1.1" id="Layer_1" xmlns="http://www.w3.org/2000/svg" xmlns:xlink="http://www.w3.org/1999/xlink" x="0px" y="0px"
	 width="500px" height="500px" viewBox="0 0 500 500" enable-background="new 0 0 500 500" xml:space="preserve">
<g>
	<path fill="#3A2727" d="M247.396,126.007c-8.614-1.786-108.43-20.088-143.271,82.694c0,0,9.489,10.24,49.392,17.419
		c0.634-2.217,2.763-9.044,7.674-19.848c0,0-2.654,15.933-1.01,20.973c0.251,0.04,0.51,0.078,0.765,0.119
		c0.837-1.823,2.929-6.708,3.889-11.985l2.585,12.929c19.946,2.723,45.853,4.627,79.371,4.673v0.004
		c0.205,0,0.401-0.002,0.607-0.002s0.402,0.002,0.607,0.002v-0.004c54.087-0.073,88.366-4.986,109.725-10.372
		c-0.479-3.444-2.21-13.208-7.129-20.585c0,0,10.746,11.26,13.913,18.74c20.583-6.044,26.155-12.063,26.155-12.063
		C355.826,105.918,256.009,124.221,247.396,126.007z"/>
	<path opacity="0.5" fill="#FFFFFF" d="M134.682,166.177c0,0,10.284-18.591,34.017-28.875c0,0,13.45,41.138,78.716,41.138
		c65.265,0,80.693-40.347,80.693-40.347s21.277,8.079,42.324,34.413c0,0-55.378,20.174-123.017,20.174
		C179.776,192.679,134.682,166.177,134.682,166.177z"/>
</g>
</svg>
