<?xml version="1.0" encoding="utf-8"?>
<!-- Generator: Adobe Illustrator 15.0.0, SVG Export Plug-In . SVG Version: 6.00 Build 0)  -->
<!DOCTYPE svg PUBLIC "-//W3C//DTD SVG 1.1//EN" "http://www.w3.org/Graphics/SVG/1.1/DTD/svg11.dtd">
<svg version="1.1" id="Layer_1" xmlns="http://www.w3.org/2000/svg" xmlns:xlink="http://www.w3.org/1999/xlink" x="0px" y="0px"
	 width="500px" height="500px" viewBox="0 0 500 500" enable-background="new 0 0 500 500" xml:space="preserve">
<g>
	<g>
		<path fill="#3A2727" d="M227.493,288.479c-0.192-1.428-0.348-3.776-0.348-5.217c0,0,0-7.86,0-12.663
			c0-10.045-17.032-17.905-32.316-17.905c-15.282,0-55.917,5.338-55.917,5.338c-1.428,0.187-2.597,1.521-2.597,2.96v5.24
			c0,1.44,1.066,3.122,2.37,3.735l2.683,1.262c1.303,0.614,2.697,2.248,3.096,3.634c0,0,5.824,20.189,16.523,30.886
			c8.515,8.517,15.065,9.391,27.728,9.391C231.073,315.14,227.493,288.479,227.493,288.479z M192.646,311.211
			c-29.693,1.745-36.244-21.397-36.244-21.397c-15.721-29.259,8.296-31.441,8.296-31.441c38.864-5.24,43.23,0,43.23,0
			s16.593,3.492,16.593,20.96C224.522,295.49,222.339,309.463,192.646,311.211z"/>
		<path opacity="0.3" fill="#FFFFFF" d="M207.929,258.372c0,0-4.366-5.24-43.23,0c0,0-24.017,2.183-8.296,31.441
			c0,0,6.551,23.143,36.244,21.397c29.693-1.748,31.876-15.721,31.876-31.879C224.522,261.864,207.929,258.372,207.929,258.372z"/>
		<path opacity="0.5" fill="#3A2727" d="M164.698,262.304c38.864-5.241,43.23,0,43.23,0s15.93,3.362,16.565,19.94
			c0.02-0.959,0.028-1.932,0.028-2.912c0-17.468-16.593-20.96-16.593-20.96s-4.366-5.24-43.23,0c0,0-14.963,1.374-13.52,16.355
			C152.448,263.424,164.698,262.304,164.698,262.304z"/>
		<path opacity="0.5" fill="#FFFFFF" d="M164.698,258.372c0,0-0.339,0.033-0.897,0.133l-12.661,12.661
			c-0.159,1.78-0.036,3.817,0.427,6.122l19.748-19.748C169.228,257.784,167.029,258.058,164.698,258.372z"/>
		<path opacity="0.5" fill="#FFFFFF" d="M178.618,256.789l-25.599,25.598c0.824,2.26,1.932,4.726,3.383,7.427
			c0,0,0.863,3.022,3.354,6.798l40.287-40.286C195.664,255.918,188.921,255.864,178.618,256.789z"/>
	</g>
	<g>
		<path fill="#3A2727" d="M316.322,315.14c12.66,0,19.213-0.874,27.727-9.391c10.697-10.696,16.525-30.886,16.525-30.886
			c0.398-1.386,1.791-3.02,3.096-3.634l2.68-1.262c1.305-0.613,2.373-2.295,2.373-3.735v-5.24c0-1.439-1.17-2.773-2.598-2.96
			c0,0-40.633-5.338-55.916-5.338c-15.285,0-32.316,7.86-32.316,17.905c0,4.803,0,12.663,0,12.663c0,1.44-0.154,3.789-0.348,5.217
			C277.545,288.479,273.963,315.14,316.322,315.14z M280.512,279.332c0-17.468,16.598-20.96,16.598-20.96s4.363-5.24,43.23,0
			c0,0,24.016,2.183,8.295,31.441c0,0-6.549,23.143-36.244,21.397C282.699,309.463,280.512,295.49,280.512,279.332z"/>
		<path opacity="0.3" fill="#FFFFFF" d="M297.109,258.372c0,0,4.363-5.24,43.23,0c0,0,24.016,2.183,8.295,31.441
			c0,0-6.549,23.143-36.244,21.397c-29.691-1.748-31.879-15.721-31.879-31.879C280.512,261.864,297.109,258.372,297.109,258.372z"/>
		<path opacity="0.5" fill="#3A2727" d="M340.34,262.304c-38.867-5.241-43.23,0-43.23,0s-15.932,3.362-16.564,19.94
			c-0.021-0.959-0.033-1.932-0.033-2.912c0-17.468,16.598-20.96,16.598-20.96s4.363-5.24,43.23,0c0,0,14.963,1.374,13.518,16.355
			C352.59,263.424,340.34,262.304,340.34,262.304z"/>
		<path opacity="0.5" fill="#FFFFFF" d="M340.34,258.372c0,0,0.338,0.033,0.895,0.133l12.664,12.661
			c0.158,1.78,0.035,3.817-0.428,6.122l-19.746-19.748C335.811,257.784,338.008,258.058,340.34,258.372z"/>
		<path opacity="0.5" fill="#FFFFFF" d="M326.418,256.789l25.598,25.598c-0.822,2.26-1.932,4.726-3.381,7.427
			c0,0-0.861,3.022-3.354,6.798l-40.287-40.286C309.371,255.918,316.117,255.864,326.418,256.789z"/>
	</g>
	<path fill="#3A2727" d="M227.034,268.307c0,0,1.965,2.948,5.24,2.948s5.894-4.585,20.304-4.585s18.012,5.567,20.633,5.567
		c2.619,0,5.24-3.931,5.24-3.931l-0.654,16.703c0,0-7.533-14.737-26.201-14.737c-18.667,0-24.562,15.064-24.562,15.064V268.307z"/>
	<path fill="#3A2727" d="M231.153,277.806c0,0,2.665,1.638,1.48,7.531c-1.183,5.895-8.875,16.376-8.875,16.376l3.847-23.907H231.153
		z"/>
	<path fill="#3A2727" d="M274.012,277.806c0,0-2.664,1.638-1.482,7.531c1.186,5.895,8.877,16.376,8.877,16.376l-3.844-23.907
		H274.012z"/>
</g>
</svg>
