<?xml version="1.0" encoding="utf-8"?>
<!-- Generator: Adobe Illustrator 15.0.0, SVG Export Plug-In . SVG Version: 6.00 Build 0)  -->
<!DOCTYPE svg PUBLIC "-//W3C//DTD SVG 1.1//EN" "http://www.w3.org/Graphics/SVG/1.1/DTD/svg11.dtd">
<svg version="1.1" id="Layer_1" xmlns="http://www.w3.org/2000/svg" xmlns:xlink="http://www.w3.org/1999/xlink" x="0px" y="0px"
	 width="500px" height="500px" viewBox="0 0 500 500" enable-background="new 0 0 500 500" xml:space="preserve">
<g>
	<g>
		<g>
			<circle opacity="0.4" fill="#FFFFFF" cx="189.483" cy="277.972" r="39.928"/>
			<g opacity="0.5">
				<path fill="#FFFFFF" d="M189.482,314.861c-21.542,0-39.09-17.062-39.89-38.409c-0.019,0.506-0.038,1.01-0.038,1.52
					c0,22.052,17.876,39.929,39.928,39.929c22.053,0,39.928-17.877,39.928-39.929c0-0.51-0.019-1.014-0.038-1.52
					C228.573,297.799,211.025,314.861,189.482,314.861z"/>
			</g>
			<g opacity="0.5">
				<path fill="#B0B2B3" d="M189.483,242.6c21.542,0,39.089,17.063,39.889,38.409c0.019-0.503,0.038-1.009,0.038-1.518
					c0-22.053-17.875-39.929-39.927-39.929c-22.053,0-39.929,17.876-39.929,39.929c0,0.509,0.019,1.015,0.038,1.518
					C150.393,259.663,167.94,242.6,189.483,242.6z"/>
			</g>
			<path opacity="0.5" fill="#FFFFFF" d="M189.482,238.043c-1.39,0-2.763,0.072-4.116,0.211l-35.602,35.602
				c-0.137,1.354-0.21,2.727-0.21,4.116c0,0.64,0.019,1.272,0.048,1.904l41.785-41.785
				C190.756,238.062,190.122,238.043,189.482,238.043z"/>
			<path opacity="0.5" fill="#FFFFFF" d="M149.963,283.64c0.679,4.783,2.2,9.296,4.417,13.376l54.148-54.146
				c-4.082-2.218-8.593-3.738-13.376-4.418L149.963,283.64z"/>
		</g>
		<g>
			<g opacity="0.5">
				<path fill="#FFFFFF" d="M189.482,316.163c-21.542,0-39.09-17.062-39.89-38.409c-0.019,0.506-0.038,1.01-0.038,1.52
					c0,22.052,17.876,39.929,39.928,39.929c22.053,0,39.928-17.877,39.928-39.929c0-0.51-0.019-1.014-0.038-1.52
					C228.573,299.102,211.025,316.163,189.482,316.163z"/>
			</g>
			<g opacity="0.5">
				<path fill="#B0B2B3" d="M189.483,243.902c21.542,0,39.089,17.063,39.889,38.41c0.019-0.504,0.038-1.01,0.038-1.519
					c0-22.053-17.875-39.929-39.927-39.929c-22.053,0-39.929,17.876-39.929,39.929c0,0.509,0.019,1.015,0.038,1.519
					C150.393,260.965,167.94,243.902,189.483,243.902z"/>
			</g>
			<path opacity="0.2" fill="#FFFFFF" d="M189.482,238.043c-1.39,0-2.763,0.072-4.116,0.211l-35.602,35.602
				c-0.137,1.354-0.21,2.727-0.21,4.116c0,0.64,0.019,1.272,0.048,1.904l41.785-41.785
				C190.756,238.062,190.122,238.043,189.482,238.043z"/>
			<path opacity="0.2" fill="#FFFFFF" d="M149.963,283.64c0.679,4.783,2.2,9.296,4.417,13.376l54.148-54.146
				c-4.082-2.218-8.593-3.738-13.376-4.418L149.963,283.64z"/>
		</g>
		<path fill="none" stroke="#454545" stroke-width="3" d="M189.482,314.861c21.542,0,39.089-17.061,39.89-38.405
			c-0.798-21.348-18.346-38.413-39.89-38.413c-21.543,0-39.092,17.065-39.89,38.413
			C150.395,297.801,167.942,314.861,189.482,314.861z"/>
	</g>
	<g>
		<g>
			<circle opacity="0.4" fill="#FFFFFF" cx="313.174" cy="277.972" r="39.927"/>
			<g opacity="0.5">
				<path fill="#FFFFFF" d="M313.174,314.861c-21.541,0-39.091-17.062-39.889-38.409c-0.021,0.506-0.038,1.01-0.038,1.52
					c0,22.052,17.874,39.929,39.927,39.929s39.928-17.877,39.928-39.929c0-0.51-0.018-1.014-0.038-1.52
					C352.265,297.799,334.716,314.861,313.174,314.861z"/>
			</g>
			<g opacity="0.5">
				<path fill="#B0B2B3" d="M313.174,242.6c21.542,0,39.091,17.063,39.89,38.409c0.021-0.503,0.038-1.009,0.038-1.518
					c0-22.053-17.875-39.929-39.928-39.929s-39.927,17.876-39.927,39.929c0,0.509,0.018,1.015,0.038,1.518
					C274.083,259.663,291.633,242.6,313.174,242.6z"/>
			</g>
			<path opacity="0.5" fill="#FFFFFF" d="M313.174,238.043c-1.391,0-2.764,0.072-4.117,0.211l-35.602,35.602
				c-0.137,1.354-0.208,2.727-0.208,4.116c0,0.64,0.018,1.272,0.048,1.904l41.784-41.785
				C314.448,238.062,313.812,238.043,313.174,238.043z"/>
			<path opacity="0.5" fill="#FFFFFF" d="M273.653,283.64c0.68,4.783,2.2,9.296,4.418,13.376l54.147-54.146
				c-4.082-2.218-8.593-3.738-13.376-4.418L273.653,283.64z"/>
		</g>
		<g>
			<g opacity="0.5">
				<path fill="#FFFFFF" d="M313.174,316.163c-21.541,0-39.091-17.062-39.889-38.409c-0.021,0.506-0.038,1.01-0.038,1.52
					c0,22.052,17.874,39.929,39.927,39.929s39.928-17.877,39.928-39.929c0-0.51-0.018-1.014-0.038-1.52
					C352.265,299.102,334.716,316.163,313.174,316.163z"/>
			</g>
			<g opacity="0.5">
				<path fill="#B0B2B3" d="M313.174,243.902c21.542,0,39.091,17.063,39.89,38.41c0.021-0.504,0.038-1.01,0.038-1.519
					c0-22.053-17.875-39.929-39.928-39.929s-39.927,17.876-39.927,39.929c0,0.509,0.018,1.015,0.038,1.519
					C274.083,260.965,291.633,243.902,313.174,243.902z"/>
			</g>
			<path opacity="0.2" fill="#FFFFFF" d="M313.174,238.043c-1.391,0-2.764,0.072-4.117,0.211l-35.602,35.602
				c-0.137,1.354-0.208,2.727-0.208,4.116c0,0.64,0.018,1.272,0.048,1.904l41.784-41.785
				C314.448,238.062,313.812,238.043,313.174,238.043z"/>
			<path opacity="0.2" fill="#FFFFFF" d="M273.653,283.64c0.68,4.783,2.2,9.296,4.418,13.376l54.147-54.146
				c-4.082-2.218-8.593-3.738-13.376-4.418L273.653,283.64z"/>
		</g>
		<path fill="none" stroke="#454545" stroke-width="3" d="M313.174,314.861c21.542,0,39.089-17.061,39.89-38.405
			c-0.799-21.348-18.345-38.413-39.89-38.413c-21.544,0-39.093,17.065-39.889,38.413
			C274.086,297.801,291.633,314.861,313.174,314.861z"/>
	</g>
	<path fill="none" stroke="#454545" stroke-width="6" d="M229.373,276.456c0,0,6.98-3.906,22.606-3.906
		c15.625,0,21.269,3.906,21.269,3.906"/>
</g>
</svg>
