<?xml version="1.0" encoding="utf-8"?>
<!-- Generator: Adobe Illustrator 15.0.0, SVG Export Plug-In . SVG Version: 6.00 Build 0)  -->
<!DOCTYPE svg PUBLIC "-//W3C//DTD SVG 1.1//EN" "http://www.w3.org/Graphics/SVG/1.1/DTD/svg11.dtd">
<svg version="1.1" id="Layer_1" xmlns="http://www.w3.org/2000/svg" xmlns:xlink="http://www.w3.org/1999/xlink" x="0px" y="0px"
	 width="500px" height="500px" viewBox="0 0 500 500" enable-background="new 0 0 500 500" xml:space="preserve">
<g>
	<path fill="#AE5D52" d="M201.948,291.649c0,12.601-7.104,22.811-15.85,22.811c-8.757,0-15.85-10.21-15.85-22.811
		c0-12.605,7.093-22.82,15.85-22.82C194.844,268.829,201.948,279.044,201.948,291.649"/>
	<path fill="#FFFFFF" d="M337.117,289.193c0,18.903-10.644,34.223-23.776,34.223c-13.128,0-23.771-15.319-23.771-34.223
		c0-18.9,10.644-34.215,23.771-34.215C326.474,254.979,337.117,270.293,337.117,289.193"/>
	<path fill="#AE5D52" d="M329.485,291.649c0,12.601-7.099,22.811-15.851,22.811c-8.751,0-15.849-10.21-15.849-22.811
		c0-12.605,7.098-22.82,15.849-22.82C322.387,268.829,329.485,279.044,329.485,291.649"/>
	<path fill="#F4CBB3" d="M163.509,269.746l48.178,20.262c0,0,4.502-30.618-16.66-39.173
		C173.865,242.281,163.509,269.746,163.509,269.746z"/>
	<path fill="#F4CBB3" d="M336.808,269.746l-48.177,20.262c0,0-4.503-30.618,16.659-39.173
		C326.452,242.281,336.808,269.746,336.808,269.746z"/>
	<path fill="#DBAE94" d="M204.686,282.649l-33.917-12.823c1.711-5.398,7.262-10.774,7.262-10.774
		c-5.741,0.676-12.157,11.481-12.157,11.481l0.357,0.356l4.048,1.703c0-0.029-0.002-0.057-0.002-0.086l3.088,1.384l37.011,15.565
		c0.1-4.083-0.18-19.804-9.72-29.054C200.655,260.402,205.539,270.1,204.686,282.649z"/>
	<path fill="#DBAE94" d="M295.169,282.649l33.918-12.823c-1.711-5.398-7.262-10.774-7.262-10.774
		c5.74,0.676,12.157,11.481,12.157,11.481l-0.356,0.356l-4.05,1.703c0-0.029,0.003-0.057,0.003-0.086l-3.088,1.384l-37.012,15.565
		c-0.099-4.083,0.18-19.804,9.721-29.054C299.2,260.402,294.316,270.1,295.169,282.649z"/>
</g>
</svg>
