<?xml version="1.0" encoding="utf-8"?>
<!-- Generator: Adobe Illustrator 15.0.0, SVG Export Plug-In . SVG Version: 6.00 Build 0)  -->
<!DOCTYPE svg PUBLIC "-//W3C//DTD SVG 1.1//EN" "http://www.w3.org/Graphics/SVG/1.1/DTD/svg11.dtd">
<svg version="1.1" id="Layer_1" xmlns="http://www.w3.org/2000/svg" xmlns:xlink="http://www.w3.org/1999/xlink" x="0px" y="0px"
	 width="500px" height="500px" viewBox="0 0 500 500" enable-background="new 0 0 500 500" xml:space="preserve">
<g>
	<path fill="#FFFFFF" d="M209.574,268.932c0,18.903-10.645,34.224-23.772,34.224c-13.131,0-23.777-15.32-23.777-34.224
		c0-18.899,10.646-34.214,23.777-34.214C198.93,234.717,209.574,250.032,209.574,268.932"/>
	<path fill="#AE5D52" d="M201.948,271.389c0,12.6-7.104,22.81-15.85,22.81c-8.757,0-15.85-10.21-15.85-22.81
		c0-12.605,7.093-22.821,15.85-22.821C194.844,248.568,201.948,258.783,201.948,271.389"/>
	<path fill="#FFFFFF" d="M337.117,268.932c0,18.903-10.644,34.224-23.776,34.224c-13.128,0-23.771-15.32-23.771-34.224
		c0-18.899,10.644-34.214,23.771-34.214C326.474,234.717,337.117,250.032,337.117,268.932"/>
	<path fill="#AE5D52" d="M329.485,271.389c0,12.6-7.099,22.81-15.851,22.81c-8.751,0-15.849-10.21-15.849-22.81
		c0-12.605,7.098-22.821,15.849-22.821C322.387,248.568,329.485,258.783,329.485,271.389"/>
	<path fill="#F4CBB3" d="M290.48,285.505c0,0,19.811-12.607,45.025,0.9C360.721,299.912,299.035,331.432,290.48,285.505z"/>
	<path fill="#F4CBB3" d="M210.495,285.505c0,0-19.81-12.607-45.024,0.9C140.256,299.912,201.941,331.432,210.495,285.505z"/>
</g>
</svg>
